<?xml version="1.0" encoding="utf-8"?>
<!-- Generator: Adobe Illustrator 16.0.4, SVG Export Plug-In . SVG Version: 6.00 Build 0)  -->
<!DOCTYPE svg PUBLIC "-//W3C//DTD SVG 1.1//EN" "http://www.w3.org/Graphics/SVG/1.1/DTD/svg11.dtd">
<svg version="1.1" id="Capa_1" xmlns="http://www.w3.org/2000/svg" xmlns:xlink="http://www.w3.org/1999/xlink" x="0px" y="0px"
	 width="466.583px" height="466.582px" viewBox="0 0 466.583 466.582" enable-background="new 0 0 466.583 466.582"
	 xml:space="preserve">
<path id="_x3C_Path_x3E_" d="M12.548,0C5.629,0,0,5.629,0,12.548c0,2.787,1.78,7.33,5.44,13.89c2.59,4.64,5.136,8.509,5.243,8.671
	l1.865,2.827l1.865-2.827c0.107-0.162,2.654-4.031,5.243-8.671c3.66-6.56,5.439-11.103,5.439-13.89C25.096,5.629,19.467,0,12.548,0z
	 M12.548,18.968c-3.592,0-6.505-2.912-6.505-6.505c0-3.592,2.913-6.504,6.505-6.504s6.505,2.912,6.505,6.504
	C19.053,16.056,16.14,18.968,12.548,18.968z"/>
</svg>
