<?xml version="1.0" encoding="utf-8"?>
<!-- Generator: Adobe Illustrator 16.0.4, SVG Export Plug-In . SVG Version: 6.00 Build 0)  -->
<!DOCTYPE svg PUBLIC "-//W3C//DTD SVG 1.1//EN" "http://www.w3.org/Graphics/SVG/1.1/DTD/svg11.dtd">
<svg version="1.1" id="Layer_1" xmlns="http://www.w3.org/2000/svg" xmlns:xlink="http://www.w3.org/1999/xlink" x="0px" y="0px"
	 width="81.035px" height="84.957px" viewBox="0 0 81.035 84.957" enable-background="new 0 0 81.035 84.957" xml:space="preserve">
<path id="Afghanistan" fill="#27AE60" stroke="#FFFFFF" stroke-miterlimit="10" d="M79.324,31.398l-0.107-0.217
	c-0.652-0.543-0.869-1.739-1.74-2.174c-0.869-0.435-1.193-0.435-1.305-1.304c-0.107-0.87-0.436-2.174-0.436-2.174
	s-1.088-1.63-1.631-1.63c-0.545,0-2.719,0.543-3.15,0.218c-0.438-0.326-2.5-0.109-3.262-0.761c-0.762-0.652-0.869-1.195-1.85-0.761
	c-0.979,0.435-2.717,0.543-2.717,0.543l-1.633-1.087c0,0-0.867-0.326-1.738-0.87c-0.869-0.543-0.979-1.848-1.305-2.391
	c-0.324-0.543-0.979-1.413-1.412-1.739c-0.436-0.326-0.869-0.978-1.414-1.522c-0.543-0.543-1.193-0.869-1.955-1.087
	c-0.762-0.217-1.414-0.326-1.631-0.978c-0.219-0.652,0-1.196-0.438-1.304c-0.436-0.109-1.521-0.543-1.521-0.543
	s-0.107-1.522-0.65-1.848c-0.543-0.326-1.631-1.195-2.283-1.521c-0.65-0.326-1.412-0.435-1.629-1.305
	c-0.219-0.869-0.545-1.195-0.545-1.195s-1.305-0.87-1.521-1.413c-0.219-0.543-0.869-1.63-0.869-1.63l-1.414-1.522L39.538,0.64
	l-2.031-0.128l-0.548,0.477c-1.062,0.53-0.526,0.461-1.41,0.815c-0.885,0.354-4.066,0.354-4.243,1.591
	c-0.178,1.237-0.354,1.591-1.062,3.005s-0.884,1.768-1.77,1.944c-0.884,0.176-1.235,0-2.121-0.177
	c-0.884-0.177-2.476-0.884-2.476-0.884l-1.414-0.177l-1.237-1.237c0,0-0.707,0.53-1.414,0.884s-2.298,1.768-2.298,1.768
	s-2.477,0.707-3.184,0.707s-0.707-0.177-1.414,0c-0.707,0.177-1.943,0-2.475,0.708c-0.53,0.707,0.707,1.414-1.944,1.591
	c-2.651,0.177-2.651,0.177-3.358,0.177s-1.942,3.712-1.942,3.712s1.414,1.237,0.354,1.591c-1.061,0.354-1.769,1.414-2.299,2.122
	c-0.529,0.707-0.884,1.237-0.707,2.121c0.178,0.884,0,1.414,0.354,2.475s1.235,3.182,1.235,3.182s0.707,0.354,0.529,1.415
	c-0.177,1.061-0.707,1.591-0.177,2.475c0.53,0.884,1.591,1.237,1.591,1.237l1.062,1.415c0,0,1.415-0.354,1.415,0.884
	c0,1.238,0.179,1.768,0.354,3.182c0,0,1.021,1.399,1.729,0.869c0.707-0.531,1.943-1.415,1.943-2.475s-0.177-1.414,0.707-1.591
	c0.885-0.177,1.414-0.177,2.298-0.53c0.885-0.354,0.53-0.354,1.592-0.354s0.884-0.53,1.415,0.531
	c0.529,1.061-0.178,0.354,0.178,1.944c0.354,1.59,0.529,1.414,0.706,2.475c0.179,1.061,0,0.707-0.354,2.121
	c-0.354,1.414-0.354,1.591-1.237,1.944c-0.885,0.354-2.649,1.237-2.828,2.651c-0.177,1.414,0-0.354,0.179,1.945
	c0.177,2.297,0.177,3.004,0.884,3.358s0.885,0.177,0.885,1.237s-0.53,1.414,0.707,1.591s2.121-0.177,2.121-0.177
	s2.299,0.354,1.769,1.768c-0.528,1.414-1.591,0.529-0.884,2.122c0.707,1.591,0.884,0.354,1.062,2.121
	c0.177,1.767-0.53,2.298,0.354,2.298c0.884,0,2.475,0.707,2.475,0.707l0.179,2.298l0.354,1.415c0,0-2.298-0.884-1.942,0.707
	c0.354,1.592,0.707,1.592,0.707,1.592s2.298-0.178,2.298,1.413s-0.354,2.122-0.179,3.005c0.179,0.883,1.062,0.178,0.886,1.414
	c0,0-0.146,1.944,0.776,2.488c0.924,0.543,1.85,0.598,2.282,0.436c0.432-0.164,1.25-1.576,2.119-1.522
	c0.869,0.055,1.412-0.38,2.012,0.163s1.195,0.435,1.738,0.543c0.544,0.109,0.924,0.271,1.686,1.033
	c0.763,0.761,1.087,1.25,1.25,1.521s0.163,1.032,0.543,1.576c0.382,0.543,1.25,0.707,1.521,0.761
	c0.271,0.054,1.901-0.163,2.391,0.218c0.49,0.379,1.688,2.01,1.795,2.445s1.305,0.869,1.305,0.869s2.719-0.326,3.15-1.521
	c0.438-1.194,2.721-2.717,2.721-3.479s0-1.957,0.543-2.064c0.543-0.109,2.824-0.871,3.586-0.762
	c0.762,0.107,2.283,0.436,2.719-0.543s0.326-3.805,1.848-3.913s2.395-0.979,3.369,0c0.979,0.978,3.697,2.5,3.697,2.5
	s3.693,0.544,4.891-0.761c1.195-1.305,2.283-2.936,2.283-3.805c0-0.868,0.326-1.195,0.326-2.174s-0.871-3.695-0.871-3.695
	s-0.76-1.196-1.412-1.413c-0.65-0.218-1.631-1.304-1.631-1.304s-0.762-2.065-0.762-2.936c0-0.869,0.436-4.457,0.979-4.564
	c0.545-0.109,2.066-1.088,2.938-1.088c0.869,0,2.281,0.108,2.719-0.217c0.436-0.326,1.193-4.457,1.631-5.543
	c0.434-1.086,0.65-1.957,1.412-1.848s2.174,0,2.064-1.848c-0.107-1.849-0.326-5.436-1.088-6.63c-0.762-1.196-1.305-1.413-0.869-2.5
	s0.98-1.413,0.98-1.413L79.324,31.398z"/>
</svg>
