<?xml version="1.0" encoding="utf-8"?>
<!-- Generator: Adobe Illustrator 16.0.4, SVG Export Plug-In . SVG Version: 6.00 Build 0)  -->
<!DOCTYPE svg PUBLIC "-//W3C//DTD SVG 1.1//EN" "http://www.w3.org/Graphics/SVG/1.1/DTD/svg11.dtd">
<svg version="1.1" id="Layer_1" xmlns="http://www.w3.org/2000/svg" xmlns:xlink="http://www.w3.org/1999/xlink" x="0px" y="0px"
	 width="70.38px" height="69.496px" viewBox="0 0 70.38 69.496" enable-background="new 0 0 70.38 69.496" xml:space="preserve">
<path id="Alaska" fill="#F39C12" stroke="#FFFFFF" stroke-miterlimit="10" d="M63.602,68.897c-0.625-1.25-0.5,0.125-0.875-2
	s-1.125-1.875-1.75-2.5s-1.5-0.75-1.125-1.875s0.625-1.125,0.25-2.25s-2-1.75-2.5-2.875s-0.5-0.25-0.5-2s0.5-2-1-2.5
	s-2.5,0.75-3.25-0.875s-0.625-0.75-2.125-1s-2.125-0.125-2.625-1.125s-0.75-1.875-1.75-1.875s-2.25-0.375-2.5-1
	s-1.625-2.375-2.5-2.375s-0.625,0.625-2,1.25s2.5,1.25-0.5,2s-4.375,1-5,0.5s-2.875,1.125-2.5-0.75s0.5-1.625,1.125-2.125
	s2.375-0.625,1.625-1.125s-0.375-1.375-3-0.75s-3.375,0.875-4.25,1.5s-0.875,1.875-1.25,2.625s1.125,0.5-1.75,1.75
	s-1.375-0.625-4.375,2s-2,2.875-4.25,3.25s-0.875,0-2.625,1.875s-1.5,2.75-3.25,2.75s-1.125,3.125-2.75,1s-2.75-1.25-1.5-2.25
	s1.5-0.75,2.5-1s0.5,0.375,1.625-1.25s0.875-2.25,2.625-2.375s1.5,1.5,2.25-0.875s0-2.25,1.375-3.5s2.875-2.5,1.125-2.625
	s-1.875-0.5-3.5,0.25s-1.75,1.125-3.25,0.875s-1.875-0.375-1.875-1s-0.625-2.625-0.625-2.625s1.25-0.625-0.875-1.125
	s-2.25,1.125-2.125-0.5s1.125-1.375,0.25-2.125s-1.125-1.25-2.25-0.75s-2.375,1.75-1.625-0.125s2.25-2.625,2.75-3.375
	s1.25-2.875,1.5-4s-1-0.5,0.5-1.625s0.875-1.375,2.75-1.25s1.375,0,2.625,0.625s1.625,1,2.375,0.625s1.5-1.25,2-1.875
	s1.125-1,1.25-1.75s0.75-1.5-0.625-1s-0.875,0.5-2.75,0.875s-1.625,1.75-2.375,0.125s-0.875-2.375-0.875-2.375s-0.75,0-0.625-1.75
	s-1.125-4.625,2.25-5.5s5.5-0.125,5.625,0.375s-1,1,0.5,1.125s1.625,0.5,2.5-0.75s1.875-1.125,0.875-1.625s-1.875-0.375-2.375-1.375
	s0-1.25-0.5-2.625s-0.5-1.625-1.25-2.625s-2.75-2.5-0.25-3.125s5.125-1.25,4.632-0.895c0,0,2.829-3.182,4.596-2.829
	c1.768,0.354,3.889,0,5.657-1.414c1.768-1.414,4.596-0.707,4.596-0.707l2.121,1.768c0,0,2.829,2.829,4.597,1.768
	s1.768,1.768,4.949,2.121c3.182,0.354,4.596,1.061,7.778,2.122c0,0,0.884-0.354,0.707,0.884c-0.177,1.238-1.944,30.583-1.414,30.936
	l0.151,0.245l7.5,0.875c0,0,0.125,0.125,0.625,1.625s0.875,2.5,2,4.5s0.125,8,0.125,8l2,2.75c0,0,1.625,0.75,2.25,0.875
	s0.375,3.25,0.25,4.5s-1.625,0.625-2.5,0.875s-1.125,2.375-1.25,3.625S63.602,68.897,63.602,68.897z"/>
</svg>
