<?xml version="1.0" encoding="utf-8"?>
<!-- Generator: Adobe Illustrator 16.0.4, SVG Export Plug-In . SVG Version: 6.00 Build 0)  -->
<!DOCTYPE svg PUBLIC "-//W3C//DTD SVG 1.1//EN" "http://www.w3.org/Graphics/SVG/1.1/DTD/svg11.dtd">
<svg version="1.1" id="Layer_1" xmlns="http://www.w3.org/2000/svg" xmlns:xlink="http://www.w3.org/1999/xlink" x="0px" y="0px"
	 width="64.873px" height="51.25px" viewBox="0 0 64.873 51.25" enable-background="new 0 0 64.873 51.25" xml:space="preserve">
<path id="Alberta" fill="#F39C12" stroke="#FFFFFF" stroke-miterlimit="10" d="M1.207,0.5c0,0,0.125,0.125,0.625,1.625
	s0.875,2.5,2,4.5s0.125,8,0.125,8l2,2.75c0,0,1.625,0.75,2.25,0.875s0.375,3.25,0.25,4.5s-1.625,0.625-2.5,0.875
	S4.832,26,4.707,27.25s-2.372,0.752-2.372,0.752c0.625,1.25,1.875,1.375,2.375,3.625s0.25,1.5,0.875,2.375s1.75,1,2,3
	s0.25,0.875,1.625,3.5s0.125,3.75,0.375,6.125s1.5,1.5,2.375,2.75l0.372,1.373l48-0.125l4-48.375C64.332,2.25,1.457,0.5,1.207,0.5z"
	/>
</svg>
