<?xml version="1.0" encoding="utf-8"?>
<!-- Generator: Adobe Illustrator 16.0.4, SVG Export Plug-In . SVG Version: 6.00 Build 0)  -->
<!DOCTYPE svg PUBLIC "-//W3C//DTD SVG 1.1//EN" "http://www.w3.org/Graphics/SVG/1.1/DTD/svg11.dtd">
<svg version="1.1" id="Layer_1" xmlns="http://www.w3.org/2000/svg" xmlns:xlink="http://www.w3.org/1999/xlink" x="0px" y="0px"
	 width="63.487px" height="131.426px" viewBox="0 0 63.487 131.426" enable-background="new 0 0 63.487 131.426"
	 xml:space="preserve">
<path id="Argentina" fill="#C0392B" stroke="#FFFFFF" stroke-miterlimit="10" d="M56.905,23.521c0.125,1.75,0.25,3-0.375,3.125
	s-1.875,1.25-2,3s-3.375,2.625-3.375,2.625s-2.125,1.5-1.875,2.5s5,0.25,5,0.875s-0.75,5.125-0.25,5.25s3.75-1,4.25-0.375
	s-0.625,4.5-0.375,4.875s3.125,2.5,3.781,1.906c-1.406,0.344-4.656,1.844-4.031,2.719s1.5,1.125,0,1.5s-1.25,0.25-2.75,0.5
	s-1.25,0.125-2.875,0.5s-1.875,0.875-2.875,1s-1.5-0.125-2.125-0.125s-1.125,0-1.125,0.625s-0.125,0.75,0.5,1.25s2.375,1,2.5,1.5
	s0.125,0.875,0.125,1.75s0.125,1,0.625,1.125s0.625,0.25,0.75,0.75s-1.25,2.25-2,2.75s-1.375,1.125-3.125,1.25s-1.375-0.125-2.5,0.5
	s-1.125,0.75-2.375,0.75s-1.625,0-2.875,0.25s-2.125,0.5-2.125,0.5s0.5,0.75,0.625,1.5s0.75,0.875,0.25,2s-1.375,1.625-1.75,2.125
	s-0.375,0.25-0.375,1.25l-2.625,0.375c0,0-0.875-0.75-1.125,0.375s1,2.125,1,2.125s-1.75,2.625-1.5,3.25s0.875,1.625,0.625,2.125
	s-0.125,0.75-0.75,1.25s-0.125,1-0.5,1.5s-0.75,1.25-1.625,1.625s-1.125,1-1.125,1l-0.625,1.125c0,0-0.5,0.625,0.125,1.375
	s1.25,0.25,0.875,1.625s-0.25,1.75-0.25,1.75s1.25-1.375,1.125,2.375s-0.75,4.625-0.75,4.625s-0.625-0.125-0.375,1
	s0.75,2.125,0.125,2.75s-0.5-0.375-1.5,1.625s0,4.75,0.625,5.375s1.125,0.75,1,2s-0.75,1.375-0.25,2.25s2.125,1.5,2.375,2.375
	s-0.25,1.5,0.25,2.125s1.125,1.125,1.125,1.125s-0.25,1-0.25,2.125s-0.5,1-0.5,2s0,2.25,0.5,1s0.375-1.25,0.875-1.75
	s2.125-0.5,2.625-0.5s1-0.75,1.875-0.375s1,0,1.5,1.25s0.25,1.5,1.25,1.75s1.875,0.125,2.875,0.125s1.25-0.75,1.5,0.375
	s1.75,1.5,0.25,2s-1.75,0-3.25,0.5s-1.5,0.5-2,0.625s-0.5,0.5-1.375,0.875s-0.375,0.75-2,0.375s-1,0.125-2.125-0.625
	c-1.125-0.75-1.625-1.125-1.625-1.625s-0.75-1-0.75-1l-2.875-2.5h-1.375h-2c-0.75,0-1.25-0.625-1.25-0.625l-1.75,0.062
	c0,0-0.438-0.438-0.188-1c0.25-0.562,0.25-0.562-0.062-0.625c-0.312-0.063-1.188-0.125-1.75-0.312s0-1-0.125-1.25
	s-1.312-0.25-1.938-0.312c-0.626-0.062-1.5-0.375-2-1s-0.375-0.812-1.438-1.688s-0.75-1-1.688-1.312c-0.938-0.312-1.25-0.25-1.438-1
	s-0.938-0.875-1.25-1.625s0-1.25-0.875-1.812s-1.062-0.125-1.188-1.312c-0.126-1.188,0.188-1.75-0.125-2.375
	s-0.125-0.125-0.625-0.875s-0.75-0.875-0.938-1.75s-0.188-1.312-0.5-1.875c-0.312-0.563-0.875-0.812-0.938-1.438
	s-0.062-0.875-0.062-1.438c0-0.562,0.188-1-0.125-2.25s-0.125-1.562-0.75-2.312s-0.688-0.25-1.188-1.875s-1.062-1.875-0.75-2.688
	c0.312-0.812,0.5-0.938,0.562-1.562s0.438-0.5,0.5-1.375s0.062-0.625,0.062-1.812c0-1.188-0.75,0.312,0.125-2.938
	s0.875-3.125,0.938-3.875s1.25-0.875,0.812-2.188c-0.438-1.312-0.688-1.312-0.562-2.188s0.625-1.25,0.5-1.688
	c-0.125-0.438,0.062-0.25-0.125-0.75s0.5-0.25-0.312-0.875s-1.062-0.5-1.188-1.438S1.777,69.956,1.84,66.27s-0.188-3.938,0.438-5
	s0.938-1.188,0.938-2.062c0-0.875,0.5-2,0.125-3.062s-0.688-1.188-0.312-1.812c0.376-0.621,0.688-0.625,0.688-1.375
	s0,0.312,0.062-1.312s-0.438-0.438,0.188-2.562c0.626-2.125,0.875-4.25,0.938-5.312s0.125-1.375-0.188-2s-0.75-3.625-0.75-4.625
	s0.188-0.75,0.438-1.75s0.312-1.188,0.25-1.5s0-0.625,0.188-1.438c0.188-0.813-0.188-2.5,0.5-4.25s0.875-1.062,0.688-2.312
	s-1.625-3.25-1.188-4.625s0.875-1.125,0.812-2.938c-0.063-1.813-0.25-4.25,0.188-5.25s0.688-4.438,0.5-5.25l0.188-0.062
	c0.375-2.875-1.125-5.375-1.125-5.375s1.5-1.625,2.375-1.875s1,1.625,0.75,2.625s0.125,2,1.25,3.125s2.375,2.375,2.875,3.25
	s1.75,1.625,2,2.625s0.625,2,1.875,3s2-0.125,2.25-0.875s-0.125-2.5,0.125-4.25s2.5,0.25,2.5,0.25s0.875,1.875,1.25,2.5
	s2,0.375,2.75-0.375s1.25-0.625,1.75-0.625s1.5,1,3.25,0.75s1.875-0.375,3.375,1c1.5,1.375,0.25,2.125,1.625,3s1.375,0,2.25,0.375
	s0.375,1.5,1.75,2.375s5,0.125,6.25,0.625s0,1.625,0,2.5s0,3.25-0.625,3.5s-1.5,2-1.375,3.375s3.375,0,4.75-0.625s2-0.5,3.375-1.75
	S56.905,23.521,56.905,23.521z"/>
</svg>
