<?xml version="1.0" encoding="utf-8"?>
<!-- Generator: Adobe Illustrator 16.0.4, SVG Export Plug-In . SVG Version: 6.00 Build 0)  -->
<!DOCTYPE svg PUBLIC "-//W3C//DTD SVG 1.1//EN" "http://www.w3.org/Graphics/SVG/1.1/DTD/svg11.dtd">
<svg version="1.1" id="Layer_1" xmlns="http://www.w3.org/2000/svg" xmlns:xlink="http://www.w3.org/1999/xlink" x="0px" y="0px"
	 width="122.109px" height="116.787px" viewBox="0 0 122.109 116.787" enable-background="new 0 0 122.109 116.787"
	 xml:space="preserve">
<path id="Brazil" fill="#C0392B" stroke="#FFFFFF" stroke-miterlimit="10" d="M75.418,0.506c0,0-4.33,3.574-4.859,4.635
	c-0.531,1.061-0.885,3.358-2.121,3.535c-1.237,0.178-8.663,0.53-8.663,0.53s0.354,2.12-0.707,2.12
	c-1.061,0-11.491-0.354-11.491-0.354l-1.414-4.241c0,0-1.237,0.885-1.414-0.885c-0.177-1.768-0.177-4.597-0.177-4.597
	s-2.652,1.414-4.243,1.942c-1.591,0.53-3.005,3.185-4.419,2.651c-1.414-0.53-2.122-2.299-2.475-0.884
	c-0.354,1.414,0.177,5.654-0.884,6.01c-1.061,0.355-1.414-0.266-2.298,0.796c-0.884,1.062-3.271,1.326-3.978,0.707
	c-0.707-0.618-1.238-1.325-2.033-1.591c-0.795-0.268-1.237-0.707-2.121-0.796c-0.884-0.088-1.061-0.529-1.768,0.266
	c-0.707,0.796-2.209,2.121-2.475,2.828s-1.68,3.271-1.326,4.242c0.354,0.973,1.768,0.708,1.768,2.477c0,1.77-0.53,2.65-1.502,2.916
	c-0.973,0.268-5.834,1.855-5.834,1.855s-4.066-0.043-4.191,0.582s0.125,4.5-0.875,5.25s-3.75,0.379-3.875,1.379
	s-2.125,1.625-1.375,3s2.125,2.625,3.125,2.625s2.25,0.125,2.375,1.125s3.625,1.125,5,1.875s4.875-1.125,4.625,1
	s-3.875,2.5-4.125,3.875s-0.375,4.375,2.375,4.25s5.25-2,7.125-2.375s3.75-0.375,4.25-0.875s0.875-1.75,1.875-1.875
	s3.375,1,4.125,2.25s0.875,2.375,2.375,2.5s1,1,2.125,1.5s2.125,0,3.125,0.625s1,2.75,2.625,2.75s3.875-1.125,4.5,0.125
	s1.25,3,2,3.75c0.75,0.75,0.25,1.75,0.5,2.5s1.75,0.875,2.875,1.75s1.25,1.375,1.625,3.125s1.25,1.75,2,3.25s2,4.75,1.75,5.875
	s-1,2.5,0.5,3.375s2.125,1.375,3,2.75s1.5,0.875,2.125,1.375s1,2.375,1.375,5s3.25,3.625,3.375,5.375s0.25,3-0.375,3.125
	s-1.875,1.25-2,3s-3.375,2.625-3.375,2.625s-2.125,1.5-1.875,2.5s5,0.25,5,0.875s-0.75,5.125-0.25,5.25s3.75-1,4.25-0.375
	s-0.625,4.5-0.375,4.875s3.125,2.5,3.812,1.938c1.312-0.438,0.562-0.561,0.812-1.311s0.25-0.625,0.875-1.5s0.25-0.875,0.5-1.625
	s0.625-1.375,1.125-1.875s0.75-0.625,1-1.375s0.125-1.125,0.25-2.375s1.625-1.375,3-1.875s1.25-2,1.375-3.25
	s-0.375-0.375-0.375-1.75s-0.125-1.875-0.25-3.25s0.125-0.5,0.75-1.125s0.625-3.375,2.125-6.5s12.5-4,13-4.125
	s3.375-1.125,3.75-1.625s1.625-1.625,2.625-2.125s0.375-1.375,0.625-2.5s0.5-0.75,1.125-1s0.5-1,1.125-1.875s0-1.75,0.375-2.5
	s1.5-1,2.375-1.375s0.375-1.625,1.125-2.375s0-3.375,0-5s0-1.75,0.75-2.75s-0.25-3-0.25-3l0.25-1.75c0,0-0.375-2-0.125-3
	s1.25-1.5,2.75-2.5s0.5-3.25,0.5-3.25v-1.75c0,0,2.25-1,4-1s1.75-2.5,3.25-4s0.75-3,1-4.25c0.25,0.5-0.25-0.75-0.625-1.875
	s-0.125-1.625-0.375-3.375s-1.25-2.5-2.25-3.5s-2.375-0.75-3.25-1s-1.375-1.875-2.25-2.125s-4.25-2.625-6.125-2.875
	s-2-0.125-2.875-1.125s-1.375-0.375-2-0.375s-1.625,0.5-2.375,0s-1.125-0.25-2.25-0.25s-2.124-0.375-2.624-1.25s-0.5-1-1.25-1.375
	s-1.625-0.125-2.375-0.5s-1.625-0.75-2.375-0.875s-1.625,0.125-2.375,0s-2.5-0.5-3.125-0.5s-2.5,0.375-3.375,0.375
	s-2.375-1.5-3.625-2s1.125-0.125,3-2.375s-0.75-3.625-1.25-4.5s-0.625-1.625-1.375-4.25S75.418,0.506,75.418,0.506z"/>
</svg>
