<?xml version="1.0" encoding="utf-8"?>
<!-- Generator: Adobe Illustrator 16.0.4, SVG Export Plug-In . SVG Version: 6.00 Build 0)  -->
<!DOCTYPE svg PUBLIC "-//W3C//DTD SVG 1.1//EN" "http://www.w3.org/Graphics/SVG/1.1/DTD/svg11.dtd">
<svg version="1.1" id="Layer_1" xmlns="http://www.w3.org/2000/svg" xmlns:xlink="http://www.w3.org/1999/xlink" x="0px" y="0px"
	 width="61.264px" height="82.424px" viewBox="0 0 61.264 82.424" enable-background="new 0 0 61.264 82.424" xml:space="preserve">
<path id="CentralAmerica" fill="#F39C12" stroke="#FFFFFF" stroke-miterlimit="10" d="M0.492,0.176c0,0,0.625,3.5,1.75,3.375
	s7.75-0.125,7.75-0.125l3.875,2.125c0,0,1.375,2.375,2.375,2.375s8.75-0.5,9.375,0s2.875,3.25,4,3.25s1.5,0.625,1.875,1.125
	s1.625,1.5,2.625,1.375s4.25-0.375,4.438,0c0.062,0.125,0.188,2.75,0.188,3.625s-0.75,2.375-1.125,4s-1.875,2.75-1.875,3.625
	s2,2.125,2,2.125c-0.501,2.793-0.886,5.47,0.25,6.625l0.125,2.25l1.5,2.625c0,0,2.25,3.25,5.125,2.375
	c2.875-0.875,1.5-0.25,3.875-1.375c2.375-1.125,1.625,1.25,2.875-1.25c1.25-2.5,0.375-2.75,1.75-3.25s0.625-1,2.375-0.5
	s0.125,0.625,2.375,0.75s2.5-2.375,2.25,0.5s-0.5,3-0.75,3.75s0.375-0.125-0.5,1.5c-0.875,1.625-1.375,1.75-2,2.125s-1,0.625-1,1.75
	s0.25,2-0.875,2.5s-2.25-0.125-2,1.25s-0.125,1.75,0.875,2.375s1.75,0.75,2.375,1.875s0.875,2.5,0.625,3s-0.125,2.125-0.875,2.5
	s-1.75,0.125-1.75,1.75s0.75,2.875,0,3.25s-2-0.5-2.25,0.375s-0.375,1.625-0.5,2.375s-0.75,0.875-0.75,1.375v1.625
	c0,1.375-0.875,2.25,0.375,2.5s1.875,0.625,2.5,0.25s1.375-0.5,1.875-0.875s1.25-1.375,2-1.375s2.25,0.375,2.25,0.375
	s0.75,1.875,0.625,2.5s0.375,0.5,0.25,2s-0.125,2.625-0.375,3.125s-0.625,1-0.875,1.5s0,0.5-0.25,1.25s0.125,1.875-0.5,1.375
	s-0.25-0.5-0.625-1s-0.625-1.125-1.375-2.375s-0.625-0.5-2.125-1.25s-1.376-1.625-2.376-1.125s-0.625,1.375-1.75,0.625
	s-1.5-0.75-2.125-1.75s-0.5-0.875-0.875-1.625s-1.375-0.25-1.375-1.625s0.375-1.625,0-2.375s-0.75-1.125-1-1.75
	s-0.375-0.125-0.375-1.375v-2.625c0-0.5-0.5-2.5-0.5-2.5l-0.625-1.25c0,0-0.125-0.125-0.625-0.875s-0.5-0.375-0.875-1.625
	s-1.25-2.75-1.5-3.75s-1.625-2.25-5.75-3.75s-3.875-1.875-7.375-2.625s-4.75-1.375-4.75-2.875s0-2-0.875-2.5s-1.75-0.625-1.375-1.5
	c0.375-0.875,1-1,1.625-2.125s0.75-1.375,0.75-2.25s0.375-1-1-1.625s-4.125-3-4.125-3s1.625-0.375-1.875,0.125s-3.75,2.5-4.75,1.25
	s0.75-5.625-0.5-6.25s-1.125,0.25-1.875-1.375s-0.125-3-0.5-4.375s0,0.75-1-3.875s0.875-3.375-1.375-6s-5-2.375-5.25-4.5
	C0.617,6.301,0.68,0.676,0.492,0.176z"/>
</svg>
