<?xml version="1.0" encoding="utf-8"?>
<!-- Generator: Adobe Illustrator 16.0.4, SVG Export Plug-In . SVG Version: 6.00 Build 0)  -->
<!DOCTYPE svg PUBLIC "-//W3C//DTD SVG 1.1//EN" "http://www.w3.org/Graphics/SVG/1.1/DTD/svg11.dtd">
<svg version="1.1" id="Layer_1" xmlns="http://www.w3.org/2000/svg" xmlns:xlink="http://www.w3.org/1999/xlink" x="0px" y="0px"
	 width="116.95px" height="111.233px" viewBox="0 0 116.95 111.233" enable-background="new 0 0 116.95 111.233"
	 xml:space="preserve">
<path id="China" fill="#27AE60" stroke="#FFFFFF" stroke-miterlimit="10" d="M105.558,44.141c-1,0.5-0.125,0.5-0.125,1.125
	s0.875,0.25,0.875,1.125s0.25,0.75,0.75,1s0.125,0.75,0.125,2.125s0.125,0.625,1.125,0.875s0.5,0.375,0.75,1.875s1,0.5,1.5,0.5
	s0.5,0.25,0.875,1s0,0.5-1.25,1.25s1.25,0.875,2.625,1.25s0.875,2,0.625,3.375s0.625,1.125,1.5,2.625s0.125,2.375-0.875,4.75
	s0.5,1.625,1.625,1.75s0.875,3.375,0.125,5s0.125,1.5,0.125,3.625s-0.375,2.5-0.625,4.125s-0.375,1.375-1,2.375s-0.25,2-0.25,3.625
	s-1.625,1.625-2.75,1.875s-0.625,0.125-0.5,1.25s-0.5,1.375-1.5,2.375s-0.5,0.25-1.125,1.875s-0.125,0.875-1.5,2.125
	s-1.375,1.875-1.375,1.875s0,1.125-0.25,2.375s-1.125,0.25-1.625,0.125s-1.375,0.625-1.75,1.375s-1.875,1.125-3.125,2.375
	s0.125,0.25,0.5,1.125s-0.875,1.5-1.5,2s-1.125,1.75-2.125,2.375s-1.795-2.082-3.404-2.521c0.268-0.064-1.555-2.123-0.939-2.432
	c0.617-0.307-0.922-1.689-0.922-1.689s0-0.846-0.461-0.846c-0.463,0-0.463-0.154-0.615-0.615S88.4,102,88.4,102
	s-0.844-0.076-0.844-0.613v-1.461c0-0.77-0.309-1.537-0.693-1.537c-0.383,0-1.844-0.152-1.844-0.152s-0.615-1.15-1-1.23
	c-0.383-0.076-1.152-0.229-1.459,0c-0.309,0.23-1,0.771-1.076,1.23c-0.078,0.463-1.15,1.385-1.15,1.385s0.383,0.539-0.463,0.689
	c-0.846,0.154-2.768,0.076-3.148,0.154c-0.387,0.074-1.076,1.535-1.076,1.998c0,0.461,0.307,1.768-0.693,1.922
	c-0.998,0.15-2.766-0.078-3.305-0.691c-0.537-0.613-1.998-2.689-2.768-2.611c-0.77,0.076-2.229-1.922-2.15-2.23
	c0.076-0.307,0.613-0.461-0.309-0.998c-0.922-0.539-1.152-0.309-1.461-1.229c-0.309-0.924-0.461-2.383-0.848-2.691
	c-0.385-0.307-0.77-0.461-1.537-0.846c-0.768-0.383-1.074-1.307-1.611-1.459c-0.539-0.154-0.691-0.078-1,0.461
	c-0.309,0.537-0.998,1.689-0.998,1.689l-1.229,0.924c0,0-0.385-0.539-1.077,0.385c0,0-2.536-6.996-2.921-7.38
	c-0.385-0.385-9.761-0.538-9.838-0.229c-0.077,0.308-1.153,1.768-1.614,1.768s-1.688-1.307-1.688-1.307s0.384-3.612,0.075-3.997
	c-0.31-0.384-2.922-1.384-3.229-1.229c-0.309,0.154-0.923,2.152-1.384,2.152s-3.689-1.768-3.997-2.998
	c-0.308-1.229,0.615-1.229-0.77-1.307c-1.385-0.076-0.309,1.384-2.384,0.922c-2.073-0.461-2.307-0.768-2.611-1.075
	c-0.31-0.308-1.229-1.46-2.309-1.46c-1.074,0-3.228-1.153-3.381-1.537c-0.152-0.385-0.538-0.846-0.846-1.23
	c-0.309-0.383-0.309-1.689-0.771-2.074c-0.462-0.385-2.073,0.922-2.46,0.998c-0.384,0.078-1.688-0.461-1.46-1.229
	c0.229-0.768,0.614-1.768,1.076-1.998c0.461-0.23,1.383-1,1.46-1.537s0.385-0.769,0.538-1.998c0.152-1.23-0.538-4.074-0.689-4.996
	c-0.153-0.922-0.153-3.767-0.153-3.767s0.076-1.076,0.076-1.383c0-0.308,0.229-0.999,0.229-0.999s-1.384,0.384-1.688,0.461
	c-0.31,0.077-3.384,0.077-3.688,0.077c-0.306,0-1.999-0.923-2.075-1.229c-0.077-0.308-0.229-2.074-0.385-2.383
	c-0.153-0.307-0.229-1.383-0.538-1.076l-1.383,1.998l0.075,0.154c-1.921,0.999-2.996,0.615-3.08,0.449
	c0-0.87,0.326-1.196,0.326-2.174c0-0.979-0.87-3.696-0.87-3.696s-0.762-1.195-1.413-1.413c-0.65-0.217-1.63-1.305-1.63-1.305
	S0.5,44.996,0.5,44.126s0.438-4.457,0.979-4.565c0.544-0.108,2.063-1.086,2.936-1.086c0.869,0,2.282,0.108,2.719-0.217
	c0.437-0.326,1.194-4.457,1.631-5.543c0.436-1.086,0.65-1.957,1.413-1.848c0.762,0.109,2.174,0,2.063-1.848
	c-0.107-1.848-0.326-5.435-1.087-6.63c-0.763-1.196-1.306-1.413-0.87-2.5c0.437-1.087,0.979-1.413,0.979-1.413
	c-0.089-0.177-0.22-1.522-0.271-1.63c0.6,0.435,1.143,0,2.337-0.217c1.195-0.218,0.543-1.087,0.651-1.522
	c0.108-0.435-0.108-1.304-0.438-1.957c-0.325-0.653,0-0.652,0.326-1.196s1.85-1.521,1.957-2.065
	c0.107-0.543,0.217-3.804,0.217-3.804s3.152-0.435,3.807-0.761c0.651-0.326,0-4.565,0-4.565l2.53-0.205
	c-0.154,0.692,0.151,0.769,0.77,0.922c0.613,0.154,0.845,0.538,1.383,1.614c0.538,1.076,1.152,0.384,2.77,0.691
	c1.612,0.308,2.768-1.537,3.458-1.768c0.69-0.23,0.771,0.845,1.689,1.691c0.922,0.845,0.922,1.307,1.689,1.46
	c0.769,0.153,1.075,1.153,1.538,2.075c0.461,0.922,0.075,1.69,0,2.536c-0.077,0.846-0.925,1.076-1.613,2.383
	c-0.692,1.307,0.688,0.845,1.383,0.999c0.691,0.154,0.614,0.922,1.384,1.383c0.771,0.461,0.922-0.461,1.847-1.153
	c0.922-0.691,0.537,0.999,1.074,1.307c0.538,0.308,1.385,0.846,1.922,0.615c0,0,1.135,1.906,1.754,2.083
	c0.617,0.177,1.147,6.453,1.147,6.453s0.973-0.619,1.236,0.177c0.266,0.795,0.618,2.121,0.618,2.121s1.325,0.795,1.325,1.237
	c0,0.442-0.09,1.503,0.266,1.68c0.354,0.177,1.77,0.795,1.77,0.795l0.354,1.326c0,0,0.178,1.149,0.707,1.237
	s0.795-0.088,1.502,0.266s0.885,0.442,1.503,0.442c0.619,0,0.885-0.088,0.885,0.441c0,0.531-0.089,1.414,0.266,1.502
	c0.354,0.089,1.237,0.178,1.237,0.178s0.266,0.529,0.617,0.885c0.355,0.354,1.414,0.441,1.593,0.795
	c0.176,0.354,0.266,0.973,0.354,1.325c0.088,0.354-0.268,1.149,1.061,1.237c1.324,0.088,9.018-1.061,9.018-1.061l0.529,0.883
	c0,0,0.529,0.531,1.146,0.707c0.619,0.178,1.77-0.265,2.74,0.178c0.973,0.441,1.768,0.707,2.209,0.707h1.326
	c0,0,0.266,1.238,0.707,1.326c0.439,0.088,2.209-0.619,2.209-0.619s0.354-0.53,0.885-0.442c0.529,0.089,0.617-1.149,1.592-1.237
	c0.973-0.088,1.502-0.088,1.855-0.088s2.477-1.061,2.562-0.177c0.088,0.884,0.178,1.414,0.617,1.944
	c0.441,0.531,1.68,0.884,2.121,0.884s1.414-0.619,2.033-0.974c0.617-0.354,0.883-0.707,1.68-0.529
	c0.797,0.177,1.592,0.708,1.943,0.884c0.354,0.177,0.529,0.177,1.592,0.53c1.061,0.354,2.477,0.265,2.477,0.265
	s2.562,0.265,3.533,0.53C104.32,44.432,105.027,44.342,105.558,44.141z"/>
</svg>
