<?xml version="1.0" encoding="utf-8"?>
<!-- Generator: Adobe Illustrator 16.0.4, SVG Export Plug-In . SVG Version: 6.00 Build 0)  -->
<!DOCTYPE svg PUBLIC "-//W3C//DTD SVG 1.1//EN" "http://www.w3.org/Graphics/SVG/1.1/DTD/svg11.dtd">
<svg version="1.1" id="Layer_1" xmlns="http://www.w3.org/2000/svg" xmlns:xlink="http://www.w3.org/1999/xlink" x="0px" y="0px"
	 width="71.846px" height="74.952px" viewBox="0 0 71.846 74.952" enable-background="new 0 0 71.846 74.952" xml:space="preserve">
<path id="Congo" fill="#D35400" stroke="#FFFFFF" stroke-miterlimit="10" d="M58.846,60.503c-0.625,0.25-0.75-0.625-1.125-3.375
	s-1.125-9.75-1-10.875s2.875,1,3.375,0.25s0.625-6.375,0.375-7.875s2.125-0.875,3.625-1s1.75-2,2.375-3.25s1.25-1.125,1.875-1.375
	s0.5-1.5,1.25-2.5s1.75-2.75,1.75-4.125s-1.875-2.75-4.125-2.875s-1.75,1-4.875,0.25s-3.75-0.625-4.75-0.875s-0.875-1.875-2-2.25
	s-2.5,2.125-2.5,2.125s-1.25-0.375-2.5-3.375s-3-3.875-3.5-4s-0.625-3.625-0.625-4.25s-2.25-1.375-2.75-2.125
	s-0.875-1.875-1.75-2.125s-1.5-0.25-1.875-2.375c0,0-0.5-3.625-1.16-3.999C38.9,0.38,36.602,2.855,36.602,3.739
	c0,0.883,0.529,1.941-1.769,3.005c-2.298,1.062-3.712,1.769-5.126,2.299s-1.943,1.591-2.828,2.121s-2.122,0.53-3.006,1.237
	s-1.591,0.707-2.12,1.768c-0.531,1.061-1.238-0.707-1.414,1.768c-0.178,2.479,0.354,3.716,0.354,3.716s1.593-1.944,1.236,1.941
	c-0.354,3.891-1.236,4.242-0.707,5.657c0.531,1.414,0.885,1.768-0.528,2.651c-1.413,0.883-2.649,0-2.649,0s-0.354-1.594-1.945-1.237
	c-1.592,0.354-1.769,1.061-3.356,0.707c-1.592-0.354-3.185-0.354-3.185-0.354s-1.943,1.594-2.65,1.237
	c-0.706-0.354-0.706-0.884-1.236-1.944l-0.633-0.183c-1.062-0.375-1.188,2.125-1.188,2.125c0.375,1.125,1.375,1.625,0.875,2.125
	s-1.125,2-1.75,2.875c-0.625,0.875-3.25,2.125-2.25,3.25s7.625,6.375,9,9.5l1.25,1.75c0.625,0.875,2.875-1,3.625-0.375
	s2.75,2,3.5,2.375s4.875-0.25,5.875,0.5s1.75,0.375,1.75,0.375s-0.625,4.25,0,4.875s2.125,1.375,3,0.125s7.375-2,7.75-1
	c0.375,1-0.625,3,0.625,4c1.25,1,2.125,1.75,2,2.75s-1.375,2-0.875,3.375s1.875,1.875,3.375,1.75s1.375,1,2.625,1.25
	s6.125,0.25,6.625,0.625s1.75,1.25,2.125,1.875s1.75,2.875,2.625,2s1.875-5.5,0.5-6s-2.25-0.5-2.25-2s0.75-4.125,1.25-4.125
	s1.125-0.625,1.125-0.625S60.096,61.503,58.846,60.503z"/>
</svg>
