<?xml version="1.0" encoding="utf-8"?>
<!-- Generator: Adobe Illustrator 16.0.4, SVG Export Plug-In . SVG Version: 6.00 Build 0)  -->
<!DOCTYPE svg PUBLIC "-//W3C//DTD SVG 1.1//EN" "http://www.w3.org/Graphics/SVG/1.1/DTD/svg11.dtd">
<svg version="1.1" id="Layer_1" xmlns="http://www.w3.org/2000/svg" xmlns:xlink="http://www.w3.org/1999/xlink" x="0px" y="0px"
	 width="68.49px" height="106.064px" viewBox="0 0 68.49 106.064" enable-background="new 0 0 68.49 106.064" xml:space="preserve">
<path id="EasternAustralia" fill="#8E44AD" stroke="#FFFFFF" stroke-miterlimit="10" d="M0.55,14.712c0,0,0.177,0.53,0.707-1.591
	C1.786,11,1.434,9.939,2.141,8.351S3.202,6.937,4.617,6.23s1.77-1.062,2.122-1.771c0.354-0.707,1.413-0.884,2.476-0.707
	c1.061,0.18,1.591,0.707,2.475-0.528c0.885-1.237,0.707-1.593,1.592-1.237c0.885,0.354,0.354,0.354,1.593,0.707
	c1.235,0.354,2.476,0.885,4.948,0.354c2.477-0.528,2.65-1.769,2.827-0.354c0.179,1.415,0.179,1.592,1.062,1.592
	c0.883,0,0.884,0.178,0.354,1.237c-0.529,1.06-0.178,0.354-1.592,2.298s-2.121,2.121-2.298,3.535
	c-0.178,1.415,0.177,2.299,0.177,2.299s-0.707,1.944,0.53,1.944c1.236,0,1.414-0.53,3.005-0.707
	c1.592-0.179,3.006-0.354,3.185,1.234c0.178,1.594,1.235,4.599,2.298,4.772c1.062,0.176,1.062,0.53,2.827,0.177
	c1.771-0.354,2.478,0.53,2.651-1.061s0.178-1.944,0.178-3.185c0-1.235-1.769,0.707,0.529-2.825c2.298-3.536,2.828-1.237,2.298-5.13
	c-0.529-3.889-1.591-3.532-0.707-6.011c0.885-2.475,0.53-2.475,1.062-2.298c0,0,1.591-0.177,1.768,2.298
	c0.178,2.479,0.885,4.6,0.885,5.657s0.707,4.95,0.707,4.95s1.237,1.414,1.944,0.884s1.769-0.707,1.769-1.945
	c0-1.234,0.354-2.648,0.707-1.941c0.354,0.707,1.414,1.234,1.414,2.299c0,1.061-0.178,2.121,0,3.182
	c0.178,1.062,1.236,2.121,1.236,2.121s0.354,2.121,0.354,2.828s0.354,1.238,0,3.006c-0.354,1.771-0.354,1.944-0.177,3.535
	s0.354,2.298,1.062,2.476c0.706,0.179,0.706,0.179,1.413,0.179c0.709,0,0.886-0.707,1.415,0.177
	c0.529,0.885,0.706,1.415,1.943,1.592c1.236,0.178,2.298,0,2.298,0s0.529,0.884,0.529,1.944c0,1.06-0.177,1.414,0.178,2.828
	s0.354,1.591,1.236,1.768c0.884,0.177,1.414,0.354,1.414,0.354s0.179,0.884,0.179,2.299c0,1.414,0.354,2.298,0.354,2.298
	l1.414,1.062c0,0,0.354,0.886,1.061,1.77s1.414,1.061,1.414,1.061s0.53,1.062,0.707,1.945s-0.354,0.354,0.707,1.591
	c1.062,1.237,1.236,1.592,1.236,2.651s0.885,1.768,0.529,3.182c-0.354,1.414-0.178,1.945-0.354,3.713
	c-0.178,1.771,0.177-0.354-0.178,2.651c-0.354,3.005-0.178,3.889-0.354,4.95c-0.177,1.061-0.529,0.177-0.707,2.121
	c-0.177,1.941-0.354,3.535-0.354,3.535s-1.236,1.768-2.12,1.768c-0.885,0-2.477-0.707-2.477,0.177c0,0.885-0.885,1.594,0.354,1.945
	c1.238,0.353,1.591-0.707,1.591,0.53c0,1.234-0.354,1.591-1.414,2.475c-1.061,0.884-1.062,0.707-2.299,1.414
	s-0.53-0.354-1.414,1.944s-0.707,2.299-1.414,3.183s-0.884,0.884-1.236,1.944c-0.354,1.06-0.354,1.414-0.354,2.648
	c0,1.237-0.354,1.771-0.354,1.771s-1.414,1.414-1.414,2.649c0,1.237,0.885,1.771,0.178,2.651s0,0.884-1.592,1.062
	c-1.593,0.178-2.3,0.178-2.3,0.178l-2.475,0.529c0,0-0.354-1.062-1.237-0.529c-0.883,0.53-0.529,0.354-1.235,1.234
	c-0.707,0.886-0.885,0.887-1.77,1.414c-0.884,0.53,0,0.707-0.529,1.594c-0.53,0.885-0.707,1.769-1.77,1.235
	c-1.062-0.527-1.414-0.354-1.769-1.414c-0.354-1.062,0.177-1.235-1.592-1.769c-1.769-0.531-1.943-0.53-1.943-0.53
	s-0.529,0.354-0.885,1.237c-0.354,0.883,0.178,1.236-1.062,1.769c-1.237,0.53-1.237,1.062-2.477,0.18l0.233-0.271
	c0,0,0-5.657,0.178-7.071s-0.354-1.234-1.062-2.298c-0.707-1.061,0.884-42.25,0.707-43.134c-0.178-0.884-29.875,0.354-29.875,0.354
	L0.55,14.712z"/>
</svg>
