<?xml version="1.0" encoding="utf-8"?>
<!-- Generator: Adobe Illustrator 16.0.4, SVG Export Plug-In . SVG Version: 6.00 Build 0)  -->
<!DOCTYPE svg PUBLIC "-//W3C//DTD SVG 1.1//EN" "http://www.w3.org/Graphics/SVG/1.1/DTD/svg11.dtd">
<svg version="1.1" id="Layer_1" xmlns="http://www.w3.org/2000/svg" xmlns:xlink="http://www.w3.org/1999/xlink" x="0px" y="0px"
	 width="78.64px" height="118.888px" viewBox="0 0 78.64 118.888" enable-background="new 0 0 78.64 118.888" xml:space="preserve">
<path id="EastAfrica" fill="#D35400" stroke="#FFFFFF" stroke-miterlimit="10" d="M2.426,33.311c0,0-0.528-2.121-1.414-3.359
	c-0.884-1.234-0.354-2.648-0.354-3.532c0-0.887,0.354-1.414,0.885-2.121c0.529-0.707,0.177-1.062,0.177-1.062l0.886-1.769
	c0,0,0.528-1.414,0.528-2.651s-0.707-0.707-1.414-0.884s-0.177-0.354,0.886-0.884c1.062-0.53,0.706-1.771,0.884-2.828
	c0.178-1.062-0.354-5.48-0.529-6.364c0,0,2.04-1.296,2.665-1.046s0.25-4.5,1.875-5s29,1.125,28.875-0.5l0.25,0.25
	c0.375,1.125,1.25,1,1.25,1s2,1.5,2.25,2.25s0.5,0.25,0.5,0.875s0.375,2.875,0.875,4.375s0.625,0.75,1.625,1.625
	s0.25,0.75,0.25,2.75s1,1.5,2,3.125s0.125,0.875,0.625,2.25s0.625,2,1.125,3s0.75,0.75,1.375,0.75s0.75,0.375,0.75,1.875
	s2.375,2,3.375,3.5s1.125,1,1.75,2s0,0.75-0.625,2.875s0.125,2.25,0.75,3.25s4,0.875,4,0.875s3-0.25,4.125-0.875s1-0.875,1.5-1.25
	s4,0,6.5-0.625s5.75-3,7.25-0.375s-3.75,13-6,18s-8.5,10-12.375,13.75s-6.25,8.375-6.5,8.875s-1.25,1.5-1.75,1.75s-1,0.625-2,1.875
	s-1.625,0.75-3,1.75s-1.125,2-1.125,2.75s-0.375,2.375-0.75,2.875s0.5,3,0.5,3.875s-0.25,2.875-0.25,2.875s0,0.375,1.375,1.125
	s0.5,5.25,0.5,5.25l0.25,0.5c0,0-1.625,1.625-2.75,1.625s-2.627,1.375-2.627,1.375s-0.625,0.125-1.875,0.5s-2.25,0.25-3.375,1.75
	s-0.5,1.375,0.375,4.25s-0.375,1.125-0.75,2.125s0,3.125,0,4.375s-0.875,1.75-1.5,2.25s-2.625-1.5-3.375-2.75s0-3.25,0.5-4.75
	s-1.125-3.625-1.5-4.875s-0.25-1.375,0.375-2.5s0.125-0.875-0.25-2.625s-1.375-1.625-1.75-2.375s-1.5-2.25-2.5-2.25
	s-0.5-1.625-0.75-2.5s-2-0.5-2.625-0.25s-0.75-0.625-1.125-3.375s-1.125-9.75-1-10.875s2.875,1,3.375,0.25s0.625-6.375,0.375-7.875
	s2.125-0.875,3.625-1s1.75-2,2.375-3.25s1.25-1.125,1.875-1.375s0.5-1.5,1.25-2.5s1.75-2.75,1.75-4.125
	c0-1.375-1.875-2.75-4.125-2.875s-1.75,1-4.875,0.25s-3.75-0.625-4.75-0.875s-0.875-1.875-2-2.25s-2.5,2.125-2.5,2.125
	s-1.25-0.375-2.5-3.375s-3-3.875-3.5-4s-0.625-3.625-0.625-4.25s-2.25-1.375-2.75-2.125s-0.875-1.875-1.75-2.125
	s-1.5-0.25-1.875-2.375S2.426,33.311,2.426,33.311z"/>
</svg>
