<?xml version="1.0" encoding="utf-8"?>
<!-- Generator: Adobe Illustrator 16.0.4, SVG Export Plug-In . SVG Version: 6.00 Build 0)  -->
<!DOCTYPE svg PUBLIC "-//W3C//DTD SVG 1.1//EN" "http://www.w3.org/Graphics/SVG/1.1/DTD/svg11.dtd">
<svg version="1.1" id="Layer_1" xmlns="http://www.w3.org/2000/svg" xmlns:xlink="http://www.w3.org/1999/xlink" x="0px" y="0px"
	 width="97.876px" height="83.422px" viewBox="0 0 97.876 83.422" enable-background="new 0 0 97.876 83.422" xml:space="preserve">
<path id="EasternUnitedStates" fill="#F39C12" stroke="#FFFFFF" stroke-miterlimit="10" d="M27.492,0.502l6.276,0.088
	c0.707,0.354,0.354,5.303,0.354,5.303s3.359-1.768,5.833-1.061c2.475,0.707,4.773-3.182,5.303-0.884
	c0.53,2.298,1.768,4.243,2.298,4.95c0.53,0.707,0.707,1.768,1.768,4.596c1.061,2.828,1.591,5.657,0.884,6.894
	c-0.708,1.237-2.651,3.005-1.062,3.889c1.591,0.884,3.005,2.298,3.89,3.182c0.883,0.884,4.949-2.298,4.772-3.536
	c-0.177-1.238-0.707-2.122,0.177-2.475c0.885-0.353,2.299,0.177,3.006-0.707c0.707-0.884,1.943-2.475,3.004-2.298
	c1.062,0.177,3.537-0.707,3.537-0.707s1.768-0.53,1.768-1.415c0,0,10.253-0.265,11.844-1.237s1.768-0.795,1.768-0.795
	s-0.707-3.889-0.354-4.154c0.354-0.265,1.148-0.53,1.855-1.237s1.783-0.753,2.756-0.576c0.973,0.177,4.492,2.255,4.051,4.2
	s-1.944,5.569-0.354,5.657c1.59,0.088,2.828-0.088,3.094,0.972c0.265,1.06,0.529,1.856,1.061,2.033
	c0.531,0.177,2.387-0.53,2.355-0.833c-0.032-0.303-0.75,1.062-1.438,2.312s-1.687,2.189-1.687,2.189
	c-2.125,0.875-2.5,3.625-3.25,2.5s-1.75-1.125-0.875-2.75s1.5-1.375,1.25-2.875s0.75-1.625-0.5-1.75s-0.625-0.125-2.125,0.375
	s-1.377-1.125-2.627,0.875s-1.625,1.875-2.5,2.375s-0.5,1.125-1.125,1.875s-0.875,1.125-1.375,1.75s-0.625,0.625-0.625,2
	s1.125,3.625,1.125,3.625S81,34.602,80.25,34.977s-0.875-0.875-4.125,2.875s-2.875,4.125-4.875,5s-1.75,1-1.875,1.5
	s-1.5,1.125-0.75,2.25s0,1.375,1.125,1.875s2.25-0.5,2.125,1.125s-1.375,3.25-3.375,4.5s-4.625,5.125-7.25,5.75
	s-3.75,1.5-3.625,2.75s0,2.75-1.375,2.75s-0.5,0.625-0.5,3.625s0.25,3.875,0.875,5s0.875,1.125,0.875,2.875s0,3-0.125,3.5
	s1,0.375-0.875,1.5s-3.5,1.75-4.25-0.125s-2.25-1.375-2.375-2.875c-0.125-1.5,0.5-5.125,0.5-5.125s-1.875-0.5-2.125-1.5
	s-1-3.375-1.5-3.75s-1.5-1.25-2.5-0.75s-2.75,1.5-3.375,1.375s0.875,0.125-2.625-0.875s-5.125-1.5-6.625-1.625s-5-0.125-5.625,0
	s-6.625,1.5-7.375,1.5s-6,1.25-7.375,2.375s-1.25,3-2.75,3.625s-2,0.875-2,0.875s-1.5,1.75-1.625,2.75s-1.375,2.75-2,3.125
	s-0.75,0.25-0.375,1.375c0,0-2-1.25-2-2.125s1.5-2,1.875-3.625s1.125-3.125,1.125-4s-0.125-3.5-0.125-3.5s-1.25-4.625-0.875-5.375
	s-1.375-1-1.375-1S0.5,60.727,1,60.102s2.375-0.625,2.875-0.875s2.25-0.75,2.25-0.75s1-5.5,1-6.125s0.75-4,0.75-4.625
	s3.375-1.875,3.875-2.125s2.25,1.125,2.375-0.25s0-4.5,0.125-5.375s0.5-1.5,1-1.75s11.375-0.125,11.875-0.625
	S26.625,0.977,27.492,0.502z"/>
</svg>
