<?xml version="1.0" encoding="utf-8"?>
<!-- Generator: Adobe Illustrator 16.0.4, SVG Export Plug-In . SVG Version: 6.00 Build 0)  -->
<!DOCTYPE svg PUBLIC "-//W3C//DTD SVG 1.1//EN" "http://www.w3.org/Graphics/SVG/1.1/DTD/svg11.dtd">
<svg version="1.1" id="Layer_1" xmlns="http://www.w3.org/2000/svg" xmlns:xlink="http://www.w3.org/1999/xlink" x="0px" y="0px"
	 width="72.645px" height="45.301px" viewBox="0 0 72.645 45.301" enable-background="new 0 0 72.645 45.301" xml:space="preserve">
<path id="Egypt" fill="#D35400" stroke="#FFFFFF" stroke-miterlimit="10" d="M37.833,44.487c-0.178-0.884-3.89,0.177-4.771-0.177
	c-0.886-0.354-1.414-1.062-1.414-1.062s-0.707-2.121-0.886-3.183c-0.177-1.062-2.649,0.177-3.533,0
	c-0.886-0.177-0.179-1.414-0.53-2.651c-0.354-1.234-1.77-0.707-2.651-0.707S21.75,36,20.512,35.116
	c-1.235-0.884-1.591,0.354-3.005,0.53s-1.414-0.177-1.942-1.062c-0.53-0.884-2.301,0.53-3.892,0.354
	c-1.592-0.176-1.236-0.884-2.121-2.298s-1.768-0.354-3.713-0.885c-1.943-0.529-1.236-0.707-1.414-2.121s-1.414-1.237-1.414-1.237
	s-0.178-1.591-0.354-2.828c-0.178-1.237,0.176-3.183,0.176-3.89s-0.354-3.358-1.59-3.889c-1.237-0.531-0.354-1.771-0.354-1.771
	s-0.528-1.771-0.354-2.651c0.177-0.885,1.414-1.943,2.298-1.943c0.884,0,1.414-1.062,1.414-1.062S2.833,8.242,2.126,7.008
	C1.419,5.771,3.363,5.945,3.363,5.945l0.885-1.062c0,0,0.354-0.527,1.943-1.414c1.592-0.885,0.684-2.906,0.684-2.906
	s1.625,0.125,3.25,0.375s1.375,1,2.375,2s1.375,1.25,3.5,2s2.25,1.125,3.625,1.125s3.626-1.25,4.501-1.625s2.375-0.5,8.375-0.875
	s6,3.5,7.375,3s2.875,0,3.625,0.25s2.875,1,4.125,1s2.625,0.75,3.125,1s6.25,1.5,6.875,1.5l1.625-1.5l1.25,0.375c0,0,1,0.5,1.5,0.5
	s0.75-0.875,0.75-0.875l2-1.25L67,11.938c0,0-1,2.625-1,3.375s-0.125,2.625-0.625,2.75s-1.125-0.125-1.875-0.625
	s-1.5-1.875-2.625-2.625s0,2.5,0,2.5c-0.125,0.5,2.375,3.875,6.75,9.875s0.5,3,1.375,4.5s1.75,2,2,4.25s0.125,1.125,0.5,2.25
	l-0.25-0.25c0.125,1.625-27.25,0-28.875,0.5s-1.25,5.25-1.875,5S37.833,44.487,37.833,44.487z"/>
</svg>
