<?xml version="1.0" encoding="utf-8"?>
<!-- Generator: Adobe Illustrator 16.0.4, SVG Export Plug-In . SVG Version: 6.00 Build 0)  -->
<!DOCTYPE svg PUBLIC "-//W3C//DTD SVG 1.1//EN" "http://www.w3.org/Graphics/SVG/1.1/DTD/svg11.dtd">
<svg version="1.1" id="Layer_1" xmlns="http://www.w3.org/2000/svg" xmlns:xlink="http://www.w3.org/1999/xlink" x="0px" y="0px"
	 width="52.583px" height="63.171px" viewBox="0 0 52.583 63.171" enable-background="new 0 0 52.583 63.171" xml:space="preserve">
<path id="GreatBritain" fill="#2293AC" stroke="#FFFFFF" stroke-miterlimit="10" d="M29.445,39.722
	c-0.529-0.618-0.264-0.529-0.44-1.148c-0.176-0.619,0.09-0.707,0.09-1.326s0.089-0.884,0.354-1.68
	c0.268-0.795-1.414-1.502-1.414-2.121s-1.061-1.415-1.237-1.768c-0.176-0.354-0.706-0.795-1.324-0.708
	c-0.618,0.088-0.618,0.442-1.325,0.795c-0.707,0.353-0.707-0.178-1.237-0.619c-0.53-0.442-0.44-0.972-0.44-1.944
	c0-0.972,0.089-0.53,0.44-0.972c0.354-0.442,0.441-0.354,0.972-0.973c0.531-0.619,0.268-0.442,0.268-1.061s0-1.149-0.268-1.856
	c-0.265-0.707-0.972-0.177-1.235-0.884c-0.267-0.707-0.354-0.53-0.795-0.795c-0.442-0.265-0.619-0.088-1.593-0.177
	c-0.973-0.088-0.266-0.619-0.354-0.972c-0.088-0.354-0.088-0.53-0.265-1.502c-0.179-0.972-0.619-0.265-1.149-0.177
	c-0.53,0.088-0.707,0.088-0.884-0.795c-0.177-0.884,0-0.531-0.088-0.973c-0.089-0.442-0.179-0.442-0.797-1.414
	c-0.617-0.972,0.09-0.442,0.797-0.972c0.707-0.53,0.618-0.795,1.235-1.237c0.618-0.442,0-0.619-0.177-1.326
	c-0.177-0.707-0.53-0.884-0.53-0.884s-0.617,0.177-1.68,0.177c-1.062,0-0.973-0.177-1.503-0.884
	c-0.529-0.707,0.089-0.707,0.884-1.326c0.796-0.619,0.53-0.973,1.326-1.856c0.796-0.883,1.237-0.795,2.21-0.972
	c0.972-0.177,0.53-0.707,0.972-1.768c0.442-1.061,0.619-1.238,0.886-1.856c0.266-0.619,0.796-1.414,0.973-2.563
	c0.177-1.149,1.625,0.759,4.625-0.241c3-1,3,0,3,0s1.5,2.5-1,3.5c-2.5,1-1,5-1,5l0.738,0.05c0,0,0.885-0.708,1.592-0.796
	s0.619,0.354,1.502,0.354c0.885,0,0.707-0.53,1.769-1.237s0.796,0.795,0.796,1.414c0,0.619,1.414,2.387,1.414,2.387l-0.354,0.619
	c0,0-0.619,0.354-0.619,1.326c0,0.973-0.266,0.707-0.441,1.149c-0.178,0.442-0.529,0.442-0.973,0.707
	c-0.439,0.265,0.088,0.442,0.268,1.326c0.176,0.884-0.09,0.442-0.531,0.53c-0.44,0.088-0.883,0.088-1.236,0.707
	c-0.354,0.619-0.088,0.707-0.618,1.415c-0.528,0.707-0.44,0.442-1.592,0.795c-1.146,0.354-0.618,0.354-0.354,1.679
	c0.266,1.326,1.147-0.442,2.738-0.619c1.593-0.177,1.236,0,2.299,0s0.618,0.088,1.325,0.619c0.707,0.531,0.179,0.795,0.53,1.414
	c0.354,0.619,0.707,0.266,1.148,0.884c0.439,0.619,0,1.237,0,2.121v0.795c0,0,1.062,3.182,2.475,3.978
	c1.414,0.796,0.885,0.795,1.504,1.326c0.617,0.529,1.768,3.447,2.121,3.889c0.353,0.441,0.354,0.796,0.529,2.387
	c0.176,1.592,0,1.237-0.177,1.856c-0.179,0.618-0.269,0.53-0.53,1.503c-0.268,0.972,0,1.148,0,1.502s0.53,0.619,2.299-0.266
	c1.768-0.883,1.061-0.619,2.209-0.972c1.149-0.353,0.885-0.442,1.945-0.177c1.059,0.266,0.883,0.441,1.854,1.414
	c0.972,0.972,0.354,1.148,0.617,1.855c0.267,0.707-0.088,0.619-0.354,1.326s-0.266,0.619-0.707,1.502
	c-0.439,0.885-0.178,0.707-0.529,1.237c-0.354,0.53-0.617,0.265-1.68,0.53c-1.062,0.265-0.886,0.884-1.414,1.414
	c-0.529,0.531-0.354,0.707-0.441,1.149s0.441,1.237,0.441,1.237s0.797,0.354,1.235,0.795c0.442,0.441,0.269,0.795-0.265,1.68
	c-0.53,0.885-0.707,0.442-1.771,0.885c-1.062,0.441-1.414,0-2.476-0.088c-1.062-0.088-0.973,0.354-2.477,0.883
	c-1.502,0.531-1.413,0.089-2.562,0c-1.147-0.088-1.061-0.088-2.209,0c-1.147,0.089-1.061,0.442-2.387,1.238
	c-1.326,0.795-0.796,0-1.236-0.354c-0.442-0.354-0.707-0.442-1.326-1.062c-0.618-0.619-0.618-0.354-1.146-0.177
	c-0.531,0.177-1.682,2.21-2.478,2.563c-0.795,0.354-0.884,0.177-2.032,0.177c-1.147,0-0.796,0-1.324,0.088
	c-0.53,0.088-0.886,0.972-1.593,1.769c-0.707,0.795-0.528,0.265-1.854,0.441c-1.326,0.177-1.237-0.088-1.414-0.441
	c-0.177-0.354,0.177-0.354,0.618-0.973c0.44-0.619,1.238-1.768,1.769-2.652c0.531-0.884,0.795-0.441,2.121-1.236
	c1.325-0.795,0.267-0.354,0.884-1.68c0.618-1.326,0.707-1.326,2.033-1.768c0,0,0.57-1.17-0.555-1.795
	c-1.125-0.625-1.625-0.375-2.75-0.875s-2-0.25-1.75-0.938c1.125-1.312,1.375-1.938,1.75-2.562s0.124-1.25,0.624-1.25
	s0.75,0.25,1.375-0.125c0.625-0.375,0.75-0.625,0.75-1.375s-0.125-1,0.125-1.75s1-1.375,0.375-1.875s-0.125-0.375-0.875-0.625
	c-0.75-0.25-1.25-0.75-1.25-0.75l0.25-1l0.188-1.75c0,0,0.188,0.125,1.438,0.625c1.25,0.5,2,2.125,2,2.125
	C29.375,40.417,29.761,40.403,29.445,39.722z M17.249,50.683c0,0-0.354,0.531-1.768,0.531s-1.592-0.178-2.475,0.354
	c-0.886,0.529-1.945,0.707-2.83,0.884c-0.883,0.177-1.943,1.237-1.943,1.237s0,0.707-1.237,1.061
	c-1.237,0.354-1.061,0.178-2.298,0.178c-1.236,0-0.884-1.062-1.061-1.769c0,0-4.152,0.412-2.902-0.338s2.25-0.25,1.375-0.875
	s-2.25-0.75-0.75-1s1.875,0,1.875-0.5s-1,0.625,0-1s1.25-1.625,1.875-2.125s0.25-2,1.125-1.75s1.875,0.5,1.875,0.5l0.5-1
	c0,0-3.125-0.125-3.375-0.625c0,0-1.625-1.125-2.125-1.125s-1.625,0.125-1.25-0.375s1.125-2,1.125-2s-1.625-1.25-1-1.75
	s0.75-0.375,0.75-1.25s-1.125-1,0.125-2.25s1.5-1,2.375-1.75s0.875-0.875,1.5-0.25s0.625,1.625,1.75,0.25s1.25-2.125,1.25-2.125
	s-0.5,0.125,1.375-0.875s0.375-1.875,3.125-1.5s2.25,0.5,2.875,0.375s1-1.75,1.375-0.375s-0.5,1.625,1.25,2.125s2.5,0.25,2,1.125
	s-0.625,0.75-0.125,1.5s0.875,1.125,0.875,1.75s-0.375,1.125-1.25,1.5s-0.75-0.125-1.875,1s-1.75,0.875-1.75,0.875
	s-0.25-0.625-1-0.125s-0.375,1.25-1.5,0.5s-2.5-0.75-2.5-0.75s-0.5,0-0.375,0.75s0.75,3.25,0.75,3.25s1.125,2,0.75,2.875
	s-2.25,1.375-0.625,1.5s1.5-0.25,1.5,0.875s0,1.75,1,1.625S17.359,50.819,17.249,50.683z"/>
</svg>
