<?xml version="1.0" encoding="utf-8"?>
<!-- Generator: Adobe Illustrator 16.0.4, SVG Export Plug-In . SVG Version: 6.00 Build 0)  -->
<!DOCTYPE svg PUBLIC "-//W3C//DTD SVG 1.1//EN" "http://www.w3.org/Graphics/SVG/1.1/DTD/svg11.dtd">
<svg version="1.1" id="Layer_1" xmlns="http://www.w3.org/2000/svg" xmlns:xlink="http://www.w3.org/1999/xlink" x="0px" y="0px"
	 width="96.854px" height="96.701px" viewBox="0 0 96.854 96.701" enable-background="new 0 0 96.854 96.701" xml:space="preserve">
<path id="Greenland" fill="#F39C12" stroke="#FFFFFF" stroke-miterlimit="10" d="M53.037,73.224c0,0,0.625,3.875-0.25,5.5
	s-1,0.75-1.5,3.125s-0.125,3.25-1,4.625s-0.625-0.875-1,2.75s-0.125,4.5-1,4.875c-0.875,0.375,0.25,1.75-1.25,1.75s-2,1-2.375-0.375
	s0.25-2-1.25-2.125s-2.375,1.625-2.625-0.125s0.375-2.375-0.875-2.875s1.25,3.625-2.875-1.25s-3.375-8.25-3.375-8.25
	s-1.25-1.375-1.25-2.25s0.875-3.625-0.25-5.125s-2.25-4.5-0.875-5.375s2.75-0.625,3.125-2.625s0.25-1.75,0.5-2.75
	s0.75-1.375-0.25-1.5s0,0.375-1.875-0.125s-1.625-1.25-2.125-1.375s0.375,0.75-1.25,0.125s-2.875-1.125-1.125-1.75
	s2.875-0.875,3.625-0.625s1.125,1.625,0.875-0.25s-4.375-2.875-4.375-4.125v-2.25c0-1.25-0.25-1.875-1.25-2.875s-0.75-1-1-2.625
	s-0.25-1.5-1.125-2.5s-1,0.375-1.625-1.375s-0.625-2.125-1.875-2.125s-1.125,0.75-2.125-0.625s-0.75-1.625-2.375-1.5
	s-2.875,0.875-3.125,1.375s0.375,1-1.25,1.125s-2,0.125-2.875,0.125s-1.75,0.375-1.75-0.125c0,0-1-1.5-2.625-1.125s-2,1.5-2.5,0.25
	s-1.5-1.125-1.625-1.75s-1.625,0.125-0.125-1.5s0.5-2,2.375-1.875s1.5,0.25,2.5-0.25s2.375-0.625,1-0.75c0,0,0.5-0.75-0.875-1
	s-2.875,0.5-2.875-0.5s-1.25-2.125,0.5-2.125s2.75,0.5,3.625-0.375s0.875-0.625,2.125-0.5s2.5,0.75,2.875-0.25
	s2.375-1.125,0.75-1.625s-2.5-0.375-2.125-1.125s1.375-0.875,1-1.75s-2.125-1.625,0.375-1.75s3.75,1,4.125-0.375s-1-2.5,1.25-2.5
	s4.625-1.125,4.75-1.875s-0.5-1.625,1.625-1.125s1.75,1.625,2.875,0.25s-0.125-1.75,2.125-1.25s2.5,0.75,3.375,0.125
	s-0.75-0.875,1.375-0.625s1.75,1,2.125-0.875s-1.375-1.625,0.75-2.125s2.25,0,3.25-1.375s0.125-1,2-1.375s2.125,0,1.25-1.375
	s-2.5-2.125,0-2.375s3.875-0.5,4.125-1.25c0,0-0.125,1,1.375,0.625c1.5-0.375,1.25-0.875,2.125-2s0.625-1.375,1.5-0.75
	s-0.125,1.125,2.125,0s0.5-1.125,2.75-0.75s2.125,0.125,4.75,0.25s1.25,0.5,2.75,0.875s1.125,0.25,3,0.25s1.5-0.375,2.625,0.375
	s0.625,0.875,2.875,0.875s2.875-0.625,3.25,0.75s-0.625,1.5,2.125,1.875s3.625-0.125,2.125,1s-4.625,1.25-3.75,2s0.75,0.5-1.625,1
	s-5.875,1-3,1.375s4.875-0.875,5.625,0.375s-1,1.375,2.25,1s1.875-1.125,4.5-0.625s2.125,1.25,3-0.375s-1.5-2.5,1.375-1.875
	s2.25,0.625,4-0.375s2-3,2.75-0.625s0.625,2.875-1,3.625s-1.5-0.375-2,1.375s-0.375,2.25-1.625,3.25s-1.875,0.125-1.625,1.875
	s0.25,1.5-0.125,3.25s-1.25,2.25-0.125,3.25s1.125,0,1.875,1.5s1.125,1.5,0.375,3.25s-0.875,0.875-1.125,3s-0.5,3.375,0.375,2.75
	s1-2.375,1.125-0.625s0.625,2.875-0.875,3.5s-1.375-0.25-1.625,1s0.625,1.625-0.5,2.625s-0.125,2-1.375,0.875s-2-2.875-3-1.75
	s-2.375,0.125-1.25,1.5s1.875,1,2.125,1.5s0.125,1,0.5,1.75s0.125,1.125,1.125,1s1.375,0.375,1.125,1.25s-0.375,1.375,0.375,2.25
	s1,0.875,0.375,1.25s-0.75,0.5-1.625,1s-0.75,1.25-1.25,1.375s-1.5,0.75-1.625-0.5s-0.25-2.875-1-3.5s-1.875-2.25-2.125-0.75
	s0,2-0.375,2.75s-1.875-0.25-0.375,1s2.125,1.625,2.125,1.625s1.375,0.75,0.75,1.375s0.125,0.875-1.75,1.125s-1-1.625-2.75,0.375
	s-3,2.5-3,2.5l-0.875-1c0,0-0.75-2.125-1-0.75s0,1.25-1,3.375s-0.5,2.625-1.625,2.75s-2-0.75-2.625,0.125s0.25,0.625-0.875,1.5
	s-1.5,1-2.25,1s0.375-2.125-1.125,0.125s-0.625,2.5-1.875,2.75s-1.5,0.25-2.625,0.25s-1.75,0.125-2.875,0.125s-2,0.125-2.75,0.5
	s-1.5,1.25-1.5,1.25V73.224z"/>
</svg>
