<?xml version="1.0" encoding="utf-8"?>
<!-- Generator: Adobe Illustrator 16.0.4, SVG Export Plug-In . SVG Version: 6.00 Build 0)  -->
<!DOCTYPE svg PUBLIC "-//W3C//DTD SVG 1.1//EN" "http://www.w3.org/Graphics/SVG/1.1/DTD/svg11.dtd">
<svg version="1.1" id="Layer_1" xmlns="http://www.w3.org/2000/svg" xmlns:xlink="http://www.w3.org/1999/xlink" x="0px" y="0px"
	 width="41.338px" height="29.436px" viewBox="0 0 41.338 29.436" enable-background="new 0 0 41.338 29.436" xml:space="preserve">
<path id="Iceland" fill="#2293AC" stroke="#FFFFFF" stroke-miterlimit="10" d="M4.549,3.362c0,0,2,1.875,2.5,0.875
	s-0.625-2.25,0.875-1.125s1.375,0.75,1.875,1.375s3.5-1.5,2.375,0.5s-1.875,2.75-1.125,2.625s-0.125-0.75,0.875,0.5
	s0.875,2.25,2.25,1.125l1.25-3.875c0,0,3.5,0.125,3.25,1.375s-1.125,1.125,0.75,0.125c1.875-1,0.875-2.75,2.125-1.625
	c1.25,1.125,1.875,2.25,2.375,1.125S22.8,3.987,24.3,4.237s1.625,1.625,2.5,0s-0.125-2.5,1.25-2.25s0.75,0.625,1.75-0.25
	s0.75-1.75,1.75-0.875s1,1.25,1,1.25s2,0.25,2.5,0.5s-0.25-1,0.25,1s0.625,2.625,1.25,2.375s1-1.125,1,0.5s-1.125,2.125,0.375,1.875
	s1.875-0.375,2,0.75s0.75,2,0.75,2s0.125,0.875,0,1.375s-0.375,0.75-0.125,1.375s0.5,1.625,0,1.875s-1.25,0.75-2.125,0.875
	s-1.375,0.75-1.625,1.375s0.75,0.25-0.375,1.625s-0.75,1.625-1.5,1.875s-1.625,0.75-1.625,0.75l-3.375,0.5l-0.75-1.375
	c0,0-0.5-1.125-1-0.625s0.125,1.5-0.375,1.625s-1.75-2.125-1.75-1.125s0.625,2.75,0.625,2.75s0.125,1.5-0.5,1.75
	s-0.625,1-2.25,1.125s-1.75,0.875-2.625,1c-0.875,0.125-1.125,1.875-2.75,0.625s-6.125-3.25-7-3s-1.25,0.625-3,0.125
	s-2.5,0.625-2.875-0.125s-0.5,0.375-0.125-1.375s2-2.625,2-2.625s0.625-0.375,0.5-1s0-0.875-0.75-1s-0.5-0.5-0.875-1.5
	s-0.75-0.875-1.75-0.625s-1.25,1.375-2.375,0.125s-1.625-1-1.125-1.75s0.375-1,1.625-1.25s1.375,1,1.875-0.5s1-2.125,1-2.125
	s-0.5-0.25-1.375-0.125s-0.625,1.125-1.625-0.875s-2.125-2-2.125-2s-0.25,0,0.375-1s1.25-1,1.875-2s-0.5-1.875,0.375-2.75
	s1.125-0.25,1.125-0.25L4.549,3.362z"/>
</svg>
