<?xml version="1.0" encoding="utf-8"?>
<!-- Generator: Adobe Illustrator 16.0.4, SVG Export Plug-In . SVG Version: 6.00 Build 0)  -->
<!DOCTYPE svg PUBLIC "-//W3C//DTD SVG 1.1//EN" "http://www.w3.org/Graphics/SVG/1.1/DTD/svg11.dtd">
<svg version="1.1" id="Layer_1" xmlns="http://www.w3.org/2000/svg" xmlns:xlink="http://www.w3.org/1999/xlink" x="0px" y="0px"
	 width="82.868px" height="120.775px" viewBox="0 0 82.868 120.775" enable-background="new 0 0 82.868 120.775"
	 xml:space="preserve">
<path id="India" fill="#27AE60" stroke="#FFFFFF" stroke-miterlimit="10" d="M30.525,3.137c0,0.87-1.088,2.5-2.282,3.804
	c-1.195,1.305-4.893,0.761-4.893,0.761s-2.718-1.522-3.695-2.5c-0.979-0.979-1.849-0.109-3.369,0
	c-1.521,0.108-1.413,2.935-1.849,3.913C14,10.093,12.48,9.767,11.719,9.658c-0.763-0.109-3.044,0.652-3.587,0.761
	c-0.545,0.108-0.545,1.304-0.545,2.065c0,0.761-2.281,2.283-2.718,3.479c-0.436,1.196-3.206,1.685-3.099,1.521
	c0.106-0.164-0.394,2.284-0.374,2.266c0.02-0.018,0.05,1.666-0.845,8.224c-0.374,2.74,1.354,1.197,1.997,2.767
	c0.495,1.206,0.462,1.998,0.462,2.767s0.461,2.152,1.229,3.382c0.771,1.23,0.308,1.23,0.308,2.46c0,1.23,1.537,2.152,2.461,3.074
	c0.923,0.922,0.309,2.46-0.309,3.689c-0.616,1.229,1.229,1.383,1.384,2.92c0.153,1.537,1.15,5.483,1.232,5.623
	c0.788,0.135,1.438-0.857,2.146-1.035c0.707-0.176,3.006-0.883,3.357,0.354c0.354,1.238,0.178,3.184,0.53,3.891
	C15.705,58.573,18,59.458,18,59.458h1.414c0.707,0,1.062-0.885,1.237,0.354c0.177,1.239-0.177,1.769,0.178,2.476
	c0.354,0.707,2.65,0.707,2.65,0.707s2.298,0,1.237,1.062c-1.062,1.062-1.771,1.237-2.121,1.945
	c-0.354,0.704-1.062,0.884-0.179,1.235c0.886,0.354,0.707-0.531,1.414,0.707c0.707,1.236,0.529,0.883,1.062,1.59
	s-0.354,0.887,1.235,1.062c1.593,0.178,2.121,0,2.121,0l0.708-1.77c0,0,0.886-1.235,1.593,0.179s0.009,1.384-0.17,3.149
	c-0.177,1.769-0.354,3.517-0.354,4.752c0,1.236-0.75,1.943-0.572,3.184c0.177,1.236,0.427,2.02,0.427,3.434s1.375,0.861,1.375,2.102
	c0,1.236-0.177,1.591,0.53,2.298s1.477,2.246,1.477,2.953s0.687,0.985,0.687,2.226c0,1.237-0.053,2.371,0.654,2.728
	c0.707,0.354,1.862,0.552,1.862,1.966s1.153,2.932,1.153,2.932s0.562,1.28,0.562,1.987c0,0.708,1.207,1.122,1.207,1.829
	s1.414,0,2.298,4.771c0.884,4.773,1.414,1.771,2.828,5.834c1.414,4.065,2.121,5.127,3.005,5.127c0.885,0,1.945-0.354,2.122-1.235
	c0.177-0.885,0-0.885,0.884-1.237c0.884-0.352,0.707-0.177,0.884-1.237c0.178-1.06-0.706-1.234-0.354-1.941
	c0.354-0.707-0.53-2.121,0.884-2.121s2.476-1.237,2.476-1.237s-0.53-0.708-0.53-1.592s-0.706,1.768,0-2.121
	c0.707-3.889,1.062-4.596,0.886-6.896c-0.179-2.3-1.062-1.236,0-4.241c1.061-3.005,1.592-1.592,1.592-3.893
	c0-2.298,1.062-4.771,1.237-6.187c0.176-1.415,0.706-0.354,0.706-1.944c0-1.592-0.885-2.476,0.178-3.534
	c1.062-1.062,2.475-1.414,2.475-2.65v-2.651c0-0.884,0.354-2.651,0.354-2.651s2.298-0.178,1.768-1.236
	c-0.529-1.059-0.354-2.299,0-3.184c0.354-0.884,1.398-4.584,2.898-3.584s2,1,2,1s1.375-1.375,1.25-2s0.5-1.75,0.5-1.75
	s0.25-1.75,0.75-1.875s2.875-0.25,2.875-0.25s-0.404-3.83,0.518-3.908c0.924-0.074,1.385,0.078,1.614-0.922
	c0.229-0.998,0.999-1.998,1.537-2.229s0.689-2.611,0.689-2.611l1.771-0.615c0,0,0.461-3.92,1.15-4.609
	c0.691-0.691,1.69-2.537,1.69-2.537s-2.537-6.994-2.921-7.378c-0.386-0.385-9.762-0.538-9.838-0.23
	c-0.077,0.308-1.153,1.768-1.614,1.768s-1.689-1.307-1.689-1.307s0.385-3.612,0.076-3.997c-0.309-0.384-2.922-1.383-3.229-1.229
	c-0.31,0.154-0.925,2.152-1.386,2.152s-3.688-1.768-3.996-2.998c-0.308-1.229,0.614-1.229-0.771-1.307
	c-1.383-0.076-0.307,1.384-2.382,0.923s-2.308-0.769-2.612-1.076c-0.309-0.308-1.229-1.46-2.308-1.46
	c-1.075,0-3.229-1.153-3.381-1.537c-0.154-0.385-0.538-0.846-0.848-1.23c-0.309-0.384-0.309-1.69-0.77-2.075
	c-0.462-0.384-2.075,0.923-2.46,0.999c-0.384,0.077-1.689-0.461-1.46-1.229s0.613-1.768,1.076-1.998c0.461-0.231,1.383-1,1.46-1.538
	s0.385-0.769,0.538-1.998c0.151-1.23-0.538-4.074-0.691-4.996c-0.153-0.922-0.153-3.766-0.153-3.766s0.077-1.076,0.077-1.383
	c0-0.307,0.229-0.999,0.229-0.999s-1.384,0.384-1.689,0.461c-0.309,0.077-3.383,0.077-3.688,0.077c-0.309,0-1.999-0.922-2.075-1.23
	c-0.077-0.308-0.229-2.075-0.385-2.383c-0.153-0.307-0.23-1.383-0.538-1.076L33.51,2.552l0.076,0.154
	C31.684,3.687,30.607,3.303,30.525,3.137z"/>
</svg>
