<?xml version="1.0" encoding="utf-8"?>
<!-- Generator: Adobe Illustrator 16.0.4, SVG Export Plug-In . SVG Version: 6.00 Build 0)  -->
<!DOCTYPE svg PUBLIC "-//W3C//DTD SVG 1.1//EN" "http://www.w3.org/Graphics/SVG/1.1/DTD/svg11.dtd">
<svg version="1.1" id="Layer_1" xmlns="http://www.w3.org/2000/svg" xmlns:xlink="http://www.w3.org/1999/xlink" x="0px" y="0px"
	 width="75.423px" height="63.683px" viewBox="0 0 75.423 63.683" enable-background="new 0 0 75.423 63.683" xml:space="preserve">
<path id="Indonesia" fill="#8E44AD" stroke="#FFFFFF" stroke-miterlimit="10" d="M26.042,28.353l0.707-1.768
	c0,0,0.177,1.944,0.354,3.006c0.178,1.062-0.354,2.478,0.178,3.185c0.53,0.707,0.177,1.061,0,2.118
	c-0.178,1.062,0.707,2.828,0.707,2.828l1.293,1.527l1.374,0.25c0,0,0.625,0.875,0.875,1.5s1.125,1,1.125,1v2.25
	c0,0.875-1,1.375,0.125,1.625s2.5,0.25,3.25,0.25s0.5,0.375,1,1.375s1,1.125,1.125,2.5s0.125,2.375-0.375,3s-0.125,1.125-0.75,1.875
	s-1.625,0.875-2.375,1s-1,0.125-1.25,1s1.625,1.75-0.75,1.625s-2.25,0.5-2.75-0.75s0.875-1.75-0.875-2.375s-0.25,1.875-2.875-1.625
	s-3.5-1.125-3.875-4.25s-1.5-3.875-3-6.25s-2.125-4-3.375-4.375s-1.75,1.125-2.375-0.5s-0.625-0.75-0.625-2.625s-0.125-1.75-1-3.5
	s-1-1.625-1.5-3.5s-0.25-1-2.5-3.875s-2.5-3.125-4.5-4.625s-2.5-1.75-2.375-3.75s-1.25-4,0-4.375s1.5-0.75,2.75,0
	s1.375,1.625,2.375,1.875s1.625,0.125,2.375,0.125s0.5-1,1.75,0.5s1.5,1.5,2.125,2.875s0.625,1.875,1.25,2.625
	s1.125,0.75,1.75,0.375s1.25-1.5,1.625-0.75s0.375,1.125,0.625,1.625s1-1.125,1,1s-0.75,3.125,0.375,2.375l2.25-1.5
	c0,0-0.125-0.375,0.375,0.875s0.625,2.375,1.75,2.875s1.5,0.5,1.5,0.5L26.042,28.353z M49.654,45.374c0,0-0.25-1.25,1.875-3.375
	s2.75-2.25,2.75-4.375s-0.125-2-1.125-3s-2.375-1.625-1.125-3.125s1.125-1.875,2.75-2.25s3.25-2.75,3.375-3.625
	s0.25-1.375-0.125-2.5s-1.375-3.125-1.5-4.5s-0.25-2.375-0.125-3.375s1-1,2.125-2.375s1.375-0.75,1.375-2.75s-0.125-4.5-0.75-5
	s-0.875-0.25-2.25-0.75s-2-1.75-3.875-2.875s-3.125-1.25-3.5-0.625s0.375-1.5-0.375,1.625s-0.625,3.875-1.5,4.5s-2.25,1-2.625,2.25
	s1,2.125-1,4.25s-5.625,6.125-8.25,6.625c-2.625,0.5-4.5,1.125-4.5,2s1.125,2,0.875,3s-2,2-1.75,2.5s0.875,0,1.375,1.125
	s0.5,4.625,0.5,4.625l2.375,2.625c0,0-1.75,2.625-0.875,3.375s1.25,0.875,2.25,2s2.25,2.375,3.75,2.5
	c1.5,0.125,2.375,0.875,3.5,1.375s1.5,0,2.875-0.125S50.029,45.499,49.654,45.374z M60.154,51.749c0.5-1.75,0.125-1.5,0.25-3
	s0.5-1.125,1.125-2.125s0.25-2.625,1.375-0.75s0.75,2.625,2.125,3.75s1.625,2.375,2.75,1.25s3.25-2.25,2-3.625s-2,0-2.125-3.25
	s-0.25-4.375-1.125-4.25s-1.625,1.375-1.75-0.375s-0.625-3.875,0.75-4s2.75,0.75,3.625-0.875s1.875-2.125,0.25-2.375
	s-2.875-0.5-3.75-0.375s-1.5,0.125-1.375-0.625s-0.875-1.5,0.875-1.5s1.375,0.375,3,0.25s3.25-1,3.75-1.5s1.125-2.75,1.875-3.25
	s1.25-0.875,1.125-1.5s-0.375-1.125-1.125-1.375s-2-0.5-2.375,0s-1.25,1.875-2.125,2.25s-5.125,0.125-6.125,0.625
	s-1.875,1.125-2.5,1.5s-2,1-1.75,2.5s0.25,2.75,0.25,3.375s-1.25,2.375-1.5,3s0.125,2.5-0.25,3.375s-0.625,0.375-0.625,1.625
	s-0.25,1.5,0.125,2.375s1,0.875,0.625,2.125s-1,0.5-0.5,1.875s1.125,0.875,1.25,2.125s-0.25,1.75,0,2.75
	S60.279,51.874,60.154,51.749z M36.779,59.874c0.875,1.375,0.375,1.625,2.375,1.625c2,0,3.25-0.375,4.375-0.125
	s0.625,0.625,1.875,0.5s2.375-0.875,3.375-1s2.25-0.25,3,0s1.875,1.125,3.25,1.25s4.5,0.125,5,0.25s2.125,1.375,2.875,0.5
	s1-0.625,1.25-2s0.25-2.125-0.625-2.375s-0.25-0.75-2.375-0.875s-2.75-0.375-3.375-0.625s-1.625-1.25-2.375-1.5
	s-2.875-1.125-4.25-1.125s-4.125-0.25-5.5-0.25s-1.625-0.625-3.125,0.5s-2.75,1.625-3.625,2.25c-0.875,0.625-0.625,0.125-1,1.375
	S37.154,60.124,36.779,59.874z"/>
</svg>
