<?xml version="1.0" encoding="utf-8"?>
<!-- Generator: Adobe Illustrator 16.0.4, SVG Export Plug-In . SVG Version: 6.00 Build 0)  -->
<!DOCTYPE svg PUBLIC "-//W3C//DTD SVG 1.1//EN" "http://www.w3.org/Graphics/SVG/1.1/DTD/svg11.dtd">
<svg version="1.1" id="Layer_1" xmlns="http://www.w3.org/2000/svg" xmlns:xlink="http://www.w3.org/1999/xlink" x="0px" y="0px"
	 width="79.032px" height="65.087px" viewBox="0 0 79.032 65.087" enable-background="new 0 0 79.032 65.087" xml:space="preserve">
<path id="Irkutsk" fill="#27AE60" stroke="#FFFFFF" stroke-miterlimit="10" d="M76.641,59.283c0.267,1.945-0.089,0.973-0.089,0.973
	s-0.901,0.917-2.026,0.604c-1.125-0.312-1.875-0.688-2-1.562s-1.25-1.312-1.25-1.312s-1.562-0.062-1.625-0.562
	c-0.062-0.5-0.312-0.875-0.5-2.438c-0.188-1.563-0.062-1.938-0.688-1.938s-1.375,0.125-1.625-0.125s-0.562-0.438-0.625-1.25
	c-0.063-0.812-0.125-1.625-0.5-1.75s-1-0.438-1.375-0.438s-1.625,0.25-1.75-0.25s-0.25-1.188-0.125-1.688s0.312-0.812,0.312-1.25
	s-0.25-1.438-0.25-1.438s-0.438,0-0.875-0.375s-0.438-0.938-1.062-1.062s-1-0.312-1.562,0.312c-0.562,0.623-0.938,1.188-1.25,1.312
	c-0.312,0.124-2.188,0.312-2.812,0.312s-1.562-0.375-1.562-0.375l-0.438-0.5c0,0-0.875-0.312-0.875,0.062s0.312,0.75,0,1.25
	c-0.312,0.5-0.125,0.5-0.812,1.062c-0.688,0.562-1.125,0.688-1.188,1.125c-0.063,0.437-0.062,0.625,0.312,1.062
	c0.375,0.437,0.562,0.312,0.75,0.875c0.188,0.563,0.25,0.688,0.25,1.312c0,0.625,0.062,1.5-0.375,1.875
	c-0.437,0.375-0.562,0.312-0.875,1.125c-0.312,0.813-0.562,0.938-0.75,1.312c-0.188,0.374-0.438,0.562-0.062,1.312
	s0.75,1.25,1,1.562s0.562,0.812,0.312,1.625s-0.312,1.25-0.812,1.75s-0.938,1.562-1.312,2c-0.375,0.438-0.25,0.938-0.875,0.625
	s-1.062-0.875-1.125-1.125l-0.312-1.25c-0.188-0.75-0.438-1.688-0.562-1.938c-0.122-0.25-1.714-1.092-2.108-0.296
	c-0.397,0.796-0.269,1.546-0.885,1.812c-0.619,0.267-0.751,0.267-1.019,0.664c-0.267,0.397-1.018,1.502-1.591,1.369
	c-0.575-0.133-0.707-0.265-1.637-0.397c-0.928-0.132-1.68-0.442-2.076,0.133c-0.397,0.574-1.414,1.414-2.121,1.149
	c-0.707-0.266-1.636-0.795-1.856-1.018c-0.221-0.221-1.591-0.839-2.298-0.751c-0.707,0.089-0.707,0.265-2.077,0.177
	c-1.368-0.088-2.692-0.619-3.577-0.619c-0.887,0-3.185-1.148-3.892-1.017s-0.574,0.132-1.326,0.442
	c-0.751,0.311-1.279-0.178-1.591,0.354c-0.311,0.531-0.311,1.282-1.236,1.149c-0.929-0.132-1.413-0.132-1.769-0.485
	c-0.354-0.354-0.619-0.885-0.619-0.885s-0.574-0.221-0.928-0.133c-0.354,0.088-1.281,0-1.281,0s-0.796-0.795-0.974-0.84
	c-0.177-0.045-0.928-0.486-1.236-0.442c-0.31,0.044-1.637,0.265-1.637,0.265s-1.943,0.133-1.622,0.571
	c-1.691-0.614-0.615-0.461-1.691-0.922c-1.074-0.461-0.307-1.383-0.922-2.92c-0.614-1.538-0.922,0.308-0.922,0.308
	s-1.229,0-1.689-1.846c-0.462-1.844,0.309-0.922,0.613-2.459c0.309-1.537-0.462-1.383-0.462-3.229c0-1.844,1.076-1.075,1.076-1.075
	s0.308-1.69,0.462-4.458c0.152-2.768-1.384-0.77-1.999-2.152c-0.614-1.383,0-1.229,0.309-1.998c0.31-0.77,0.771-1.23,1.69-2.767
	c0.922-1.537,0.613-0.769,2.92-1.229c2.308-0.461,1.384-2.613,3.229-3.229s0.612-0.307,1.845,0.922
	c1.229,1.23,1.846-0.307,3.383-0.615s1.229-1.229,3.382-0.922c2.151,0.309,1.229,0.615,1.847,1.846
	c0.612,1.229,1.536,1.229,3.382-0.923c1.845-2.152,0.308-8.301-0.923-11.683c-1.229-3.382,2.894-11.038,2.894-11.038
	s4.875-1.5,6.125-2.25s1.125-0.875,1.5-2.625s0.5-4.625,1.875-4.875s1.125,1.75,1.125,1.75c0.125,0.75,1.5,0.5,3,0.75
	c1.058,0.176,0.623-0.767,0.406-1.688c-0.091-0.385-0.145-0.767-0.031-1.062c0.375-1,12.295,0.113,12.295,0.113
	c-0.441,1.061-0.354,2.475-0.089,2.917s1.415,2.917,1.062,4.95c-0.354,2.033-0.886,8.132-0.618,9.281
	c0.267,1.149,0.354,3.978,1.147,4.773c0.795,0.796,1.147,1.415,1.502,2.122c0.354,0.707,3.979,1.856,4.598,3.359
	c0.617,1.502,0.267,1.856,1.324,2.475c1.062,0.619,2.033,1.945,2.122,3.182s0.089,3.094,0.974,2.829
	c0.884-0.266,1.854-1.503,2.21-1.855c0.354-0.354,1.681-0.796,2.827-0.354c1.148,0.442,1.414,0.442,2.562,0.265
	c1.148-0.177,2.21,0.178,2.21,0.178s0.884,1.325,0.973,2.032s-0.439,1.237,1.148,1.149c1.59-0.088,1.943-0.178,2.121,1.591
	c0.177,1.769,1.147,2.74,1.147,2.74s0.267,1.856,0.178,2.298c-0.09,0.441-0.706,1.503-0.441,2.652
	c0.267,1.148,0.884,2.297,0.354,3.094c-0.529,0.795-1.414,2.562-1.414,3.27s-0.178,2.563,0,3.182
	C77.087,57.777,76.374,57.339,76.641,59.283z"/>
</svg>
