<?xml version="1.0" encoding="utf-8"?>
<!-- Generator: Adobe Illustrator 16.0.4, SVG Export Plug-In . SVG Version: 6.00 Build 0)  -->
<!DOCTYPE svg PUBLIC "-//W3C//DTD SVG 1.1//EN" "http://www.w3.org/Graphics/SVG/1.1/DTD/svg11.dtd">
<svg version="1.1" id="Layer_1" xmlns="http://www.w3.org/2000/svg" xmlns:xlink="http://www.w3.org/1999/xlink" x="0px" y="0px"
	 width="39.902px" height="82.284px" viewBox="0 0 39.902 82.284" enable-background="new 0 0 39.902 82.284" xml:space="preserve">
<path id="Japan" fill="#27AE60" stroke="#FFFFFF" stroke-miterlimit="10" d="M5.294,81.782c0-1.237,0.529-4.42-0.178-4.597
	s-0.707-0.706-1.943-0.53c-1.236,0.178-2.65-0.529-2.65-0.529s-0.354-1.237,1.768-2.475c2.122-1.238,3.359-1.945,3.359-1.945
	l-1.062-0.707c0,0-2.301-0.178-1.236-0.885c1.061-0.707,1.236-1.59,2.12-2.651c0.885-1.062,3.006-6.541,4.242-8.662
	c1.235-2.121,4.064-1.414,4.064-1.414l1.943-4.95c0,0-1.591-3.712,1.062-4.949c2.652-1.238,2.828,0.176,3.535-2.83
	c0.708-3.004,2.829-2.475,3.182-3.535c0.355-1.061,0.707-1.061,0.18-2.828c-0.529-1.768-1.943-3.359-1.943-3.359
	s-0.709-2.651-0.709-4.066c0-1.414-0.354-3.712,0.885-4.243c1.238-0.53-1.061-3.358-1.061-3.358s0.705-1.061-0.178-1.768
	c-0.886-0.707-1.415-1.591-1.415-2.475c0-0.884,0.178-3.182,0.178-3.182s0.884-1.414,1.59-1.591
	c0.709-0.177,1.416,0.177,1.416-1.591s-0.887-4.419-0.887-4.419s-3.711-5.48-4.418-5.833S16.432,1.701,16.96,0.64
	c0.53-1.061,4.066,4.243,6.541,4.596c2.479,0.354,4.773,0,4.773,0l2.297-1.061l4.598,0.177c0,0,1.943,0.177,2.297,2.121
	c0.355,1.944,2.828,1.237,1.594,3.005c-1.236,1.768-1.062,2.651-2.301,2.475c-1.234-0.176-1.061-1.061-1.941-0.884
	c-0.883,0.177-1.592,0-1.592,1.944c0,1.945,1.414,2.122,0.178,3.712c-1.236,1.591-0.707,2.298-2.479,2.298
	c-1.768,0-3.355-0.177-5.125,0.177c-1.768,0.354-2.648-0.884-2.648,0.707s0,1.944,0.883,2.121c0.885,0.177,1.592,0,1.236,1.061
	c-0.354,1.061-1.414,1.768-0.707,2.121s1.592-0.53,1.592,0.354l3.006,0.177l0.529,1.768c0,0,0.354,0,1.414,0.177
	c1.062,0.177,1.77-0.707,2.121,0.53c0.354,1.237,0.885,1.768,0.885,1.768s0.529,0,0.707,1.237c0.178,1.238,0.354,1.591,0.354,2.475
	s-0.883,3.712-0.883,3.712s-0.707,0.707-0.531,2.121c0.18,1.415,0.887,0,1.062,1.768c0.176,1.768,0.178,2.298,0.178,3.535
	c0,1.238-0.178,1.062,0.883,1.945c1.062,0.883,1.414,1.768,1.414,1.768s0.885,0.529,0.885,1.768v2.299c0,0-0.529,0.176-1.236,0.176
	c-0.705,0-1.592-0.176-1.592-0.176s-0.178,0.529-0.527,1.768c-0.355,1.236-1.945,1.943-1.945,1.943s0,1.769-0.707,1.945
	c-0.707,0.176-1.236,0.176-1.943,0.354c-0.707,0.177-1.236,0-1.592,0.884c-0.354,0.884,0,1.062-0.885,1.237
	c-0.883,0.176-1.768-1.414-1.943,0.884c-0.178,2.298,1.236,3.183-0.527,3.712c-1.77,0.529-2.828,0.884-2.828,0.884
	s0.354,1.414-0.885,1.062c-1.238-0.354-2.652-1.592-2.652-2.475c0-0.885-0.177-1.416-0.177-1.416l-2.477,1.592
	c0,0,0.354,0.883-1.414,0.883s-2.477-1.943-2.12,0c0.354,1.945,1.062,3.359,1.235,4.066c0.176,0.707,1.237,0.178,1.062,1.237
	c-0.178,1.06,0.177,1.062-0.53,1.769s-2.122,0.883-2.829,0.883s-0.884-0.176-2.298,0c-1.414,0.178-2.127,6.83-2.127,6.83
	l-1.25,1.125L5.294,81.782z"/>
</svg>
