<?xml version="1.0" encoding="utf-8"?>
<!-- Generator: Adobe Illustrator 16.0.4, SVG Export Plug-In . SVG Version: 6.00 Build 0)  -->
<!DOCTYPE svg PUBLIC "-//W3C//DTD SVG 1.1//EN" "http://www.w3.org/Graphics/SVG/1.1/DTD/svg11.dtd">
<svg version="1.1" id="Layer_1" xmlns="http://www.w3.org/2000/svg" xmlns:xlink="http://www.w3.org/1999/xlink" x="0px" y="0px"
	 width="101.499px" height="122.641px" viewBox="0 0 101.499 122.641" enable-background="new 0 0 101.499 122.641"
	 xml:space="preserve">
<path id="Kamchatka" fill="#27AE60" stroke="#FFFFFF" stroke-miterlimit="10" d="M37.389,122.07c1-0.75,0.75,0.125,1.625-1.75
	s0.625-2.5,1.25-3.125s2-2.875,1.875-4.5s-0.625-1.5-0.25-3s0.5-1.5,0.75-3.5s-0.25-1.75,0.375-4.125s0.75-2.875,0.375-3.75
	s-0.625-1.875-0.625-3.375s0.125-2.75,0-3.25s-0.25-1-0.625-2.375s-1.375-2.375-1.375-2.375s-0.25,1-0.75-0.625
	s-0.375-1.125-0.625-2.125s-1,0.5-0.625-2.875s0.25-4.5,0.25-4.5s-0.125-3.375-2.375-3.375s-3,0.625-3.25-1.25s-1.25-2.25-2.75-2.5
	s-1.75,0-2.5-0.375s-0.375-0.625-1.625-0.625s-0.5,0.5-2.25,0s-1.75,0.75-2-0.5s-0.125-2.125,1.625-4.875s1.625-3.375,1.875-4.75
	s-1.25-0.75,1-2.75s1.625-2.625,4.25-2.625s3,0,4.875-0.875s0.375-1.875,2.625-0.875s2,2,3.25,0.875s1.625-1.875,2.25-1.875
	s3,1.375,3,1.375s1,0.5,1.875,0.25s1.625,1.625,2.5-0.125c0.875-1.75,0.5-2.25-0.375-2.75s-1.875,1.75-1.375-1.25
	s1-4.125,0.625-5.125s-3-4.5,0.125-2.375c3.125,2.125,2.375,2.5,3.5,3.125s0.625,0.625,1,3s4.125,1.875,3.625,4.875
	s-0.5,3.875-0.75,5.125s-1.625,0.375-1.25,5.5s0.75,14.25,5.25,18.25s5.625,4.5,6.25,2.75s1.25-2.5,0.875-4.5
	s-1.375-2.75-0.625-4.125s1.375-2.25,1.5-3.375s0.375-2,0.25-3.25s0-2.75-0.25-3.75s-0.5-2.625-0.625-3.625s-1.125-2.75-1.5-3.625
	s-1.5-2.625-1.75-3.875s-0.75-1.75,0.5-3.5s-1.125-2.75,1.75-2.375s2.75,0.75,4.25,0.5s3,0.625,3.5-1.125s0.125-1.5,1-2.75
	s1.25-1,2.25-2.5s-0.5-2,2-4s4-2.75,4.625-3.5s1.875-1.125,0.875-2.125s-1.125-1.875-2.5-2.75s-2.125-1.5-2.75-1.625
	s-1.5-0.375-0.875-0.875s1.625-1.375,2.625-1.375s1,1,2.5,0.25s2.125-1.25,3.125-0.5s0.375,0.125,1.125,1.625s-0.75,1,1.25,2.125
	s3.875,1.375,4.5,1.375s0.25,0.75,1.75-0.125s1.25-0.5,2.25-1.875s1.625-1.625,1.25-3.375s-1-2.875-1-3.375l-1.125-1.875
	c0,0,0-0.875-1.75-0.875s-2.75,0.125-2.75-0.5s0.5-1.75-0.625-1.75s-1.75-1-2.5-0.125s-1.25,1.875-2.125,1.375
	s-1.875-1.75-1.875-1.75s0.25-1.25-0.125-1.75s-1.5-1.625-1.5-1.625l-1.625-0.75c0,0-3.375-3.375-4.625-3.5s-2.375,0.125-2.75-0.875
	s1.75-1-1.375-1.5s-3.25,0-4.25-1.375s0.375-1.75-2.125-1.875s-3.625,0.25-5.75-0.625s-2.125-1.75-3.125-0.75s-0.5,1.125-1.875,2.25
	s-0.625,2.125-2.75,2.125s-1.75,0.25-3-0.25c-1.25-0.5-1-0.875-2.5-1s-1.125,0-2.625,0.125s-0.25,1-2.625-0.125
	s-2.375-1.375-4.125-2.25s-2.25-1.125-3.125-1.125s-4.5-0.375-5.5,0.5c0,0-1.346,1.428-1.346,2.842c0,1.415,0.795,2.74-0.441,2.917
	c-0.582,0.083-1.146,0.029-1.613,0.041c-0.526,0.013-0.938,0.109-1.127,0.578c-0.354,0.884-1.061,0.707-1.146,1.591
	c-0.09,0.884-0.797,2.033-1.326,2.033c-0.53,0-2.033,0.265-2.476,0.795c-0.441,0.53-0.179-0.177-0.619,2.829
	c-0.44,3.005-0.44,7.69,0.53,7.778c0.974,0.088,3.445,0.265,4.064,0.442c0.618,0.177,1.236,1.149,1.325,1.944
	s0.354,2.475,0.089,3.094c-0.267,0.619-1.149,0.884-1.237,1.679c-0.089,0.795,0.354,2.563-0.266,3.094
	c-0.618,0.53-1.592,1.237-2.032,1.326c-0.44,0.088-2.033,0.265-2.477,0.088c-0.44-0.177,0-1.591-0.974-1.591
	c-0.973,0-1.68,0.354-2.738,0.442c-1.062,0.088-0.707,0.795-1.325-0.442c-0.618-1.238-0.354-3.005-0.795-3.182
	c-0.442-0.177-4.331-0.354-5.038,0.884c-0.707,1.238-2.74,3.005-2.74,3.005s-0.974-2.21-1.769,0.795
	c-0.796,3.005-2.478,4.419-2.562,4.861c-0.089,0.442,0.972,2.652-0.354,3.889c-1.325,1.237-2.12,1.944-2.562,3.005
	c-0.44,1.061-0.354,2.475-0.088,2.917c0.265,0.442,1.414,2.917,1.061,4.95c-0.354,2.033-0.885,8.132-0.617,9.281
	c0.267,1.149,0.354,3.979,1.147,4.773c0.795,0.796,1.147,1.415,1.502,2.121c0.354,0.707,3.979,1.856,4.599,3.359
	c0.617,1.502,0.266,1.856,1.324,2.475c1.062,0.619,2.032,1.945,2.121,3.183c0.088,1.237,0.088,3.095,0.974,2.829
	c0.885-0.266,1.854-1.503,2.21-1.855c0.354-0.354,1.681-0.795,2.827-0.354c1.148,0.442,1.414,0.442,2.562,0.265
	c1.148-0.177,2.21,0.178,2.21,0.178s0.884,1.326,0.974,2.033c0.089,0.707-0.44,1.236,1.147,1.148s1.943-0.178,2.121,1.591
	c0.177,1.769,1.147,2.74,1.147,2.74s0.266,1.856,0.178,2.298s-0.707,1.503-0.441,2.652c0.267,1.148,0.886,2.298,0.354,3.093
	c-0.531,0.796-1.415,2.563-1.415,3.271c0,0.709-0.178,2.563,0,3.183c0.178,0.618-0.529,0.177-0.267,2.12
	c0.267,1.945,0.44,2.299,0.44,3.006s-3.89,0.529-2.12,2.652c1.769,2.121,2.12,4.685,4.064,4.596c1.943-0.088,2.828,2.74,3.094,3.712
	c0.267,0.973,1.062,1.68,2.3,1.769c1.236,0.088,1.413,1.943,2.386,2.12C37.579,122.213,37.579,122.125,37.389,122.07z"/>
</svg>
