<?xml version="1.0" encoding="utf-8"?>
<!-- Generator: Adobe Illustrator 16.0.4, SVG Export Plug-In . SVG Version: 6.00 Build 0)  -->
<!DOCTYPE svg PUBLIC "-//W3C//DTD SVG 1.1//EN" "http://www.w3.org/Graphics/SVG/1.1/DTD/svg11.dtd">
<svg version="1.1" id="Layer_1" xmlns="http://www.w3.org/2000/svg" xmlns:xlink="http://www.w3.org/1999/xlink" x="0px" y="0px"
	 width="35.61px" height="58.852px" viewBox="0 0 35.61 58.852" enable-background="new 0 0 35.61 58.852" xml:space="preserve">
<path id="Madagascar" fill="#D35400" stroke="#FFFFFF" stroke-miterlimit="10" d="M33.37,9.36c0.25,1,1,0.75,1,3s0.5,5.5-1,3.5
	s-1.5-2.75-1.5-1.5s0.25,3.5,0.25,3.5s1.229,1.701-0.36,1.701s-1.768-0.177-1.768,0.53c0,0.704,0.177,2.118,0.177,2.118
	l-1.062,1.062l-0.529,2.298c0,0,1.768,0.177,0.707,1.944c-1.062,1.768-1.414,2.299-1.414,2.299s0.177-1.592-0.178,1.943
	c-0.354,3.533-0.354,4.062-0.354,4.062s1.062-0.354-0.354,1.414c-1.414,1.771-1.943,2.299-2.298,3.184
	c-0.354,0.887,0.354,1.77-0.707,2.65c-1.062,0.883-1.592,1.592-1.592,1.592l-1.062,1.062c0,0-0.354,1.414-0.354,2.121
	s-0.53,1.234-0.53,1.234s-0.529,0.531-0.529,1.238s0.177,1.061-0.707,1.768c-0.885,0.707-0.53,0.887-1.593,1.77
	c-1.062,0.885-1.414-0.354-1.414,1.592s-0.529,2.828-1.413,2.828c-0.885,0-9.369,0.178-10.783,0
	c-1.414-0.176,0.884-7.248-1.062-8.484c-1.944-1.234-3.185-5.479-1.943-6.361c1.236-0.887,0.529,0,1.414-0.887
	c0.884-0.885,0.884-0.885,1.414-1.941c0.529-1.062,1.414-1.062,1.414-1.062s-1.062-2.299-0.354-2.299
	c0.706,0,0.354-2.652,0.354-2.652s0.354-1.234,0.884-2.117c0.529-0.887-0.53-1.771,0.884-1.945s2.121,0.178,2.121-0.707
	c0-0.883-0.884-1.061-1.591-1.237c-0.707-0.178-1.062,0-1.062-1.235c0-1.237-0.53-0.707-0.886-1.944
	c-0.354-1.237-1.414-0.53-0.177-2.121c1.236-1.591,1.236-0.53,1.591-2.121c0.354-1.591-1.062-2.65,0.707-2.65
	c1.771,0,2.299,0.528,4.065-0.179c1.768-0.707-0.177-0.884,2.649-0.707c2.828,0.179,3.007,1.062,4.066,0
	c1.061-1.061,1.591-0.707,1.768-1.941c0.179-1.237,0-1.593,1.237-2.121c1.236-0.53,1.236,0,2.121-0.707
	c0.884-0.707,1.591-1.592,1.414-2.651c-0.178-1.062-1.062-1.592,0.529-1.592c1.592,0,1.414,0.53,2.122-0.354
	c0.707-0.885,0.528-0.885,0.884-2.476c0.354-1.591,0-1.944,0.885-2.475c0.884-0.531,2.475-2.302,2.475-2.302s0.53-1.591,1.237,0.888
	c0.707,2.475,0,2.121,0.884,2.827c0.884,0.707,1.062,0.178,1.062,1.062S34.757,8.43,34.757,8.43L33.37,9.36z"/>
</svg>
