<?xml version="1.0" encoding="utf-8"?>
<!-- Generator: Adobe Illustrator 16.0.4, SVG Export Plug-In . SVG Version: 6.00 Build 0)  -->
<!DOCTYPE svg PUBLIC "-//W3C//DTD SVG 1.1//EN" "http://www.w3.org/Graphics/SVG/1.1/DTD/svg11.dtd">
<svg version="1.1" id="Layer_1" xmlns="http://www.w3.org/2000/svg" xmlns:xlink="http://www.w3.org/1999/xlink" x="0px" y="0px"
	 width="110.358px" height="106.917px" viewBox="0 0 110.358 106.917" enable-background="new 0 0 110.358 106.917"
	 xml:space="preserve">
<path id="MiddleEast" fill="#27AE60" stroke="#FFFFFF" stroke-miterlimit="10" d="M82.146,2.93
	c-0.176,1.061,0.531,1.591-0.883,1.945S78.786,6.29,78.786,6.29s1.59,1.591-1.77,0.884c-3.357-0.707-2.828-1.237-4.242-1.591
	s-1.236,0.354-2.299-0.354c-1.061-0.708-1.414-0.354-1.77-1.415c-0.354-1.061-2.975-2.538-2.975-2.538s-0.875,0-1,0.875
	s1.75,0.875-0.375,1.25c0,0-1.25,0.125-1.875,0.25s-1.25-0.25-1.875,0.25s-0.625,0.875-1.5,1s-0.75,0-1.75,0.125s-1.75,1-1.75,1
	s0.25,0.5-1.375,0.375c-1.625-0.125-2.25,0.25-2.25,0.25s0,1.5-1.375,0.5s-2-1-2-1.5s0.625-1,1.125-1.5c0,0-0.472-1.486-2.327-1.133
	C45.55,3.371,44.4,3.282,43.958,3.901c-0.439,0.619-0.884,1.856-1.591,1.945c-0.707,0.089-2.74,0.265-3.271-0.354
	C38.564,4.874,37.607,2.9,35.107,2.15s-4.625-1.375-5.5-0.75s-0.125,1.375-1.875,0.875s-3.5-1.25-4-1s-2.125,0-2.125,0.625
	s0.75,1.625-0.25,1.75s-2.25,0.625-2.875,0.875s-0.25,0.5-2.5,0.5s-4.5,0.375-5.375-0.375s-1.25-1.625-1.625-2.125s-1.375-1-1.375-1
	h-1.25c0,0-1.375,0.375-1.875,1s-0.5,1-1,1.375s-0.5,0.25-1.125,1S2.232,6.025,1.732,6.65s-0.875,0.125-1.125,1s0,0.5,0.125,1.375
	s0.75,0.875,0,1.875c0,0,1.062,2.188,1.5,3.25c0.438,1.062,1.875,1.625,0.75,2s-2.5,0.438-2.25,1.438s2.625,3.375,3.312,4.562
	c0.688,1.187,0.188,3.875,1.312,4.875c1.125,1,2.875,1.875,3.5,1.875s2.5-1.375,2.75-0.125s-0.25,3.625,0.5,3.75s2.5,1,2.875,0.375
	s-1.253-2.394-0.016-2.924c1.235-0.531,0-3.006,2.649-1.769c2.651,1.237,2.651,2.122,4.243,2.299
	c1.591,0.177,2.65-0.354,3.712-0.177s2.298,1.237,2.65,0c0.354-1.238,1.236-1.945,2.122-1.945c0.884,0,2.828-0.53,3.183,0.53
	c0.354,1.062-0.53,2.299-0.354,3.359s1.235,1.414,0.884,7.425c-0.354,6.01,1.062,9.016,0.177,9.546
	c-0.884,0.53-2.12,2.121-1.768,3.005c0.354,0.885,1.768,3.889,1.942,6.012c0.177,2.121,0.884,2.65,1.062,3.711
	c0.177,1.062-1.236,1.238,0.177,3.008c1.414,1.771,4.421,2.829,4.243,4.064c-0.179,1.236,1.942,1.77,2.828,3.004
	c0.884,1.237,2.298,4.773,2.649,6.364c0.354,1.591,1.591-0.707,2.299,1.944c0.707,2.651,2.828,2.298,3.358,4.242
	c0.538,1.946,2.462,3.803,3.462,4.303s4.25,1.25,4,3s2.75,3.5,2.75,4.75s-0.25,3.75-0.25,3.75s-0.5,0.5,0.5,1.5s1.75,1.75,2,3.25
	s1.25,1.25,1.25,1.25s9.75-1,13-2s7.25-2.75,7.25-3.75s0-0.75,1.5-1.25s2.5-2.5,2.5-2.5l1.5-1.25c0,0,0.25-2,1.5-1.75s2.75,1,2.75,0
	s-0.75,0.25,2.25-4.75s3.5-6.75,3.25-7.75s-0.25-1,0.75-1.75s1.5-3.25,1.5-3.25l-0.5-2.25l1-2.25c0,0,1.434-3.917,0.195-4.447
	c-1.238-0.529-1.062-0.884-1.062-2.299c0-1.414-1.592-2.298-1.592-2.298s0,0.53-1.414,0s-3.182-2.121-3.182-2.121
	s-1.592,0.707-1.77-0.354c-0.178-1.061,0.354-2.648-0.529-2.121c-0.887,0.531-1.945,0.354-2.477,1.062
	c-0.533,0.708,0.707,1.77-2.477,1.77s-3.891,1.062-4.598-0.178c-0.707-1.236-0.707-1.236-1.062-2.649
	c-0.354-1.416,0.709-0.707-0.883-1.771c-1.592-1.061-1.943-1.061-1.943-1.942c0-0.883-0.531-1.414-0.531-1.414
	s-1.234,0.707-1.768-0.706c-0.533-1.414,0.707-2.3-0.707-3.535c-1.414-1.238-1.414-1.415-1.943-2.478
	c-0.529-1.062-1.062-1.769-1.062-1.769s-1.236-0.707-0.707-1.414s0.178-0.884,1.77-1.062s1.943-0.529,2.65-1.062
	c0.707-0.529,0.354-0.884,1.592-1.062c1.236-0.176,1.412-1.236,1.943,0.179c0.529,1.414,0.354,1.942,0.354,3.889
	s-0.178,3.358,0.354,4.421c0.531,1.062,0.885,1.592,1.062,2.299s0.354,1.235,0.354,1.235s0.176,0.179,1.061,0.179
	s1.062-0.707,1.414,0.176c0.354,0.886,0,0.531,0.529,1.238c0.531,0.707,0.355,1.062,1.238,0.707s1.061-1.238,1.941-0.886
	s1.592,0.53,1.592,0.53s1.236,0.177,1.236-0.885s-0.178-1.592,0.355-2.299c0.527-0.707,0.883-2.476,1.941-0.178
	c1.062,2.299,0.529,2.65,1.062,3.535c0.529,0.884,0.883,1.591,1.941,1.236c1.062-0.354,1.592-0.354,2.299-1.062
	s1.414-1.062,1.414-1.062s-0.178-1.769,0.885-2.119c1.062-0.354,2.299-1.414,2.299-1.414l1.236-1.414l1.061-1.415h2.65
	c0,0-1.105-4.111-1.26-5.647c-0.154-1.537-2-1.689-1.385-2.921c0.615-1.229,1.229-2.768,0.309-3.688
	c-0.924-0.922-2.461-1.846-2.461-3.073c0-1.229,0.463-1.229-0.309-2.46c-0.77-1.229-1.229-2.613-1.229-3.382
	s0.035-1.561-0.461-2.767c-0.646-1.569-2.371-0.026-1.998-2.767c0.895-6.559,0.863-8.242,0.846-8.224
	c-0.02,0.018,0.318-2.266,0.318-2.266s-1.193-0.435-1.305-0.869c-0.107-0.435-1.305-2.065-1.793-2.446
	c-0.49-0.381-2.119-0.163-2.395-0.217c-0.27-0.055-1.141-0.218-1.52-0.761s-0.381-1.304-0.543-1.576
	c-0.164-0.271-0.49-0.761-1.25-1.521c-0.764-0.761-1.145-0.924-1.688-1.033c-0.543-0.108-1.143,0-1.738-0.543
	c-0.6-0.543-1.143-0.108-2.012-0.163c-0.869-0.054-1.686,1.359-2.119,1.522C85.28,2.298,84.358,2.243,83.435,1.7
	c-0.381-0.108-1.033-0.163-1.033-0.163L82.146,2.93z"/>
</svg>
