<?xml version="1.0" encoding="utf-8"?>
<!-- Generator: Adobe Illustrator 16.0.4, SVG Export Plug-In . SVG Version: 6.00 Build 0)  -->
<!DOCTYPE svg PUBLIC "-//W3C//DTD SVG 1.1//EN" "http://www.w3.org/Graphics/SVG/1.1/DTD/svg11.dtd">
<svg version="1.1" id="Layer_1" xmlns="http://www.w3.org/2000/svg" xmlns:xlink="http://www.w3.org/1999/xlink" x="0px" y="0px"
	 width="86.704px" height="69.928px" viewBox="0 0 86.704 69.928" enable-background="new 0 0 86.704 69.928" xml:space="preserve">
<path id="Mongolia" fill="#27AE60" stroke="#FFFFFF" stroke-miterlimit="10" d="M0.536,18.518c0,0,0.69,0,0.999,0.922
	c0.308,0.922,1.152,2.383,0.308,3.536c-0.845,1.153-1.537,3.305-0.613,5.38c0.923,2.075,2.535,2.306,2.383,3.536
	s-0.384,0.922-0.538,2.613c-0.152,1.691,0.153,2.768-0.236,3.479c-0.191,0.957-1.146,2.056-1.146,2.056s1.135,1.905,1.753,2.083
	c0.617,0.177,1.147,6.451,1.147,6.451s0.974-0.618,1.237,0.178c0.265,0.795,0.617,2.121,0.617,2.121s1.326,0.795,1.326,1.236
	c0,0.442-0.091,1.504,0.266,1.681c0.354,0.177,1.769,0.795,1.769,0.795l0.354,1.326c0,0,0.178,1.149,0.707,1.237
	s0.795-0.088,1.502,0.265c0.707,0.354,0.886,0.442,1.504,0.442s0.884-0.088,0.884,0.441c0,0.53-0.088,1.414,0.266,1.502
	c0.354,0.088,1.237,0.178,1.237,0.178s0.267,0.529,0.618,0.883c0.351,0.354,1.415,0.442,1.592,0.795
	c0.177,0.354,0.267,0.974,0.354,1.326c0.088,0.354-0.268,1.149,1.062,1.237c1.325,0.088,9.018-1.062,9.018-1.062l0.528,0.885
	c0,0,0.53,0.529,1.147,0.707c0.619,0.177,1.77-0.266,2.74,0.177c0.974,0.442,1.769,0.707,2.21,0.707h1.324
	c0,0,0.267,1.237,0.707,1.326c0.44,0.088,2.209-0.619,2.209-0.619s0.354-0.53,0.887-0.442c0.528,0.088,0.616-1.148,1.591-1.236
	c0.973-0.088,1.502-0.088,1.854-0.088c0.354,0,2.478-1.062,2.562-0.178c0.09,0.885,0.178,1.414,0.619,1.944
	c0.439,0.53,1.68,0.884,2.121,0.884c0.439,0,1.413-0.619,2.031-0.973s0.886-0.707,1.681-0.53c0.796,0.177,1.592,0.707,1.943,0.884
	c0.354,0.178,0.53,0.178,1.592,0.531c1.062,0.354,2.477,0.266,2.477,0.266s2.562,0.265,3.463,0.597
	c0.428,0.255,2.303,0.942,2.989,0.88c1-0.5,0.875,0.5,2.25-1s0.5-0.25,1.875-2.25s3.625-2.25,1.125-2.5s-2.125,0.5-3-0.375
	s-0.125-1.125-1.625-1s-1.5,0.375-1.875-0.125s0.75-0.875-1.125-0.875s-1.25,0.75-2.75-0.125s-1.625-0.5-1.5-1.5
	S59.079,57.25,60.079,57s0.75,0,1.375-0.5s1-0.625,1-1.375S63.829,54,64.204,53s0.375-2.5,1.125-2.5s0.75-0.125,1.375,1.625
	s-0.875,2.5,0.875,2.625s2.75,0.25,3.5,0.125S71.329,55,72.204,56s0.75,1.5,1.625,2.125s1,1.75,1,1.75s0,0.625,1.125,0.375
	S78.829,60,78.829,60s-0.5-0.625,0.125,1.5s1,1.625,1,3.5s-0.875,2.875,0,3.5s1.875,0.875,1.875,0.875s2.625-2.5,2.875-3.625
	s1-1.5,0.875-2.375s-0.375-0.25,0.125-1.375s0.5-3.125,0.5-3.125s-0.5-0.125-1-0.375s-0.75-0.125-1-1.5s0.25-1.375-0.625-1.75
	s-1.25-1-1.5-1.75s-0.125-1.25-0.75-1.375s-0.5-0.248-1.875-1.248s-1.125-0.5-2.125-1.125s-1.25-1-1.25-1.875
	s-0.25-1.125,0.375-1.75s1,0.75,1.125-1.5s-0.625-2.375,0.5-4.625s0.875-3.125,1.75-3.875c0.562-0.438,0.438,0,2.094-1.75
	c0.098,0.055,0.098,0.143-0.877-0.035c-0.972-0.177-1.146-2.033-2.386-2.121c-1.238-0.088-2.033-0.795-2.3-1.768
	c-0.267-0.972-1.147-3.8-3.093-3.712c-1.945,0.088-2.301-2.475-4.065-4.596c-1.769-2.122,2.12-1.945,2.12-2.652
	s-0.267-0.088-0.529-2.033c0,0-0.901,0.917-2.026,0.604s-1.875-0.688-2-1.562s-1.25-1.312-1.25-1.312s-1.562-0.062-1.625-0.562
	c-0.062-0.5-0.312-0.875-0.5-2.438c-0.188-1.563-0.062-1.938-0.688-1.938s-1.375,0.125-1.625-0.125s-0.562-0.438-0.625-1.25
	c-0.063-0.812-0.125-1.625-0.5-1.75s-1-0.438-1.375-0.438s-1.625,0.25-1.75-0.25s-0.25-1.188-0.125-1.688s0.312-0.812,0.312-1.25
	s-0.25-1.438-0.25-1.438s-0.438,0-0.875-0.375c-0.437-0.375-0.438-0.938-1.062-1.062s-1-0.312-1.562,0.312
	c-0.562,0.624-0.938,1.188-1.25,1.312c-0.312,0.124-2.188,0.312-2.812,0.312s-1.562-0.375-1.562-0.375l-0.438-0.5
	c0,0-0.875-0.312-0.875,0.062s0.312,0.75,0,1.25c-0.312,0.5-0.125,0.5-0.812,1.062c-0.687,0.562-1.125,0.688-1.188,1.125
	c-0.063,0.437-0.062,0.625,0.312,1.062s0.562,0.312,0.75,0.875c0.188,0.563,0.25,0.688,0.25,1.312s0.062,1.5-0.375,1.875
	c-0.437,0.375-0.562,0.312-0.875,1.125c-0.312,0.813-0.562,0.938-0.75,1.312c-0.188,0.374-0.438,0.562-0.062,1.312
	s0.75,1.25,1,1.562s0.562,0.812,0.312,1.625s-0.312,1.25-0.812,1.75s-0.938,1.562-1.312,2s-0.25,0.938-0.875,0.625
	s-1.062-0.875-1.125-1.125l-0.312-1.25c-0.188-0.75-0.438-1.688-0.562-1.938s-1.714-1.092-2.109-0.296
	c-0.396,0.795-0.268,1.546-0.884,1.812c-0.619,0.266-0.751,0.266-1.019,0.663c-0.267,0.398-1.018,1.502-1.591,1.37
	c-0.575-0.133-0.707-0.265-1.637-0.398c-0.93-0.132-1.681-0.442-2.076,0.133c-0.397,0.575-1.414,1.414-2.121,1.149
	c-0.707-0.265-1.636-0.795-1.856-1.017c-0.221-0.221-1.591-0.839-2.298-0.751c-0.707,0.088-0.707,0.265-2.077,0.177
	c-1.369-0.088-2.693-0.619-3.577-0.619c-0.886,0-3.185-1.149-3.892-1.017c-0.707,0.132-0.574,0.132-1.326,0.442
	c-0.751,0.31-1.279-0.177-1.591,0.354c-0.31,0.53-0.31,1.282-1.237,1.149c-0.928-0.132-1.413-0.132-1.768-0.486
	c-0.354-0.354-0.619-0.884-0.619-0.884s-0.574-0.221-0.929-0.133c-0.354,0.088-1.28,0-1.28,0s-0.796-0.795-0.974-0.84
	c-0.178-0.044-0.928-0.486-1.236-0.442c-0.31,0.044-1.637,0.265-1.637,0.265S0.214,18.08,0.536,18.518z"/>
</svg>
