<?xml version="1.0" encoding="utf-8"?>
<!-- Generator: Adobe Illustrator 16.0.4, SVG Export Plug-In . SVG Version: 6.00 Build 0)  -->
<!DOCTYPE svg PUBLIC "-//W3C//DTD SVG 1.1//EN" "http://www.w3.org/Graphics/SVG/1.1/DTD/svg11.dtd">
<svg version="1.1" id="Layer_1" xmlns="http://www.w3.org/2000/svg" xmlns:xlink="http://www.w3.org/1999/xlink" x="0px" y="0px"
	 width="57.105px" height="43.43px" viewBox="0 0 57.105 43.43" enable-background="new 0 0 57.105 43.43" xml:space="preserve">
<path id="NewGuinea" fill="#8E44AD" stroke="#FFFFFF" stroke-miterlimit="10" d="M17.136,11.679c0,0,0.5-2.75,1.5-3.5
	s0.25-1,0.25-2.25s-1-2.5,0.25-2.75s1.5,0,3.25-0.25s3.5-1.25,3.5-1.25l1.5,1.5c0,0,0.75,0.75,3,0.75s3,1,4,2.75s0.5,2.5,3.25,4.25
	s5.5,2.5,7,3s2.75,1.25,2.5,2.75s1.5,2.25-0.5,2.75c0,0,5.724,2.462,6.431,4.053s1.944,2.298,0.53,3.185
	c-1.414,0.885-3.005,0.177-2.828,1.235c0.178,1.062,1.237,1.771,1.591,3.008c0.354,1.234,1.593,1.941,1.593,3.355
	s-0.354,2.299,1.062,3.184c1.415,0.886,1.591,0.886,1.591,1.943v2.477c0,0-1.062,1.062-2.828,1.062s-2.649-1.414-3.356-1.414
	s-2.478-0.354-2.478-0.354s-1.235-4.95-4.771-5.835c-3.535-0.886-3.535-1.413-3.535-0.706c0,0.706,1.236,2.299-0.179,2.827
	c-1.413,0.529-2.12,0.529-3.005,0.529c-0.886,0,3.005,1.591-1.414,1.414s-4.771-1.768-6.718-0.53
	c-1.944,1.237-7.778-3.713-7.778-3.713s-2.65,0.179-2.65-1.234c0-1.414-0.707-1.594,0.177-2.828
	c0.886-1.237,0.886-1.414,0.886-2.828c0-1.415,0.354-1.771,0.354-3.186c0-1.411,0.884-1.941-0.354-2.475
	c-1.237-0.531-2.298-0.884-2.477-2.121c-0.177-1.237-0.177-1.414-1.062-1.414c-0.884,0,0,0.177-1.413,0.177
	c-1.414,0-2.479,1.062-3.714-0.527c-1.236-1.593-1.414-1.593-3.712-1.593s-7.248,3.357-3.357,0c3.889-3.357,4.596-3.534,4.596-3.534
	s-4.062,0-4.24-1.414c-0.179-1.414-0.53-3.713-1.415-4.066C1.276,7.752,0.218,7.221,0.569,5.983c0.354-1.234,1.062-5.655,4.6-5.479
	c3.534,0.177,4.241,1.591,5.303,2.121c1.062,0.527,3.006-1.414,3.358,0.354c0.354,1.771,0,4.772,0,4.772s1.235,0.884,1.592,2.649
	L17.136,11.679z"/>
</svg>
