<?xml version="1.0" encoding="utf-8"?>
<!-- Generator: Adobe Illustrator 16.0.4, SVG Export Plug-In . SVG Version: 6.00 Build 0)  -->
<!DOCTYPE svg PUBLIC "-//W3C//DTD SVG 1.1//EN" "http://www.w3.org/Graphics/SVG/1.1/DTD/svg11.dtd">
<svg version="1.1" id="Layer_1" xmlns="http://www.w3.org/2000/svg" xmlns:xlink="http://www.w3.org/1999/xlink" x="0px" y="0px"
	 width="120.162px" height="54.458px" viewBox="0 0 120.162 54.458" enable-background="new 0 0 120.162 54.458"
	 xml:space="preserve">
<path id="NorthWestTerritory" fill="#F39C12" stroke="#FFFFFF" stroke-miterlimit="10" d="M89.615,53.823
	c0.708-2.475,8.818-10.158,8.818-10.158s3.182-0.354,4.596-1.414c1.414-1.061-1.768-4.244-1.768-4.244l0.707-2.121l2.121,1.769
	c0,0,0.707,1.414,2.828,1.414s1.414-2.121,2.83-2.476c1.414-0.354,2.827-3.889,2.827-3.889s2.829,1.061,5.657-1.768
	c2.828-2.829,0.707-1.415,0-2.829c-0.708-1.414,0.707-2.475,0.707-2.475l-2.122-0.707c0,0,1.415-1.061,0-3.182
	c-1.414-2.122-1.769,1.061-3.183,2.121c-1.414,1.061-1.061,2.121-4.948,1.414c-3.89-0.707,0-2.121-0.354-3.535
	c-0.354-1.415-4.242,0.707-4.949-1.415c-0.707-2.121-1.769,1.061-1.414-1.061c0.354-2.122-0.354-5.303-1.769-6.01
	c-1.415-0.708,2.828-7.425,2.828-7.425s2.829,1.414,3.183-1.061s1.768-2.122,1.768-3.536s-3.536-0.354-3.536-0.354l-0.707,2.829
	c0,0-4.243-3.182-4.243,0s-1.414,3.182-3.535,7.424c-2.121,4.243-0.354,6.718-0.354,6.718s2.121,0.707,1.414,2.828
	c-0.707,2.122-4.95,1.768-4.95,1.768l-0.354-3.889h-2.828c0,0-0.354,3.889,0,5.303c0.354,1.414-7.778,0.354-9.899-1.414
	c-2.122-1.768-4.597,1.414-6.718,2.475s-3.889,0.354-6.01-0.354c-2.121-0.707-1.062,2.829-5.657,2.475
	c-4.596-0.354-2.122-6.364-3.182-4.243c-1.061,2.121-5.657-1.768-8.132-3.889c-2.475-2.122-7.071-1.414-7.071-1.414l-0.354-2.475
	h-2.475l-3.182,0.707c0,0-2.475,1.061-4.596,0.707c-2.122-0.354-1.768,1.768-1.768,1.768s-2.475,1.061-5.657,0.707
	c-3.182-0.354-2.829,1.061-4.243,2.121c-1.414,1.061-6.364-1.414-9.546-2.828c-3.182-1.415-5.26,1.539-8.442,0.479
	c0,0-1.677,31.316-1.427,32.066s82.625,3,86.75,2.875S89.615,53.823,89.615,53.823z"/>
</svg>
