<?xml version="1.0" encoding="utf-8"?>
<!-- Generator: Adobe Illustrator 16.0.4, SVG Export Plug-In . SVG Version: 6.00 Build 0)  -->
<!DOCTYPE svg PUBLIC "-//W3C//DTD SVG 1.1//EN" "http://www.w3.org/Graphics/SVG/1.1/DTD/svg11.dtd">
<svg version="1.1" id="Layer_1" xmlns="http://www.w3.org/2000/svg" xmlns:xlink="http://www.w3.org/1999/xlink" x="0px" y="0px"
	 width="104.182px" height="114.686px" viewBox="0 0 104.182 114.686" enable-background="new 0 0 104.182 114.686"
	 xml:space="preserve">
<path id="NorthAfrica" fill="#D35400" stroke="#FFFFFF" stroke-miterlimit="10" d="M72.159,14.881c-0.875-1-1-1.375-1.375-2.125
	s-0.625-2.125-1.875-2.25s-1.125,1.125-1.5-0.75s-0.749-3.375-1.249-3.75s-1.375-0.75-2.5-1.875s-1.25-2.25-1.25-2.25l-2.125-1.375
	c0,0-5.5,0.25-6.125,0.25s-1.75,0.125-2.5,0.625s-0.375,0.75-1.75,1.375s-3.625,1.75-4.25,2s-3.5,0.375-3.5,0.375s0,1-1.125,1.75
	s-2.625,1.625-3.875,1.5s-1.395-0.568-2.375-0.375c-1.848,0.365-3.059,1.582-3.75,1.5c-0.633-0.075-1.75,0.375-2.875,0.75
	s0.125,0.5-2.25,0.5s-3.625,0-4.375-0.125s-1.375,0.25-2,0.375s-1.5,0.25-1.268,0.42c-1.414,0-2.121,1.061-2.121,1.061l0.354,4.599
	l-3.183,3.536c0,0-0.707,2.826-1.414,4.947s-1.77,4.242-1.77,4.242L8.719,33.7c0,0-1.562,0.81-1.437,1.435s0.375,1.875-0.125,2.25
	s-1.125,0-1.75,1.25s-1.123,2.373-1.123,2.873s0.625,1-0.25,2s-1.75,1.125-2,3.25s-1.25,4-0.25,5.25s1.625,2.25,1.625,3.625
	c0,1.375-0.375,1.25-0.25,3.25s0.375,1.875,0.375,3.25s-0.125,3.25-0.375,4.875s-0.75,2.125-1.125,4s-2.625,2.625-0.875,4.25
	s1.5,3.125,2,4.5s5,1,5,3.875s3.375,3.25,3.625,4.75s-0.625,3.625,2.375,4.875s2.75,3.125,3.375,3.625s3.375,0.875,4,1.625
	s1.5,2,2.125,2.625s1.25,1.625,3.375,1.5s2.375,0,5.75-0.375s5.75-0.5,6.625-0.625s2.75,0.5,4.125-0.125s1.125-1.75,2.875-2.125
	s2.375,0,3.5-0.25s5.5-0.25,6.125,0.25s1.375,0,2.125,1.625s-1.5,4.125,3.25,3.875s7.501-1,8.126,0.125s-1.5,2.75-1.125,4.25
	s0.875,1.875,0.375,2.625l0.569,0.309c0.528,1.062,0.528,1.594,1.235,1.943c0.708,0.355,2.652-1.236,2.652-1.236s1.59,0,3.182,0.354
	c1.593,0.354,1.77-0.354,3.357-0.707c1.592-0.354,1.945,1.238,1.945,1.238s1.235,0.883,2.649,0c1.413-0.887,1.062-1.238,0.53-2.652
	c-0.53-1.414,0.354-1.77,0.707-5.656c0.353-3.887-1.237-1.941-1.237-1.941s-0.528-1.238-0.354-3.717
	c0.178-2.475,0.885-0.705,1.414-1.768c0.529-1.061,1.235-1.061,2.121-1.768c0.884-0.707,2.122-0.707,3.006-1.236
	c0.884-0.531,1.414-1.592,2.828-2.121c1.413-0.531,2.826-1.238,5.126-2.299c2.299-1.062,1.77-2.121,1.77-3.006
	c0-0.887,2.298-3.357,2.298-3.357s-0.53-2.121-1.414-3.359c-0.884-1.234-0.354-2.648-0.354-3.533c0-0.887,0.354-1.414,0.885-2.121
	c0.529-0.707,0.177-1.062,0.177-1.062l0.884-1.768c0,0,0.53-1.414,0.53-2.652c0-1.236-0.707-0.707-1.414-0.883
	c-0.707-0.178-0.177-0.355,0.884-0.885c1.062-0.529,0.707-1.77,0.886-2.828c0.178-1.062-0.354-5.48-0.529-6.363
	c-0.177-0.885-3.891,0.176-4.773-0.178c-0.884-0.354-1.414-1.062-1.414-1.062s-0.707-2.121-0.884-3.182
	c-0.177-1.062-2.65,0.177-3.535,0c-0.884-0.177-0.177-1.414-0.528-2.651c-0.354-1.234-1.77-0.707-2.65-0.707
	c-0.886,0-2.299-0.707-3.536-1.591s-1.591,0.354-3.005,0.53s-1.414-0.177-1.944-1.062c-0.528-0.884-2.299,0.53-3.89,0.354
	c-1.592-0.176-1.237-0.884-2.121-2.299c-0.885-1.413-1.768-0.354-3.713-0.883c-1.944-0.53-1.237-0.709-1.414-2.123
	c-0.178-1.414-1.414-1.236-1.414-1.236s-0.178-1.592-0.354-2.828c-0.179-1.236,0.177-3.182,0.177-3.891
	c0-0.707-0.354-3.357-1.591-3.889c-1.236-0.531-0.354-1.77-0.354-1.77s-0.53-1.77-0.354-2.651c0.176-0.885,1.412-1.942,2.298-1.942
	c0.883,0,1.414-1.062,1.414-1.062s-1.414-2.121-2.121-3.357c-0.708-1.235,1.235-1.062,1.235-1.062l0.886-1.062
	c0,0,0.354-0.529,1.942-1.416C73.069,16.905,72.159,14.881,72.159,14.881z"/>
</svg>
