<?xml version="1.0" encoding="utf-8"?>
<!-- Generator: Adobe Illustrator 16.0.4, SVG Export Plug-In . SVG Version: 6.00 Build 0)  -->
<!DOCTYPE svg PUBLIC "-//W3C//DTD SVG 1.1//EN" "http://www.w3.org/Graphics/SVG/1.1/DTD/svg11.dtd">
<svg version="1.1" id="Layer_1" xmlns="http://www.w3.org/2000/svg" xmlns:xlink="http://www.w3.org/1999/xlink" x="0px" y="0px"
	 width="67.338px" height="67.408px" viewBox="0 0 67.338 67.408" enable-background="new 0 0 67.338 67.408" xml:space="preserve">
<path id="NorthernEurope" fill="#2293AC" stroke="#FFFFFF" stroke-miterlimit="10" d="M53.775,10.75l1.25,0.125
	c0.847,0.794,1.451,1.718,2.312,2.5c0,0,2.5,1.375,3.375,1.375s1.875-0.562,2.375-0.625S63.025,15,63.025,15.313s0.688,3.25,1,3.875
	c0.312,0.625,0.375,8.062,0.438,9.438c0.063,1.376,1.375,2.75,1.75,3.062s0.625,1.062,0.625,1.375s-0.812,1.375-0.875,1.812
	c-0.062,0.437,0.125,1.188,0.062,1.75c-0.063,0.562-0.5,0.812-1,1.25s-0.375,1.438-0.688,2.062
	c-0.312,0.625-0.812,0.625-1.438,0.875c-1.687,2.299-2.099,4.338-5,5c-0.562,0-2.062,0.438-2.25,0.938
	c-0.188,0.5-0.188,1.5-0.188,1.5l2.312,2.188c-0.696,1.09-0.432,1.09-0.432,1.09s-0.707,0.707-1.148,0.885
	c-0.441,0.177-0.618,1.061-0.707,1.502c-0.088,0.441-0.884,0.795-2.209,1.679c-1.326,0.884-1.854,3.802-1.854,3.802
	s-0.179,2.828-0.179,3.182s0.795,1.414,0.886,2.122c0.088,0.707-0.619,2.209-0.619,2.209h-9.191v-3.89c0,0-0.973-1.414-1.062-1.768
	c-0.09-0.354,0.354-1.503,0.528-1.855c0.178-0.354,0.707-1.237,0.885-2.033c0.178-0.797-0.707-1.769-1.146-1.856
	c-0.441-0.089-0.441-0.354-0.441-0.354s-1.414-0.264-1.855-0.176c-0.44,0.088-0.44,0.795-0.973,1.148
	c-0.529,0.354-1.412,0.354-2.299,0.441c-0.884,0.088-4.686,0.619-4.686,0.619v2.033c0,0.885-1.855,2.475-2.386,3.182
	c-0.531,0.707-1.149,0.795-2.3,1.149c-1.147,0.354-1.324,0.177-2.387,0.089c-1.061-0.09-0.973,0.354-1.768,0.795
	c-0.796,0.441-2.478,0.883-3.359,1.237c-0.881,0.354-1.768-2.21-1.768-2.651c0-0.442-1.326-0.266-1.326-0.266
	s-0.795,0.973-1.591,1.326c-0.795,0.354-1.062,0.619-2.21,0.441c-1.148-0.176-0.902-0.582-0.902-0.582s-0.938-0.688-1.25-1.062
	s-0.5-1.188-0.625-1.938S8.71,60.25,8.336,59.75c-0.373-0.5-0.437-0.625-0.562-1.437c-0.125-0.812-0.375-0.812-0.812-0.938
	c-0.438-0.126-0.875-1.25-1.75-2.5s-2.188-2.062-2.188-2.062s-1.062-2.75-1-3.188s-1.125-0.75-1.125-0.75
	c0.75-0.875,1.375-3.125,2-3.375s1,0.375,1.375-1.625s-0.25-1.625,0.375-2.125s1.375,0.125,1.75-1.25s0.25-1.625,0.25-2.25
	s-1.75-0.625,0.625-1.125s2.5,0.25,3-0.75s0.5-0.75,0.75-1.75s0.75-0.75,1.375-1.75s0.25-1,0.625-1.875s0.375-4.125,1-4.375
	s0.625,0.5,1-0.5s0-1.25,0.75-2.25S16.649,23,17.399,22.5s0.875-0.375,1.125-1s-0.875-0.5,0.875-1.75s1.625-0.75,1.875-1.375
	s0.5-1,0.625-1.625s0-0.625,0.125-1.5s0-0.25,0.125-1.75s0.375-2.5,0.5-3.125s0.25-1-0.375-0.875s-0.75,1.125-0.875,0
	S21.024,8,20.774,7.375s-0.625-1.75-0.625-1.75s-0.5-0.5,0-1.25S21.274,2.5,21.274,2.5s0.375-0.375,1-0.5s0.75,0.125,1.25-0.5
	s-0.5-0.75,0.75-0.875s1.5-0.125,1.5-0.125l-0.75,1.125l-0.125,1c0,0,1.375,0.75,1.625,2.25s0.5,1.625,0.375,2.375
	S26.649,11,26.649,11s0,1,0.75,1.625s1.25,0.875,2,1c0.75,0.125,2.125,0.25,2.75,0s1.25-0.375,1.875,0s1.375,0,1.875-0.25
	s1.125-0.5,1.75-0.625s1.125-0.125,2.375-0.125s1.625,0.25,2.125-0.25s0.375-0.125,1-0.625s1.875-1.125,2.5-1.125
	s0.625-0.125,1.375-0.25s1.75-0.625,2.75-0.25s1.375,0.5,2.25,0.625S53.275,11.125,53.775,10.75z"/>
</svg>
