<?xml version="1.0" encoding="utf-8"?>
<!-- Generator: Adobe Illustrator 16.0.4, SVG Export Plug-In . SVG Version: 6.00 Build 0)  -->
<!DOCTYPE svg PUBLIC "-//W3C//DTD SVG 1.1//EN" "http://www.w3.org/Graphics/SVG/1.1/DTD/svg11.dtd">
<svg version="1.1" id="Layer_1" xmlns="http://www.w3.org/2000/svg" xmlns:xlink="http://www.w3.org/1999/xlink" x="0px" y="0px"
	 width="56.331px" height="75.942px" viewBox="0 0 56.331 75.942" enable-background="new 0 0 56.331 75.942" xml:space="preserve">
<path id="Ontario" fill="#F39C12" stroke="#FFFFFF" stroke-miterlimit="10" d="M20.827,3.698c-0.707,2.475-1.062,9.192-1.062,9.192
	l1.768,1.414c0,0,1.414,2.475,3.182,4.243c1.768,1.768,2.828,5.303,5.657,4.596s3.889,2.475,3.889,2.475l2.121-1.415
	c0,0,2.122-1.237,2.475-0.53c0.354,0.708,2.476,1.415,2.476,1.415s2.122-1.238,4.065-1.415c1.945-0.177,0.354,1.591,0.354,1.591
	l-4.065,1.944c0,0,0.883,2.652,1.944,2.298c1.062-0.354,1.591,4.066,0.354,4.95c-1.237,0.884,0.354,2.65,0.354,2.65l0.707,2.476
	l1.945,1.414l0.529,2.298h-0.177c-0.707,1.944-1.061,18.915-1.061,18.915s1.061-1.415,1.768-1.591s1.769,1.415,2.476,1.591
	c0.707,0.177,0.354-1.415,1.061-2.122s0.885,0,1.591,0.53c0.707,0.53,0.53,0,1.591-0.177c1.062-0.178,1.062,2.828,1.062,3.711
	c0,0.884-1.769,1.416-1.769,1.416s-2.475,0.884-3.535,0.707c-1.062-0.178-2.299,1.414-3.006,2.298s-2.121,0.354-3.004,0.707
	c-0.884,0.353-0.354,1.237-0.178,2.475c0.178,1.237-3.889,4.419-4.773,3.536c-0.883-0.883-2.297-2.298-3.889-3.182
	c-1.591-0.885,0.354-2.652,1.061-3.889c0.709-1.238,0.178-4.066-0.883-6.895c-1.062-2.829-1.237-3.889-1.769-4.596
	c-0.53-0.707-1.769-2.652-2.298-4.95c-0.53-2.298-2.828,1.591-5.303,0.884s-5.833,1.061-5.833,1.061s0.354-4.949-0.354-5.303
	C19.591,48.068,0.5,48.774,0.5,48.774v-2.828c0-2.299,3.889-45.432,3.889-45.432l18.385,0.53L20.827,3.698z"/>
</svg>
