<?xml version="1.0" encoding="utf-8"?>
<!-- Generator: Adobe Illustrator 16.0.4, SVG Export Plug-In . SVG Version: 6.00 Build 0)  -->
<!DOCTYPE svg PUBLIC "-//W3C//DTD SVG 1.1//EN" "http://www.w3.org/Graphics/SVG/1.1/DTD/svg11.dtd">
<svg version="1.1" id="Layer_1" xmlns="http://www.w3.org/2000/svg" xmlns:xlink="http://www.w3.org/1999/xlink" x="0px" y="0px"
	 width="84.594px" height="90.315px" viewBox="0 0 84.594 90.315" enable-background="new 0 0 84.594 90.315" xml:space="preserve">
<path id="Peru" fill="#C0392B" stroke="#FFFFFF" stroke-miterlimit="10" d="M34.948,60.475c0.875-0.25,1,1.625,0.75,2.625
	s0.125,2,1.25,3.125s2.375,2.375,2.875,3.25s1.75,1.625,2,2.625s0.625,2,1.875,3s2-0.125,2.25-0.875s-0.125-2.5,0.125-4.25
	s2.5,0.25,2.5,0.25s0.875,1.875,1.25,2.5s2,0.375,2.75-0.375s1.25-0.625,1.75-0.625s1.5,1,3.25,0.75s1.875-0.375,3.375,1
	s0.25,2.125,1.625,3s1.375,0,2.25,0.375s0.375,1.5,1.75,2.375s5,0.125,6.25,0.625s0,1.625,0,2.5s0,3.25-0.625,3.5
	s-1.5,2-1.375,3.375s3.375,0,4.75-0.625s2-0.5,3.375-1.75s5.125-3.375,5.125-3.375c-0.125-1.75-3-2.75-3.375-5.375
	s-0.75-4.5-1.375-5s-1.25,0-2.125-1.375s-1.5-1.875-3-2.75s-0.75-2.25-0.5-3.375s-1-4.375-1.75-5.875s-1.625-1.5-2-3.25
	s-0.5-2.25-1.625-3.125s-2.625-1-2.875-1.75s0.25-1.75-0.5-2.5s-1.375-2.5-2-3.75c-0.625-1.25-2.875-0.125-4.5-0.125
	s-1.625-2.125-2.625-2.75s-2-0.125-3.125-0.625s-0.625-1.375-2.125-1.5s-1.625-1.25-2.375-2.5s-3.125-2.375-4.125-2.25
	s-1.375,1.375-1.875,1.875s-2.375,0.5-4.25,0.875s-4.375,2.25-7.125,2.375s-2.625-2.875-2.375-4.25s3.875-1.75,4.125-3.875
	s-3.25-0.25-4.625-1s-4.875-0.875-5-1.875S21.573,28.6,20.573,28.6s-2.375-1.25-3.125-2.625s1.25-2,1.375-3s2.875-0.625,3.875-1.375
	s0.75-4.625,0.875-5.25s4.191-0.582,4.191-0.582s-0.795-2.121-1.326-2.651c-0.531-0.527-1.502-0.796-2.209-0.973
	c-0.708-0.177-1.856-1.414-2.74-1.325c-0.884,0.088-3.182,0.088-3.801-0.619c-0.619-0.707-1.679-1.502-3.271-1.591
	c-1.591-0.089-2.298,1.062-3.358-0.619C9.998,6.311,8.054,4.013,7.523,3.927C6.992,3.836,4.518,3.572,5.197,2.853
	c-1.875,1.25-1.75,3.75-2.5,5.625s-1.375,2.625-2,4.625s0.375,1.5,1.125,3.625s-0.25,1-0.625,2.25s-0.125,5.25-0.125,5.25
	s0.875,2.625,1.375,3.125s2.5,2.75,2.5,2.75s-0.25,1.625,0.25,3.625s1.375,1.25,1.875,2.25s2.5,3.125,3.125,3.625
	s2,2.625,3.375,3.125s0.375,2.375,0.25,3.375c-0.125,1,1.375,3.25,1.875,4.25s0.75,0.25,1.25,1s1.875,1.75,2.75,2.25
	s1.75,0.625,1.75,0.625s1.25,1.125,2.125,1.75s2,0.875,2.75,1.125s2,3,2.625,3.625c0,0,2.75,1.125,3.375,1.25
	S34.073,60.6,34.948,60.475z"/>
</svg>
