<?xml version="1.0" encoding="utf-8"?>
<!-- Generator: Adobe Illustrator 16.0.4, SVG Export Plug-In . SVG Version: 6.00 Build 0)  -->
<!DOCTYPE svg PUBLIC "-//W3C//DTD SVG 1.1//EN" "http://www.w3.org/Graphics/SVG/1.1/DTD/svg11.dtd">
<svg version="1.1" id="Layer_1" xmlns="http://www.w3.org/2000/svg" xmlns:xlink="http://www.w3.org/1999/xlink" x="0px" y="0px"
	 width="59.781px" height="72.734px" viewBox="0 0 59.781 72.734" enable-background="new 0 0 59.781 72.734" xml:space="preserve">
<path id="Quebec" fill="#F39C12" stroke="#FFFFFF" stroke-miterlimit="10" d="M1.771,46.485c0,0,0.707-3.712,1.944-4.596
	c1.237-0.885,1.944-5.657,1.414-6.719c-0.53-1.061-1.414-1.414-0.707-3.004s0.354-4.243,2.122-3.712
	c1.768,0.53,3.535,0.354,3.889-0.884c0.354-1.238-0.177-1.238,0-2.298c0.177-1.061,1.061-1.414,1.768-1.591
	c0.707-0.177,1.237,0.354,0.707-2.122c-0.53-2.475,0-1.414-0.707-3.182c-0.707-1.768-0.177-0.708-0.884-2.298
	s-1.238-4.066,0.53-4.243c1.768-0.177-0.177-2.298,1.061-2.828c1.237-0.531,3.536,0.177,3.005-1.945
	c-0.53-2.121-3.182-6.364-1.415-6.541c1.768-0.176,4.282,0.726,4.282,0.726l6.25,0.375c0,0-0.625,2.375,1.25,2.625
	s2.125,1.375,2.75,1.75s1.625,1.25,1.375,1.75c-0.25,0.5-0.25,1-0.125,1.875s0.75,2.125,0.25,2.375c-0.5,0.25-1,1-0.875,2
	s0.5,2.5,0.5,2.5s1,1.375,2.25,0.75s0.875-1.125,2.5-1.875s1.625,0.875,2.625-0.75s0.875-1.875,1.125-2.5s1.5-2.25,2.5-1.75
	s-0.317,4.999,0.744,6.59c1.061,1.591,2.506-0.59,2.631,0.16s0.25,1.625,0.375,2.25s-0.75,1.125,0,2.125s0.875,1.25,0.75,2
	s0.375,1.375,0.375,1.375s1.375-1.25,2,0.25s0.125,2.375,1.25,2.375s2.375,1.75,2.375,1.75l0.5,2.625l2.875-2l2.75,0.875
	c0,0-3.812,1.75-3.062,3.562c0.75,1.812,4.625-2.125,4.562,0.312c-0.063,2.437-0.5,4.938-1.438,5.062s-2.438,0.938-2.562,1.5
	c-0.125,0.562-1.875,1.688-3,1.938s0.625,1.25-1.75,1.625s-3.125,0.25-3.625,0.25s-0.5,0.5-1.125,1.625s-0.125,1.5-0.75,2
	s2.25,0-1.625,0.875s-4.5,1.125-4.5,1.125s-0.25,0.375-1.5,0.375s-1.75-0.625-1.75-0.625s-0.25-0.625-2-0.625
	s-3.375,1.625-3.375,1.625s-0.5,0.625-1.5,0.75s-2.375,1.375-2.375,1.375s-1.375,0.375-1,1.875s1.75,2.877,2.625,1.877
	s2.25-5,4.125-4.625c1.875,0.375,4.375,1.125,3.875,3.875s-0.625,2.25-0.25,3.625s1.25,2.125,1.125,3.375s-1.25,0.875,0.125,2
	s2.875,2.875,3.375,1.25s1.125-2.75,1.75-2.5s2.375-0.5,1.125,2s-1,2.625-2.125,3.375s-1-1.25-3,1.75
	c0.031,0.301-1.825,1.008-2.355,0.832c-0.529-0.176-0.795-0.972-1.061-2.033c-0.266-1.061-1.502-0.883-3.094-0.971
	S31.558,65.489,32,63.544c0.441-1.944-3.078-4.022-4.051-4.199c-0.972-0.178-2.048-0.131-2.755,0.576s-1.503,0.972-1.856,1.236
	c-0.353,0.266,0.354,4.154,0.354,4.154s-0.177-0.177-1.768,0.795c-1.591,0.973-11.844,1.237-11.844,1.237
	c0-0.884,0-3.89-1.061-3.712c-1.061,0.177-0.884,0.707-1.591,0.177c-0.707-0.531-0.884-1.237-1.591-0.531
	c-0.708,0.708-0.354,2.298-1.061,2.122S3.007,63.632,2.3,63.809s-1.768,1.591-1.768,1.591s0.354-16.971,1.061-18.915L1.771,46.485
	L1.771,46.485z"/>
</svg>
