<?xml version="1.0" encoding="utf-8"?>
<!-- Generator: Adobe Illustrator 16.0.4, SVG Export Plug-In . SVG Version: 6.00 Build 0)  -->
<!DOCTYPE svg PUBLIC "-//W3C//DTD SVG 1.1//EN" "http://www.w3.org/Graphics/SVG/1.1/DTD/svg11.dtd">
<svg version="1.1" id="Layer_1" xmlns="http://www.w3.org/2000/svg" xmlns:xlink="http://www.w3.org/1999/xlink" x="0px" y="0px"
	 width="64.39px" height="75.988px" viewBox="0 0 64.39 75.988" enable-background="new 0 0 64.39 75.988" xml:space="preserve">
<path id="Scandinavia" fill="#2293AC" stroke="#FFFFFF" stroke-miterlimit="10" d="M61.855,52.321c-0.625-0.125-1.5-0.5-1.875-1.25
	s-1.25-1.625-1.875-1.375s-0.375,0.375-1.625,0.375s-1.875-1.75-2.875-1.125s-0.25,1-1.5,1.25s-2.625,0.375-3.875,0.375
	s-1-0.25-2.375,0s-2.375,1-2.875-0.25s-0.626-0.875-0.626-2.125s0.751-2.125,1.001-3.25s-0.5-2.25,0.375-3.375s1.5-1.375,1.875-2
	s0.75-1.375,0.875-2.25s0.125-0.625,0.125-1.5s-0.375-1.625-0.875-2s-0.375-0.375-1.5-0.5s-0.75-0.875-1.876,0.375
	c-1.125,1.25-2.125,1.375-2.25,2.375s0.5,1.375-0.125,2.625s-0.75,1.125-1,1.625s0.25,1.25-0.25,1.75s-0.875,0.5-1.75,1
	s-1.5,0.125-1.625,1.625s-0.375,1.125,0,2.125s0.625,1.125,0.875,1.875s0.75,1.125,0.75,2.625s0.375,2,0.375,2s0.5,1.75,0.375,2.625
	s-0.5,2.375-0.875,3.25s-0.75,1.375-1.375,2s-0.375,0.75-1.125,1.5s-1.625,1-2.25,1.375s-0.75,1.625-0.75,1.625v2.375
	c0,0,0.625,1.625-0.5,2.125s-1.375,0.625-2.125,1.75s0,2-0.875,2.75s-0.625,0.875-2.125,0.75s-1.75-0.125-2.25-0.75
	s-1.125-1.75-1.875-1.875c-0.75-0.125-0.625,0.125-1.125-0.125s-0.125-0.75-0.875-0.75s-1.125,0.5-1.125,0v-1.375v-4.625
	l-1.875-2.875l0.625-1.625l-0.75-1.25l-0.875-0.5c0,0-1.375,0.5-1.5,1s-0.125,0.875-0.375,1.375s-1.375,2-2.25,2.125s-2,0.25-2,0.25
	s-0.375,1-1.125,0.625s-0.5-0.25-1.375-1.25s-1.125-2.125-1.125-2.625s0.25-0.625-0.375-1.125s-0.625-0.5-1.25-1.125
	s-1.5-1.125-1.375-2.25s0.375-2.25,0.625-3.375s-0.375-2.25-0.375-2.25l-0.475-0.909c-0.53-1.062,0-0.884-0.886-1.768
	c-0.884-0.884-1.591-1.237-1.061-2.652c0.53-1.414-0.354-2.298,1.061-2.651c1.415-0.353,1.237,1.592,1.593-0.884
	c0.354-2.475-0.707-1.768,0.707-3.358c1.414-1.591,1.591-1.945,1.591-1.945s0.884,0,1.235,1.238
	c0.354,1.237,0.354,2.298,1.062,1.415c0.707-0.885,0.885-1.944,1.415-2.652c0.53-0.707,1.414-1.591,1.414-1.591
	s-1.591-2.651,0.354-2.475c1.945,0.176,1.944,0.53,2.477-0.177c0.528-0.708,0.354-0.708,1.591-1.061s1.414-0.177,1.591-1.237
	c0.177-1.06,0.707-1.061,1.415-1.768c0.707-0.708,0.707-1.061,0.884-2.475c0.179-1.414-0.177-1.237,1.414-3.359
	c1.591-2.121,1.591-1.944,2.121-3.358c0.529-1.415,0.529-1.238,1.062-2.122c0.529-0.884,1.235-0.53,1.769-1.237
	s0.707-1.591,0.707-1.591l0.884-1.591c0,0-1.769-0.707-0.177-1.414s1.769-0.884,3.006-1.237c1.236-0.353,2.121-0.354,2.121-0.354
	s1.148,1.679,1.326,0.442c0.176-1.238-0.531-1.415,0.529-2.21s1.68-0.707,2.03-0.442C36.219,7.911,36.043,8.176,36.84,8
	c0.795-0.176,1.68,0.884,1.941-0.354c0.268-1.237-1.146-2.209,0.529-2.917c1.681-0.707,2.563-0.088,3.095-0.619
	c0.531-0.531-0.265-0.795,0.796-1.326c1.062-0.531,1.414-0.265,2.477-0.619c1.062-0.354,1.147-1.502,1.681-1.591
	c0.529-0.089,1.236,0,1.77,0.53c0.529,0.53-0.975,0.972,1.147,0.619c2.121-0.354,4.949-1.68,5.745-1.061
	c0.795,0.619,0.088,1.679,1.147,1.679c1.061,0,2.121-0.442,2.65-0.088s0.44,0.619,1.236,0.972c0,0,0.926,3.968,0.301,4.468
	s0.75,3.625,0,4.125s-1.125,6.25-1.125,8.875s1.375,6.75,1,8.875s0.625,5.125,0.625,5.125s0.625,0.625,0.625,2.25
	s0.875,2.5,0.875,2.5s0.438,0.125,0.5,0.688c0.062,0.562,0.062,1.438-0.188,1.688s-0.812,0.688-0.812,1.625s0.25,1.312-0.062,1.75
	c-0.312,0.438-0.562,0.562-0.688,1.625s-0.312,2.5-0.062,3.062C62.293,50.443,62.73,52.571,61.855,52.321z"/>
</svg>
