<?xml version="1.0" encoding="utf-8"?>
<!-- Generator: Adobe Illustrator 16.0.4, SVG Export Plug-In . SVG Version: 6.00 Build 0)  -->
<!DOCTYPE svg PUBLIC "-//W3C//DTD SVG 1.1//EN" "http://www.w3.org/Graphics/SVG/1.1/DTD/svg11.dtd">
<svg version="1.1" id="Layer_1" xmlns="http://www.w3.org/2000/svg" xmlns:xlink="http://www.w3.org/1999/xlink" x="0px" y="0px"
	 width="53.968px" height="73.694px" viewBox="0 0 53.968 73.694" enable-background="new 0 0 53.968 73.694" xml:space="preserve">
<path id="Siam" fill="#27AE60" stroke="#FFFFFF" stroke-miterlimit="10" d="M44.705,17.083c-1.875-0.375,0.375-1.875-3.25-2.375
	s-3.375,9.125-3.125,10.125s1.25,1.5,3.5,1.25s1.75,0,2.25,2.25s-0.25,4-0.25,4s0.75-0.25,2-0.75s3,0.75,3.75,4.25s1,3.5,2.25,5.5
	s1,3,1.5,5.75s-0.5,6-0.75,7.75s-3.5,5.25-3.5,6.25s-3.25,3.5-3.5,4.5s-1.5-0.75-1.5-0.75s-1.25-3.5-1.75-4.5s-1.25-1.5-1.25-1.5
	l0.25-2.25c0,0-1.25-0.75-2.25-0.75s-1-1-1-1l-2.25-1.75c0,0-0.25-0.25-1.5-0.5s-1,0-1.25,1s-0.75,1-2,2.25s0.5,0.75,1.75,2
	s0.75,0.75,0.75,2.75s0,2.75,1.75,7.5s1.5,1.75,1.5,1.75s0.5,0.75,0.5,2s-1,1.25-1,1.25s-1.75,0.25-3.25,0s-0.5-0.5-3-3.75
	s-2.5-3.5-3.5-4.25s0.25-1.75,0-3s0-3-0.75-4s-0.75-1.5-1.25-3.25c-0.5-1.75,0-3.25,0.25-4.75c0.25-1.5-1.25-1.75-1.5-3.75
	s-0.5-1.75-0.5-1.75s-4.5-2.75-5.25-1.75s-2-2-2-2s-3.25,1-3.5-0.5s-6.75-8.25-7-10s-0.25-3.5-1.5-3.75s-2.125-3-2.125-3
	L0.58,21.458c-0.273-3.373,0.214-3.615,0.518-3.906c0.925-0.076,1.386,0.076,1.614-0.922c0.229-1,0.999-1.998,1.537-2.23
	c0.538-0.229,0.69-2.61,0.69-2.61l1.77-0.615c0,0,0.461-3.92,1.151-4.608C8.551,5.873,9.55,4.028,9.55,4.028
	c0.69-0.922,1.076-0.385,1.076-0.385l1.229-0.922c0,0,0.689-1.152,0.999-1.691c0.309-0.537,0.461-0.614,0.999-0.461
	c0.536,0.152,0.846,1.076,1.612,1.461c0.771,0.385,1.151,0.537,1.537,0.846c0.385,0.309,0.538,1.768,0.846,2.689
	c0.31,0.922,0.538,0.689,1.461,1.229c0.924,0.538,0.386,0.689,0.31,0.999c-0.077,0.31,1.384,2.308,2.151,2.229
	c0.77-0.076,2.229,2,2.768,2.611c0.539,0.615,2.306,0.848,3.304,0.692c1-0.155,0.693-1.464,0.693-1.925s0.688-1.922,1.074-1.998
	c0.385-0.074,2.307,0,3.148-0.151c0.848-0.151,0.463-0.688,0.463-0.688s1.074-0.922,1.152-1.387
	c0.076-0.461,0.768-0.998,1.074-1.229c0.309-0.229,1.076-0.076,1.461,0s1,1.229,1,1.229s1.461,0.154,1.844,0.154
	c0.385,0,0.691,0.771,0.691,1.537v1.46c0,0.536,0.846,0.612,0.846,0.612s0.539,0.078,0.691,0.539s0.152,0.613,0.613,0.613
	s0.461,0.846,0.461,0.846s1.537,1.386,0.924,1.691C43.371,14.936,44.705,17.083,44.705,17.083z"/>
</svg>
