<?xml version="1.0" encoding="utf-8"?>
<!-- Generator: Adobe Illustrator 16.0.4, SVG Export Plug-In . SVG Version: 6.00 Build 0)  -->
<!DOCTYPE svg PUBLIC "-//W3C//DTD SVG 1.1//EN" "http://www.w3.org/Graphics/SVG/1.1/DTD/svg11.dtd">
<svg version="1.1" id="Layer_1" xmlns="http://www.w3.org/2000/svg" xmlns:xlink="http://www.w3.org/1999/xlink" x="0px" y="0px"
	 width="86.039px" height="150.701px" viewBox="0 0 86.039 150.701" enable-background="new 0 0 86.039 150.701"
	 xml:space="preserve">
<path id="Siberia" fill="#27AE60" stroke="#FFFFFF" stroke-miterlimit="10" d="M9.847,48.61c0.625,1.75,1.125,0.75,2.25,0
	s0.25-0.625,0.375-2.125s-0.375-1.25-1-2s-0.375-0.125-2-0.125s-1.125,0.25-2.25,0.375s-0.75,0-2.625-0.375
	s-1.125-1.375-1.125-2.125s-0.5-2.125-0.5-2.125s-1-0.375-1.5-1.375s0-1.125,0.125-1.625s0.25-1.125,0.125-2.625s-0.5-0.5-1-1.25
	s0-1.25,0-1.25l1-1l1.75,0.625l1.125,0.375l2.25,0.75c0,0,0.125,0.25,2.125,2.5s1,0.25,2.5,0.375s1.125-0.625,1.125-0.625
	s-2-1-2-1.5s0.5-1.25,0.5-1.875s-0.125-2-0.375-2.5s-1-0.875-1.5-1.375s-1.25-1.875-1.25-1.875s-0.375-0.75,0.5-3.25
	s1.125,0.875,1.125,0.875l0.75,0.375l1.5,1.25c0,0,1.25-0.25,2-0.5s1.875,1.75,1.875,1.75s2.25,0.25,2.75,0.25s1.5-1.375,1.5-2.375
	s-2-0.125-2-0.125l-3-0.625c0,0-3.875-1.125-4.625-2.125s0.125-1.5,0.125-1.5l2-2.5c0,0,1.375-1.375,2-1.375h3.25
	c0,0,0.875-2.125,1-3.75s2.25-0.5,2.25-0.5s1.625-0.5,2-1s2.5-2,5.875-4s3.375-1.125,4.875-1.25s2.875-0.125,3.375-0.375
	s2.125-1.375,2.625-1.625s3-1.5,3-0.875s0.25,2,0.5,2.5s1.625-0.625,3.25-1.875s1.125-1,1.875-2.125s1.5-0.375,2.625-0.25
	s0.75,1.875,0.875,2.625s2,2.125,3.125,2.875s4.25-3.75,4.75-1.375s3.25,3.25,3.25,4s-1.25,2.25-2.125,3s-1.625,1.625-2.125,2.75
	s0,0.75,0,1.75s-0.75,0.25-1.875,1s-1.125,1-2,2s-1.375,0.5-2.25,0.875s-0.625,1.5-0.875,2.375s0.5,0.75,0.5,0.75
	s1.25-0.875,1.875-1.25s3-1.625,3.625-2s2.25-1.75,3.625-3.25s3.25-0.75,4.25-1s1.625,0.375,1.625,0.375s1.25,0.125,2.375-0.5
	s4-1.25,4.625-1.25s2.25,0.25,3.125,1s2.375,1.75,3.25,2.375l1.438-0.062l0.312,2.562c0,0.5-0.125,2,1,3.125s1.5,0.625,2,1.125
	s-0.125,3.75-0.25,4.5s-0.625,0.75-1.125,1.625s-0.125,1.375-0.5,2.875s-0.875,0.875-1.25,2.375s0,1.375,0.5,2.375
	s0.5,1.875,0.5,3.375s-0.25,0.625-0.875,0.75s-1.25,0.625-2.5,0.75s-2.625,0.625-3.25-0.125s-1.25-0.875-3.5-0.625s-0.625,1-0.875,2
	s-1,0.875-2.5,1.125s-1,0.375-1.125,2s1.75,2.625,2.75,3s1.25,0.625,1.625,1.25s1.5,0.375,3,1.75s0.25,1.625-0.75,2.625
	s0.625,4.5,1.375,5s1.125,1.25,1.5,4.25s1.5,3.25,1.5,3.25s0.875,0.5,1,3.625c0.125,3.125,0.875,5.75,0.875,5.75
	s-4.122,7.656-2.894,11.039c1.229,3.381,2.769,9.53,0.923,11.683c-1.847,2.151-2.77,2.151-3.382,0.922
	c-0.615-1.229,0.307-1.537-1.847-1.845c-2.15-0.307-1.845,0.615-3.382,0.922s-2.152,1.845-3.383,0.615
	c-1.229-1.23,0-1.539-1.845-0.924c-1.847,0.615-0.924,2.768-3.229,3.229c-2.307,0.461-1.998-0.308-2.92,1.229
	c-0.923,1.537-1.385,1.998-1.691,2.767c-0.307,0.768-0.922,0.614-0.308,1.999c0.614,1.383,2.151-0.615,1.999,2.152
	c-0.154,2.767-0.462,4.457-0.462,4.457s-1.076-0.769-1.076,1.076c0,1.846,0.771,1.691,0.462,3.229
	c-0.308,1.537-1.076,0.615-0.614,2.459c0.462,1.845,1.69,1.845,1.69,1.845s0.307-1.845,0.922-0.308s-0.151,2.459,0.922,2.92
	c1.076,0.461,0,0.309,1.69,0.923c0,0,0.69,0,1,0.922c0.308,0.922,1.152,2.383,0.308,3.536c-0.845,1.152-1.537,3.305-0.614,5.38
	c0.924,2.075,2.536,2.306,2.384,3.536s-0.384,0.922-0.538,2.613c-0.152,1.69,0.153,2.767-0.229,3.457
	c-0.384,0.692-0.613,1.846-1.151,2.076c-0.537,0.23-1.385-0.308-1.923-0.615c-0.536-0.309-0.151-1.998-1.074-1.308
	c-0.922,0.692-1.075,1.614-1.847,1.153c-0.769-0.461-0.689-1.229-1.384-1.383c-0.689-0.154-2.075,0.308-1.383-1
	c0.69-1.307,1.537-1.537,1.613-2.383s0.462-1.613,0-2.535s-0.771-1.922-1.536-2.075c-0.771-0.154-0.771-0.615-1.691-1.46
	c-0.922-0.846-0.999-1.922-1.689-1.691s-1.845,2.075-3.458,1.768c-1.613-0.307-2.229,0.385-2.769-0.69
	c-0.538-1.076-0.77-1.46-1.384-1.614c-0.615-0.154-0.923-0.229-0.77-0.922c0.151-0.691,0.229-0.384,0.229-1.613
	c0-1.23,0.077-3.92-0.846-5.228s-0.923-1.384-0.923-1.845s0.462-0.692-0.31-1c-0.769-0.307-1.922-2.383-2.15-3.15
	c-0.229-0.768-1.385-0.77-1.77-0.77s-1.307-2.537-1.307-2.537s-3.921,0.078-3.844-0.844c0.075-0.922,0.538-1.846,0.613-2.229
	c0.076-0.384,0.691-2.767,0.076-3.612c-0.614-0.846-1.688-1.613-2.307-1.691c-0.614-0.076-1.689-0.383-2.307,0.539
	c-0.615,0.922-1.152,1.537-1.461,1.383c-0.308-0.154-0.771-0.077-0.923-0.922c-0.151-0.846-0.538-2.998,0.615-4.611
	c1.151-1.613,0.771,0.538,1.46-0.23c0.69-0.77,1.075-2.229,1.075-2.998s-0.461-1.537,0.538-2.537
	c0.999-0.998,1.769-0.691,2.229-1.613s1.229-1.076,0.69-1.921c-0.537-0.845-1.384-1.614-1.461-2.69
	c-0.076-1.076,0.309-0.998-0.384-1.691c-0.691-0.691-1.229-0.998-1.309-1.768c-0.076-0.769,1.384-0.461-0.076-1.307
	s-1.922-0.23-1.689-1.614c0.229-1.383,0-2.536,0.461-3.305c0.462-0.769-0.308-3.229-0.614-3.613
	c-0.308-0.384-1.075-0.999-1.46-1.536c-0.386-0.539-0.309-1.846-0.614-2.076c-0.309-0.229-1.46-1.152-1.77-1.613
	c-0.308-0.461-0.308-0.692-0.614-1.461c-0.308-0.767-1.537-1.306-1.846-1.69c-0.307-0.384-2.688-0.999-2.844-1.383
	c-0.153-0.385-0.229-1.307-0.076-2.075c0.153-0.769,0.385-1.922,0.153-2.844c-0.23-0.922-0.31-1.844-0.385-3.151
	c-0.077-1.307-0.614-1.922-1.613-1.922s-1.461,0.461-1.537,0c-0.077-0.461-0.615-2.075-0.615-2.459c0-0.384-1.384-3.997-1.688-4.227
	c-0.31-0.23-0.31-0.308-1.152-1.076c-0.845-0.768-1.46-1.383-2.075-1.46c-0.614-0.077-0.998-0.769-1.075-1.538
	C9.941,50.689,9.713,48.769,9.847,48.61z"/>
</svg>
