<?xml version="1.0" encoding="utf-8"?>
<!-- Generator: Adobe Illustrator 16.0.4, SVG Export Plug-In . SVG Version: 6.00 Build 0)  -->
<!DOCTYPE svg PUBLIC "-//W3C//DTD SVG 1.1//EN" "http://www.w3.org/Graphics/SVG/1.1/DTD/svg11.dtd">
<svg version="1.1" id="Layer_1" xmlns="http://www.w3.org/2000/svg" xmlns:xlink="http://www.w3.org/1999/xlink" x="0px" y="0px"
	 width="78.427px" height="100.481px" viewBox="0 0 78.427 100.481" enable-background="new 0 0 78.427 100.481"
	 xml:space="preserve">
<path id="SouthAfrica" fill="#D35400" stroke="#FFFFFF" stroke-miterlimit="10" d="M2.031,1.561c0.625,0.875,2.875-1,3.625-0.375
	s2.75,2,3.5,2.375s4.875-0.25,5.876,0.5c1,0.75,1.75,0.375,1.75,0.375s-0.625,4.25,0,4.875s2.125,1.375,3,0.125s7.375-2,7.75-1
	s-0.625,3,0.625,4s2.125,1.75,2,2.75s-1.375,2-0.875,3.375s1.875,1.875,3.375,1.75s1.375,1,2.625,1.25s6.125,0.25,6.625,0.625
	s1.75,1.25,2.125,1.875s1.75,2.875,2.625,2s1.875-5.5,0.5-6s-2.25-0.5-2.25-2s0.75-4.125,1.25-4.125s1.125-0.625,1.125-0.625
	s3.875,0,2.625-1c0.625-0.25,2.375-0.625,2.625,0.25s-0.25,2.5,0.75,2.5s2.125,1.5,2.5,2.25s1.375,0.625,1.75,2.375
	s0.875,1.5,0.25,2.625s-0.75,1.25-0.375,2.5s2,3.375,1.5,4.875s-1.25,3.5-0.5,4.75s2.75,3.25,3.375,2.75s1.5-1,1.5-2.25
	s-0.375-3.375,0-4.375s1.625,0.75,0.75-2.125s-1.5-2.75-0.375-4.25s2.125-1.375,3.375-1.75s1.875-0.5,1.875-0.5
	s1.5-1.375,2.625-1.375s2.75-1.625,2.75-1.625l-0.25-0.5c0,0,2.875-0.875,2.375,0.125s0.875,4.625,0.875,4.625
	s0.125,0.75,0.375,1.75s0.125,1.125,0.25,2.125s-0.375,1.5-0.5,2.25s0.125,1.375,0.25,2.375s-0.625,3.25-0.875,3.875
	s-1,0.625-1.5,1.125s-0.625,1.25-1.75,2.375s-0.875,1.125-1.625,2.25s-0.125,0.5-1.25,2.25s-0.625,0.5-1.75,0.875
	s-1.75,1.625-2.25,1.75s-1.875,1.375-2.625,6c-0.75,4.625,0.75,5.5,0.375,6.375s-2.75,4.25-3.125,5.25s-0.75,0.875-1.875,1.375
	s-0.75,2.5-0.75,3.25s-0.75,3.25-2.125,4.5s-0.125,1.125,0.25,1.625s0.375,1.125,0.125,2.75s-1.625,0.75-2.375,1.25
	s-3.125,3.25-2.875,4.25s1.25,0.875,1.25,0.875s-1.625,1.75-3.125,3.625s0.125,1.125,0.5,2.375s-0.875,0.25-1.625,0.25
	s-0.875,0.375-1.625,1s-1.25,0.5-4.75,1.25s-1.375,1.25-3.125,2.5s-1.625,1.625-6.5,1.625s-3.25,0.5-4.125,0.875
	s-1.5,0.375-2.5,0.375s-1.75,0.5-2.375,0.875s-1.125,1.375-1.125,1.375s-0.5-0.25-1-1.125s-1.625-0.5-2.5-0.625s-1-0.25-1.875-1.375
	s0.25-1.5,0.25-2.125s-0.75-2.625-0.75-3.625v-2.75c0-1.25-0.125-1.25-0.125-2.625s0-1.5-0.375-2.25s-1.375-1.625-1.626-3
	c-0.25-1.375,0-1.875,0-3s-1.25-0.5-1.5-1s-0.875-1-1.375-2.5s0.125-1.375,0.125-2.625v-2.375c0-1-0.75-1.375-1-2
	s-1.75-3.25-1.875-4.125s-0.25-1.375-0.25-2.5s0.125-1,0.25-1.875s-0.625-1.375-0.625-2s-3.25-3.75-3.25-3.75s-0.375-0.25-0.5-1
	s-0.75-1.25-1.875-2.625c-1.125-1.375-0.625-1.375-0.5-2.375s-0.125-2-0.25-2.625s-1.375-3.375-1.375-3.375s-0.125-1.25,0.125-2.25
	s0.625-1.25,0.75-2.75s0-1.125,0.125-2s0.25-0.875,0.625-1.625s1-1.375,1-2.5s0.75-2.125,1-2.625s0.75-1,1.5-2.125
	s-0.375-0.75-0.25-1.75s-0.125-1.75-0.25-2.5s-2-3.125-2.5-4.5s1.75-2.75,3.5-5.5h0.062C8.22,7.498,2.031,2.748,2.031,1.561z"/>
</svg>
