<?xml version="1.0" encoding="utf-8"?>
<!-- Generator: Adobe Illustrator 16.0.4, SVG Export Plug-In . SVG Version: 6.00 Build 0)  -->
<!DOCTYPE svg PUBLIC "-//W3C//DTD SVG 1.1//EN" "http://www.w3.org/Graphics/SVG/1.1/DTD/svg11.dtd">
<svg version="1.1" id="Layer_1" xmlns="http://www.w3.org/2000/svg" xmlns:xlink="http://www.w3.org/1999/xlink" x="0px" y="0px"
	 width="65.398px" height="71.688px" viewBox="0 0 65.398 71.688" enable-background="new 0 0 65.398 71.688" xml:space="preserve">
<path id="SouthernEurope" fill="#2293AC" stroke="#FFFFFF" stroke-miterlimit="10" d="M51.273,2.129
	c0.25-0.062,0.5-0.812,0.75-1.188s1.188-0.438,1.188-0.438s1.625-0.062,2.312,0.375s0.25,0.75,0.312,2.062s0.062,1.062,0.25,1.688
	s0.5,0.375,1.625,0.688s0.75,0.188,1.625,0.312s0.688,0.75,1.125,1.688s0.5,1.625,0.938,2.438s0.438,1.312,0.438,1.562
	s-0.311,1.5-0.375,2.188c-0.061,0.688-0.375,0.812-0.5,1.125s-0.061,1.188-0.061,1.5s0.438,0.75,0.811,1.188
	c0.375,0.438,0.375,0.812,0.375,1.5s-0.561,1.75-0.561,2.375s0.938,1.062,0.811,1.625c-0.125,0.563,2.189,2.25,2.189,2.25
	s-1.125,0.75-0.625,1.5s1.125,1.375,0.875,1.875s-0.125,0.5-0.75,1s-1,0.375-1,1.5s0.875,1.375,0.25,2.375S62.9,34.192,62.4,34.941
	c-0.5,0.75-0.75,1.375-1,2.125s0.5,0.875-0.375,1.625s-1.125,0.375-1.375,1.25s0.125,0.875-0.375,1.5s-0.5,1-1,1.375
	s-0.5,0.25-1.125,1s-0.125,1.125-0.625,1.75s-0.875,0.125-1.125,1s0,0.5,0.125,1.375s0.75,0.875,0,1.875s-1.125,1.625-1.625,2
	s-0.5-0.125-0.875,1s0.25,1.5-0.5,1.75s-1.125,0.25-1.875,0.375s-1.125-0.125-1.625,0s-0.75,0-1.125,0.625s-0.75,0.5-0.25,1.25
	s0.375,0.75,0.875,1.25l1.375,1.375c0.5,0.5,0.875,0.75,1,1.375s0.125,1.125,0.125,1.125s0.625,1.875,0.125,2.125s-1,0.25-1.125,1
	s-0.25,0.5,0,1.375s0,0.875,0.5,1.375s0.625,0.5,1.375,1.25s1.625,0.875,1.125,1.5s-1.125,0.75-1.875,0.5s-1.125,0.375-1.625-0.75
	s-0.75-1.375-0.75-1.375s-0.75,0.125-0.75,0.75s1.875,0.75-0.5,0.75s-2.125,0.75-2.75,0s-0.125-1-1-1.25s-1,0.5-1.375-0.25
	s-0.5-0.75-0.5-1.875s0.625-1.125,0.25-2.625s-0.625-1.125-0.875-2s0-0.875,0-2s-0.377-1.625-0.377-1.625s-0.375-0.25-0.625-1.5
	s-0.125-1.375-0.375-2.5s-0.125-1.5-0.75-1.5s-0.25,0.5-1.25-0.25s-0.5-1-1.375-1.375s-1,0.375-1.25-0.875s-0.25-0.625-0.25-2.125
	v-2.625c0-0.625,0.5-0.625-0.25-1.625s-0.625-1.25-1.5-1.375c-0.875-0.125-0.625,0.875-1.375-0.375s-0.875-2-1.875-2.25
	s-0.875,0.375-1.375-0.25s-0.25-0.75-0.875-1.375s0.125-0.875-1.5-0.875s-1.625-0.875-2.5-0.5c-0.875,0.375-1.125,1-1.125,1.625
	s0,0.625,0.125,1.5s-0.125,1.375,0.5,1.5c0.625,0.125,0.625-0.5,0.75,0.625s-0.125,2.25,1.375,1.625s2.375-1.5,2.5-0.75
	s-0.125,0.875,0.125,1.875s0,1.875,0.875,2.5s1.25,0.625,1.625,1.125s0.25,0.375,0.75,0.625s0.5,1.375,1.125,2.25
	c0.625,0.875,1.375,0.125,1,1.25s-0.375,1.625-0.875,2c-0.5,0.375-1.625,0.75-2.375,0.125s-1.375-1.125-1.375-1.125
	s0.625-1.25-0.875-0.875s-1.5,0.5-2.125,0.5s-1-1-0.75,0.375s1.25,1.875,1.25,1.875s1.125,0,1,1.25s0.375,0.875-0.25,2.125
	s-0.5,1-1,2.125s0,1.125-0.625,2s-0.875,1.375-1.75,1.75c-0.875,0.375-0.875-0.375-1.25,1s-0.25,1.375-0.875,1.625
	s-2,0.25-2.5,0.625s0.375,0.875-1,0.5s-1-0.375-1.625-0.5s-0.875-0.125-1.375-0.75s-0.125-1.75-0.625-1.375s-0.875,1.75-1.375,0.375
	s-0.375-1.5-0.875-1.75s-0.75,1.25-0.875-0.375s-0.375-1.625,0.375-2.375s1-1,1.625-1s0.75,0.125,1.5,0.25s0.625,0.75,1.25,0.875
	s2.5-1,2.75-0.25s-0.25,3,0.375,1s0.25-2.375,1.125-3.125s1.75-1.5,2.125-2s0.75-1.25-0.125-2.125s-1.125,0-1.125-1.625
	s0.25-2-0.25-2.875s0-0.625-1-1.125s-1-0.75-1.5-1.375s-1.375-1.125-2.25-1.375s-0.25,0.375-1.125-1s-1.125-1.75-1.875-1.625
	s-0.375,1.125-1.125,0.25s-0.5-1-1-1.375s-0.75,0-1.375-0.5s-0.625-0.5-0.75-1.5s0.125-1.375-0.5-1.875s-1.875-0.875-1.875-0.875
	s0.25-0.25-1.375,0s-1.75,0.25-2.25,0.625c0,0,2.424-0.852,0.833-2.266c-1.591-1.414-2.298-3.182-1.591-3.359
	s1.591-0.884,1.768-1.591c0.178-0.707,0.442-2.122,0.089-2.563c-0.353-0.441-2.21-1.679-2.21-1.679s-1.061-0.884-0.884-1.237
	c0.177-0.353,1.062-1.326,1.062-1.326s1.061,0.177,1.061-1.326c0-1.503,0-2.298-0.354-3.182c-0.354-0.884-0.441-1.591,0.177-2.209
	c0.619-0.619,1.326-1.591,1.503-1.944c0.177-0.354,0.177-0.973,1.325-0.796c1.147,0.177,1.415-0.088,2.21-0.442
	c0.796-0.354,1.591-1.326,1.591-1.326s1.326-0.177,1.326,0.265s0.884,3.005,1.768,2.652c0.884-0.353,2.563-0.795,3.359-1.238
	c0.795-0.442,0.707-0.884,1.768-0.795c1.062,0.089,1.237,0.265,2.389-0.088c1.146-0.354,1.768-0.442,2.298-1.149
	c0.528-0.707,2.386-2.298,2.386-3.182V8.878c0,0,3.801-0.53,4.686-0.619c0.887-0.088,1.77-0.088,2.3-0.442
	c0.528-0.354,0.528-1.061,0.972-1.149c0.442-0.088,1.856,0.177,1.856,0.177s0,0.265,0.441,0.354
	c0.441,0.088,1.324,1.061,1.146,1.856c-0.178,0.795-0.705,1.679-0.885,2.033c-0.178,0.354-0.617,1.503-0.527,1.856
	c0.088,0.354,1.061,1.768,1.061,1.768v3.889h9.191c0,0,0.707-1.502,0.619-2.21c-0.092-0.707-0.887-1.768-0.887-2.121
	s0.18-3.182,0.18-3.182s0.527-2.917,1.854-3.801c1.326-0.884,2.123-1.237,2.211-1.679s0.268-1.326,0.707-1.502
	c0.441-0.177,1.148-0.884,1.148-0.884S50.578,3.22,51.273,2.129z"/>
</svg>
