<?xml version="1.0" encoding="utf-8"?>
<!-- Generator: Adobe Illustrator 16.0.4, SVG Export Plug-In . SVG Version: 6.00 Build 0)  -->
<!DOCTYPE svg PUBLIC "-//W3C//DTD SVG 1.1//EN" "http://www.w3.org/Graphics/SVG/1.1/DTD/svg11.dtd">
<svg version="1.1" id="Layer_1" xmlns="http://www.w3.org/2000/svg" xmlns:xlink="http://www.w3.org/1999/xlink" x="0px" y="0px"
	 width="106.081px" height="161.519px" viewBox="0 0 106.081 161.519" enable-background="new 0 0 106.081 161.519"
	 xml:space="preserve">
<path id="Ukraine" fill="#2293AC" stroke="#FFFFFF" stroke-miterlimit="10" d="M19.092,1.685c-1.236-0.088-2.121-0.354-2.121-0.354
	s0.926,3.968,0.301,4.468s0.75,3.625,0,4.125s-1.125,6.25-1.125,8.875s1.375,6.75,1,8.875s0.625,5.125,0.625,5.125
	s0.625,0.625,0.625,2.25s0.875,2.5,0.875,2.5s0.438,0.125,0.5,0.688c0.062,0.563,0.062,1.438-0.188,1.688s-0.812,0.688-0.812,1.625
	s0.25,1.312-0.062,1.75c-0.312,0.438-0.562,0.562-0.688,1.625s-0.312,2.5-0.062,3.062s0.688,2.687-0.188,2.437s1,0.375,1.5,0.75
	s-1.125,1.125-2,1.375s-1.625,0.25-2.875,0.125s-0.875-0.375-1.875-0.25s-3.125,0.75-4.25,0.5s-1.75-0.125-2.5,0.375
	s-0.25,1.5-0.25,2.625s0.75,0.375,0.875,1.625s0.375,1,0.75,1.75s1,0.125,1,0.125s2.125,1.75,1.875,2.875s0.5,1.875,0.5,2.875
	s-1.125,0.25-2.75,0.125s-0.625-0.875-1.25-2.625s-0.5-0.625-1.5-1s-1,0.25-1.25,1.375s-0.375,1.25-1.25,2s-0.125,1.375-0.375,2.5
	s-0.625,1-1.375,1.875s0.25,1.375,0.625,2.625s0.875,1.75,0.875,1.75c0.5,0.5,0.375,1,0.375,1.75s-0.5,1.125-1,1.5l1.25,0.125
	c0,0,1.062,0.938,1.125,1.25c0.062,0.312,1.188,1.25,1.188,1.25s2.5,1.375,3.375,1.375s1.875-0.562,2.375-0.625
	c0.5-0.063-0.062,0.875-0.062,1.188c0,0.313,0.688,3.25,1,3.875c0.312,0.625,0.375,8.062,0.438,9.438s1.375,2.75,1.75,3.062
	c0.375,0.312,0.625,1.062,0.625,1.375c0,0.313-0.812,1.375-0.875,1.812c-0.062,0.438,0.125,1.188,0.062,1.75
	c-0.063,0.562-0.5,0.812-1,1.25s-0.375,1.438-0.688,2.062c-0.312,0.623-0.812,0.625-1.438,0.875s-2.312,3.625-2.5,4
	c-0.188,0.375-1.938,1-2.5,1c-0.562,0-2.062,0.438-2.25,0.938c-0.188,0.5-0.188,1.5-0.188,1.5l2.312,2.188
	c0.25-0.062,0.5-0.812,0.75-1.188s1.188-0.438,1.188-0.438s1.625-0.062,2.312,0.375c0.687,0.437,0.25,0.75,0.312,2.062
	c0.062,1.312,0.062,1.062,0.25,1.688c0.188,0.625,0.5,0.375,1.625,0.688s0.75,0.188,1.625,0.312c0.875,0.123,0.688,0.75,1.125,1.688
	c0.438,0.938,0.5,1.625,0.938,2.438c0.438,0.813,0.438,1.312,0.438,1.562s-0.312,1.5-0.375,2.188
	c-0.062,0.688-0.375,0.812-0.5,1.125c-0.125,0.313-0.062,1.188-0.062,1.5c0,0.312,0.438,0.75,0.812,1.188
	c0.372,0.438,0.375,0.812,0.375,1.5s-0.562,1.75-0.562,2.375s0.938,1.062,0.812,1.625c-0.128,0.563,2.188,2.25,2.188,2.25l1-0.75
	c0,0,1-0.125,1.75-0.875s0.5-1.125,0.5-1.125s0.25-2.375,0.625-2.875s0.875-0.25,2.5-0.625s1,0,1.75,0s1.25,0.5,2,0.75
	s0.625,0.75,0.875,1.75s0.5,1.625,0.625,2.5s0.125,1,0.5,1.875s0.75,0.75,1.75,1.375s0.375,0.5,1.875,1.25s0.75-1.125,1.25-2
	s0.75-0.875,1.25-1.125s0.875-0.5,1.5-1s0.375-0.5,0.75-1.375s-0.125-1.25-0.375-1.75s-0.75,0.125-1.375,0.125s-1.375-0.75-2-1.5
	s-0.125-1-0.125-1s0.875-1,1.75-1.625s0.75-0.5,1.5-0.75s1.25-0.25,1.875-0.5s1.125-0.375,2.375-0.625s0.75,0,2.125,0
	s1.625-0.25,1.625-0.25s0.375-0.5,1-0.875s0.875-0.125,1.25,0.375s-0.25,1.25-0.25,1.25l-1.5,1.5c-0.875,0.875-1,0.375-2.625,0.625
	s-0.5,0.25-0.625,1.125s-0.75,1.625-0.75,1.625l-0.5,1.25l0.875,0.5c0,0,0.375,0.75,0.625,1.75s0.75,0.375,1.375,0.625
	s-0.125,1-0.125,1.75s1.125,1.375,1.75,2s0.375,0.875,1,2s0.5-0.375,1-0.625s0.75-0.25,1.875-0.375s1.25,0.125,1.25,0.125
	l-0.625,1.5c0,0,0.75,0.5,1.625,1.375s0.25,1.625,1.375,1.625s0.75,0.5,1.25,0.875s1,1,1.875,1.75s0.75,0.5,1.5,0.625
	s0.375,0.125,0.75,3s0.75,0.25,0.75,0.25s-0.25,0.75-0.625,1.25s-0.875,0.75-1.375,1.25s-1.125,1-1.125,1.5s0.625,0.5,2,1.5
	s1.375-0.5,1.375-0.5s0.625-0.375,2.25-0.25s1.375-0.375,1.375-0.375s0.75-0.875,1.75-1s0.875,0,1.75-0.125s0.875-0.5,1.5-1
	s1.25-0.125,1.875-0.25s1.875-0.25,1.875-0.25c2.125-0.375,0.25-0.375,0.375-1.25s1-0.875,1-0.875s0.75,0.124,1.25-0.376
	s0.75-0.75,0.75-1.375s-0.626-1.625-0.626-1.625s-0.875-0.625-0.875-1.375s0.125-1,0.375-1.5s0-1.375,0-2.875s0-1.625,0.125-2.625
	s0.75-0.5,1.5-1s-0.25-1.75-0.25-1.75s-0.5,0-1.625-0.375s-1.625-0.375-2.375-1.875s-0.375-1.125-0.5-1.75s-0.75-0.875-0.5-2.375
	s-0.993-2.927-0.993-2.927l-1.062-0.354c0,0-0.707-0.354-0.884-1.061c-0.179-0.707,0.177-0.885,0.354-1.944
	c0.177-1.06-0.53-2.122-0.53-2.122l-1.235,1.061c0,0,1.769-2.828,1.942-3.711c0.177-0.883,0-1.062,0.354-1.769
	c0.354-0.707,0.707-0.53,1.769-0.884s1.414-1.061,1.414-1.061s0.53-1.414,0.354-2.83c-0.18-1.414-0.354-1.943-0.354-3.182
	s-1.414-0.884-1.414-0.884l-1.062-1.415c0,0-1.062-0.354-1.591-1.236c-0.53-0.884,0-1.414,0.177-2.476
	c0.178-1.062-0.529-1.414-0.529-1.414s-0.885-2.121-1.237-3.183c-0.353-1.061-0.177-1.59-0.354-2.475
	c-0.177-0.884,0.178-1.415,0.707-2.121c0.529-0.707,1.236-1.769,2.299-2.121c1.061-0.354-0.354-1.592-0.354-1.592
	s1.237-3.712,1.944-3.712s0.707,0,3.358-0.177c2.649-0.178,1.414-0.885,1.942-1.592c0.53-0.707,1.77-0.529,2.477-0.707
	c0.707-0.176,0.707,0,1.414,0s3.184-0.707,3.184-0.707s1.591-1.413,2.298-1.768c0.707-0.354,1.414-0.884,1.414-0.884l1.237,1.238
	l1.413,0.177c0,0,1.593,0.707,2.477,0.884s1.237,0.354,2.121,0.177c0.884-0.177,1.061-0.529,1.768-1.943
	c0.707-1.415,0.886-1.768,1.062-3.006c0.177-1.236,3.357-1.236,4.243-1.59c0.884-0.354,1.061-0.708,2.12-1.237
	c1.061-0.53,0-1.591,0-3.358c0-1.768-0.529-1.945-0.707-3.182c-0.179-1.238-0.529-1.591-0.706-2.475
	c-0.179-0.884,1.591-1.768,2.298-3.182c0.707-1.415,0-1.945-0.178-3.182c-0.179-1.237-1.77-1.237-1.77-1.237l-3.183-2.122
	l-1.414-0.707c0,0-0.178-1.414,0-3.005c0.177-1.591,1.061-2.121,1.768-3.358c0.708-1.238,0.708-2.652,0.708-3.536
	c0-0.884-1.769-1.237-1.769-1.237v-4.066v-4.773c0-1.238-0.707-3.536-1.237-4.419c-0.53-0.884,0.53-2.475,0.53-2.475
	s-0.885-1.944-1.062-2.828c-0.177-0.884,1.062-4.773,1.062-4.773l1.944-4.773l1.235-2.121c0,0,0-3.182,0.53-3.889
	c0.529-0.707,0.354-4.066,0.354-4.066s-0.707-6.717-1.414-7.159s-0.975-0.973-1.682-1.856c-0.707-0.883-2.032-0.088-3.005-0.088
	c-0.974,0-1.945-0.088-3.006-0.265c-1.062-0.177-1.325-0.442-2.651-0.707c-1.324-0.265-2.21,0.884-2.562,1.591
	c-0.354,0.708-0.707,0.973-1.771,2.563c-1.061,1.59-1.147,0.354-2.475,0.972c-1.326,0.619-1.237-0.884-2.21-1.237
	c-0.974-0.353-2.21,0.354-3.271,0.354s-0.975-0.265-2.3-1.149c-1.324-0.884-1.324-0.53-3.183,1.237
	c-1.854,1.768-1.68,1.149-3.006,0.884c-1.325-0.265-1.943,1.237-1.943,1.237s-2.388,2.298-3.005,2.652
	c-0.619,0.354-3.095,1.061-3.979,2.298c-0.886,1.238-0.179,0.796-1.855,1.68c-1.68,0.884-1.326,0.088-1.326-0.972
	c0-1.061,0-0.442,0.619-1.856c0.618-1.414,0-0.619-0.619-0.884c-0.618-0.265-1.062-0.795-1.679-1.679
	c-0.619-0.884-0.619-1.238-1.326-1.945s-2.121,0.795-3.356,0.619c-1.238-0.177-1.148,0-2.033,0.088
	c-0.884,0.088-0.089,0.796,0.178,1.591c0.265,0.795,0.44,0.707,1.061,1.414s-0.089,1.944-0.089,2.652
	c0,0.707-0.176,0.795,0.089,1.591c0.269,0.795,0.707,0.53,1.593,1.149c0.885,0.619,0.528,0.972,0.354,1.768
	c-0.177,0.795-0.972-0.088-1.942-0.177c-0.974-0.089-1.593,1.326-2.562,1.856c-0.973,0.53-1.414,0.354-2.388,0.442
	s-0.795,0.619-2.388,2.122c-1.591,1.502-1.68,0.619-2.828,0.619c-1.146,0-0.706-0.619-2.031-1.503
	c-1.325-0.884-0.618,0.088-1.591,0.442c-0.975,0.354,0.088,1.061,0.706,2.033c0.617,0.972,0.796,1.679,0.974,2.033
	c0.177,0.354,0,0.442-1.414,1.945c-1.414,1.502-1.062,0.088-2.121,0.088c-1.06,0-0.796,0.088-1.855,0.177
	c-1.061,0.089-0.706-0.442-0.706-1.149v-2.122c0-1.502-0.529-1.149-0.798-1.502c-0.265-0.354,0-0.795-0.177-1.237
	s-0.884-1.061-1.325-1.061c-0.44,0-1.68,0.088-1.942-0.265c-0.268-0.354-0.796-0.884-1.592-1.237
	c-0.796-0.354-1.681-1.237-2.031-1.591c-0.354-0.354,0-0.796,0.088-1.238c0.089-0.442,1.68-1.061,3.005-0.884s4.153,0.53,6.364,0.53
	h4.151c0.886,0,3.007-0.442,4.154-0.707c1.148-0.265,2.65-1.061,3.184-1.679c0.529-0.619,0.177-0.795,0.089-1.945
	c-0.089-1.149-0.441-1.591-1.236-2.298C43.931,8.142,44.02,7.7,40.661,5.49c-3.355-2.209-3.182-0.707-4.508-0.619
	c-1.325,0.088-1.146-0.53-2.121-0.795c-0.972-0.265-3.005-0.177-4.686-0.177c-1.68,0-1.769,0.265-3.094-0.088
	c-1.324-0.354-0.707-0.795-1.854-0.884C23.25,2.839,22.983,3.104,22.01,2.75c-0.974-0.354-1.236-0.884-1.943-1.149
	C19.36,1.336,20.33,1.773,19.092,1.685z"/>
</svg>
