<?xml version="1.0" encoding="utf-8"?>
<!-- Generator: Adobe Illustrator 16.0.4, SVG Export Plug-In . SVG Version: 6.00 Build 0)  -->
<!DOCTYPE svg PUBLIC "-//W3C//DTD SVG 1.1//EN" "http://www.w3.org/Graphics/SVG/1.1/DTD/svg11.dtd">
<svg version="1.1" id="Layer_1" xmlns="http://www.w3.org/2000/svg" xmlns:xlink="http://www.w3.org/1999/xlink" x="0px" y="0px"
	 width="60.959px" height="129.234px" viewBox="0 0 60.959 129.234" enable-background="new 0 0 60.959 129.234"
	 xml:space="preserve">
<path id="Ural" fill="#27AE60" stroke="#FFFFFF" stroke-miterlimit="10" d="M7.076,97.8c1.062-0.53,0.163-1.537,0.163-3.305
	s-0.53-1.944-0.707-3.182c-0.178-1.236-0.53-1.591-0.707-2.475c-0.177-0.885,1.591-1.768,2.298-3.182
	c0.707-1.416,0-1.945-0.177-3.183c-0.178-1.237-1.769-1.237-1.769-1.237l-3.185-2.121L1.579,78.41c0,0-0.177-1.414,0-3.006
	c0.178-1.591,1.062-2.121,1.771-3.357c0.707-1.237,0.707-2.652,0.707-3.536s-1.771-1.237-1.771-1.237v-4.066v-4.773
	c0-1.238-0.707-3.536-1.236-4.419s0.529-2.475,0.529-2.475s-0.884-1.944-1.062-2.828c-0.178-0.884,1.062-4.773,1.062-4.773
	l1.944-4.773l1.237-2.122c0,0,0-3.182,0.528-3.889c0.53-0.707,0.354-4.066,0.354-4.066s-0.707-6.717-1.414-7.159l0.674-2.294
	l-1-0.875l-0.375-2.5l-2.5-0.625l0.25-3.375c0,0,1.5-1.5,2.125-1.5s-1.5-2.125-1.75-3s0-1.25,0.5-1.5s0.25-1,0.125-2
	S2.152,3.136,2.152,3.136l0.875-2.5l2.875,1c0,0,0.625,1,1.25,1.125s1.25,0,1.75,0s0.25,0.125,1,1.625s0.75,0,1.875,0.25
	s1.125,1.375,1,2.125s-0.75,1.375-1.375,2.5s-0.5,0.75-1.5,1.875s1.5,1.875,1.5,1.875s0.25,1.5,0.875,2.375s0.125,0.25,1.125,0.75
	s0,0.875,0,2.25s0.75,0.25,0.75,0.25s0.5,0.625,0.875,1.875s0.125,0.5,1,2.375s1.25-0.125,1.25-0.125s0.75,0.625,1.25,1.625
	s2.375,0.625,2.375,0.625s1-1,1.75-1.625s0.5-0.375,1.5-0.75s0.049,0.147,0.674,1.897s0.423,3.058,0.5,3.826s0.461,1.46,1.076,1.537
	c0.614,0.077,1.229,0.692,2.074,1.46c0.847,0.768,0.847,0.846,1.152,1.076c0.308,0.23,1.689,3.843,1.689,4.227
	c0,0.384,0.537,1.999,0.614,2.459c0.076,0.461,0.538,0,1.537,0c0.998,0,1.536,0.615,1.613,1.922
	c0.075,1.307,0.151,2.229,0.385,3.151c0.229,0.922,0,2.075-0.153,2.844s-0.076,1.691,0.076,2.075c0.153,0.384,2.536,1,2.844,1.384
	c0.309,0.384,1.537,0.922,1.846,1.691c0.31,0.769,0.31,0.999,0.614,1.46c0.309,0.461,1.46,1.384,1.77,1.614
	c0.309,0.23,0.229,1.537,0.614,2.075c0.384,0.538,1.151,1.153,1.46,1.537c0.31,0.384,1.075,2.844,0.614,3.612
	c-0.461,0.769-0.229,1.922-0.461,3.305c-0.23,1.383,0.229,0.769,1.689,1.613c1.46,0.846,0,0.538,0.076,1.307
	s0.613,1.076,1.309,1.768c0.689,0.692,0.308,0.615,0.384,1.691c0.077,1.076,0.923,1.845,1.461,2.689c0.538,0.846-0.23,1-0.691,1.922
	s-1.229,0.614-2.229,1.613s-0.538,1.768-0.538,2.536s-0.385,2.229-1.075,2.998s-0.309-1.383-1.461,0.231
	c-1.152,1.613-0.77,3.766-0.614,4.61c0.152,0.847,0.614,0.769,0.922,0.922c0.31,0.154,0.848-0.461,1.462-1.383
	s1.689-0.614,2.307-0.538c0.614,0.077,1.688,0.846,2.307,1.691c0.614,0.845,0,3.228-0.077,3.611
	c-0.075,0.385-0.537,1.308-0.613,2.229s3.844,0.845,3.844,0.845s0.923,2.537,1.308,2.537c0.384,0,1.537,0,1.77,0.77
	c0.229,0.769,1.384,2.844,2.15,3.15c0.771,0.307,0.31,0.538,0.31,0.999s0,0.538,0.922,1.845c0.924,1.308,0.847,3.998,0.847,5.227
	c0,1.23-0.077,0.922-0.229,1.613l-2.53,0.205c0,0,0.651,4.239,0,4.565s-3.805,0.761-3.805,0.761s-0.107,3.262-0.219,3.805
	c-0.107,0.543-1.631,1.521-1.957,2.065c-0.324,0.544-0.65,0.543-0.324,1.196c0.324,0.652,0.544,1.521,0.436,1.957
	c-0.107,0.436,0.544,1.304-0.65,1.521c-1.195,0.217-1.738,0.652-2.393,0.108c-0.655-0.544-0.869-1.739-1.739-2.174
	c-0.869-0.435-1.193-0.435-1.305-1.304c-0.108-0.871-0.437-2.174-0.437-2.174s-1.088-1.631-1.631-1.631
	c-0.544,0-2.718,0.543-3.15,0.217c-0.437-0.326-2.5-0.107-3.262-0.761c-0.762-0.651-0.869-1.194-1.849-0.761
	c-0.979,0.436-2.719,0.543-2.719,0.543l-1.631-1.087c0,0-0.869-0.326-1.737-0.87c-0.87-0.543-0.979-1.848-1.306-2.391
	c-0.325-0.543-0.979-1.414-1.413-1.739c-0.436-0.326-0.869-0.978-1.413-1.522c-0.544-0.543-1.194-0.869-1.956-1.087
	c-0.762-0.217-1.412-0.325-1.631-0.978s0-1.196-0.437-1.305s-1.521-0.543-1.521-0.543s-0.107-1.521-0.65-1.849
	c-0.544-0.326-1.631-1.194-2.283-1.521c-0.65-0.326-1.412-0.436-1.63-1.306c-0.218-0.868-0.544-1.194-0.544-1.194
	s-1.306-0.871-1.521-1.414c-0.219-0.543-0.87-1.629-0.87-1.629l-1.413-1.522l-1.63-0.543L7.076,97.8z"/>
</svg>
