<?xml version="1.0" encoding="utf-8"?>
<!-- Generator: Adobe Illustrator 16.0.4, SVG Export Plug-In . SVG Version: 6.00 Build 0)  -->
<!DOCTYPE svg PUBLIC "-//W3C//DTD SVG 1.1//EN" "http://www.w3.org/Graphics/SVG/1.1/DTD/svg11.dtd">
<svg version="1.1" id="Layer_1" xmlns="http://www.w3.org/2000/svg" xmlns:xlink="http://www.w3.org/1999/xlink" x="0px" y="0px"
	 width="88.481px" height="48.061px" viewBox="0 0 88.481 48.061" enable-background="new 0 0 88.481 48.061" xml:space="preserve">
<path id="Venezuela" fill="#C0392B" stroke="#FFFFFF" stroke-miterlimit="10" d="M0.617,34.524c1.875-1.25,1.5-3.75,1.5-4.5v-3.125
	c0-1-0.125-1.75,1-3c1.125-1.25,1.75-2.375,1.75-2.375l1.25-1.125v-2l0.75-2.25c0,0,0.5-1.125,0.625-1.625s-0.25-2.5-0.25-2.5
	l0.25-1.625l3.125-0.875c0,0,0.375,0.375,1.375,0s2-1.25,2-1.25l2.25-1.25c0,0,1.5-1,2-1.5s2.25-1.125,2.25-1.125
	s0.875-0.25,1.5-0.25s2.75-0.625,2.75-0.625s0.125-0.625,0.875-1.125s1.25-1.125,1.875-1.25s4-0.625,4-0.625s1.25,0.875,1.375,2.125
	s-0.375,2,0.625,1.875s2-0.375,2.5-0.625s0.25-1.375,1.5-0.5s1.375,1.125,1.875,1.125s1.875-0.375,1.875-0.375l5.5,1.875
	l1.875-0.375c0.625-0.125,3.75-0.375,3.75-0.375s1.375,0.375,1.875,0.875s3.625,2.375,4.625,3.875s2.5,2,2.75,2.625
	s1.25,1.25,1.75,1.25s0.5,1,1.125,1.125s2,0.125,2,0.125s0.125,0.5,0.625,1.125s1.625-0.625,1.875,0.75s-0.125,2.125,0.625,2.125
	s1.5-0.5,1.5-0.5l1.25-0.5c0,0,0-1,1,0s1.75,0.75,2.625,1s-0.375,0.875,1.75,1.375s4.125,0.75,4.625,0.75s0.5-2,2.25-0.375
	s3,2.375,3,2.375s-4.33,3.574-4.86,4.635s-0.884,3.357-2.121,3.535s-8.662,0.529-8.662,0.529s0.354,2.121-0.707,2.121
	c-1.061,0-11.491-0.355-11.491-0.355l-1.414-4.24c0,0-1.236,0.885-1.414-0.885c-0.176-1.768-0.176-4.598-0.176-4.598
	s-2.652,1.414-4.244,1.943c-1.59,0.529-3.004,3.184-4.418,2.65c-1.416-0.527-2.123-2.299-2.476-0.883
	c-0.354,1.414,0.177,5.654-0.884,6.01c-1.061,0.355-1.414-0.266-2.298,0.795c-0.884,1.062-3.271,1.326-3.978,0.707
	c-0.708-0.617-1.238-1.324-2.033-1.59c-0.795-0.268-1.237-0.707-2.121-0.797c-0.884-0.088-1.061-0.529-1.768,0.266
	c-0.707,0.797-2.209,2.121-2.475,2.828s-1.68,3.271-1.326,4.242c0.354,0.973,1.768,0.709,1.768,2.477c0,1.77-0.53,2.65-1.502,2.916
	c-0.973,0.268-5.834,1.855-5.834,1.855s-0.795-2.121-1.326-2.65c-0.531-0.527-1.502-0.797-2.209-0.973
	c-0.708-0.178-1.856-1.414-2.74-1.326c-0.884,0.088-3.182,0.088-3.801-0.619c-0.619-0.707-1.679-1.502-3.271-1.59
	c-1.591-0.09-2.298,1.062-3.358-0.619c-1.061-1.68-3.005-3.977-3.536-4.062C2.411,35.508-0.062,35.245,0.617,34.524z"/>
</svg>
