<?xml version="1.0" encoding="utf-8"?>
<!-- Generator: Adobe Illustrator 16.0.4, SVG Export Plug-In . SVG Version: 6.00 Build 0)  -->
<!DOCTYPE svg PUBLIC "-//W3C//DTD SVG 1.1//EN" "http://www.w3.org/Graphics/SVG/1.1/DTD/svg11.dtd">
<svg version="1.1" id="Layer_1" xmlns="http://www.w3.org/2000/svg" xmlns:xlink="http://www.w3.org/1999/xlink" x="0px" y="0px"
	 width="72.658px" height="70.611px" viewBox="0 0 72.658 70.611" enable-background="new 0 0 72.658 70.611" xml:space="preserve">
<path id="WesternUnitedStates" fill="#F39C12" stroke="#FFFFFF" stroke-miterlimit="10" d="M68.993,1.75
	c-0.866,0.475,0.134,36.6-0.366,37.1s-11.375,0.375-11.875,0.625s-0.875,0.875-1,1.75s0,4-0.125,5.375s-1.875,0-2.375,0.25
	s-3.875,1.5-3.875,2.125s-0.75,4-0.75,4.625s-1,6.125-1,6.125s-1.75,0.5-2.25,0.75s-2.375,0.25-2.875,0.875s0.125,2.5,0.125,2.5
	s1.75,0.25,1.375,1s0.875,5.375,0.75,5.125s-3.375,0-4.375,0.125s-2.25-0.875-2.625-1.375s-0.75-1.125-1.875-1.125
	s-3.375-2.75-4-3.25s-8.375,0-9.375,0s-2.375-2.375-2.375-2.375l-3.875-2.125c0,0-6.625,0-7.75,0.125s-1.75-3.375-1.75-3.375
	c-0.5-2.125-0.75-1.625-0.75-3.5s-2.875-5.5-4.25-7.5s-1.375-7.375-1.125-8.75s-0.25-6.375,0.625-8.5s0.875-5.125,1.5-8
	s-0.125-2.25,1.375-5.875s1.375-1.25,1.625-4.375s1.25-1.25,1.375-3.875s0.625-3.875-0.25-5.125c0,0-0.25,0.75,0.75,1
	S65.126,2.726,68.993,1.75z"/>
</svg>
