<?xml version="1.0" encoding="utf-8"?>
<!-- Generator: Adobe Illustrator 16.0.4, SVG Export Plug-In . SVG Version: 6.00 Build 0)  -->
<!DOCTYPE svg PUBLIC "-//W3C//DTD SVG 1.1//EN" "http://www.w3.org/Graphics/SVG/1.1/DTD/svg11.dtd">
<svg version="1.1" id="Layer_1" xmlns="http://www.w3.org/2000/svg" xmlns:xlink="http://www.w3.org/1999/xlink" x="0px" y="0px"
	 width="80.705px" height="94.228px" viewBox="0 0 80.705 94.228" enable-background="new 0 0 80.705 94.228" xml:space="preserve">
<path id="WesternAustralia" fill="#8E44AD" stroke="#FFFFFF" stroke-miterlimit="10" d="M79.759,93.557l0.232-0.27
	c0,0,0-5.657,0.18-7.071c0.178-1.414-0.354-1.237-1.062-2.298c-0.707-1.062,0.885-42.25,0.707-43.134
	c-0.176-0.887-29.875,0.354-29.875,0.354L49.353,3.403l-2.121-1.237c0,0-1.592-1.062-2.477-1.592
	c-0.885-0.53-1.592,1.942-2.299,2.299c-0.707,0.354-2.828,1.591-2.828,1.591s-0.529,1.768-0.885,3.005
	C38.39,8.706,36.8,7.646,34.853,8.353c-1.943,0.707-0.178,0.707-0.707,2.479c-0.529,1.768-0.529,0.177-2.121,0.177
	c-1.591,0-0.707,0.707-1.769,2.121s-1.236,0.354-2.65,1.591c-1.415,1.237-0.354,1.237-1.235,3.005
	c-0.887,1.771-1.062,0.885-2.122,1.591c-1.062,0.709-2.828,2.479-3.891,3.536c-1.062,1.062-1.591,0.53-3.713,0.354
	c-2.121-0.177-0.884,0-2.476,0.177c-1.591,0.177-1.236,1.237-2.298,2.121s-1.592,1.237-2.828,2.475
	c-1.237,1.238-0.529,0.531-2.478,0.708c-1.942,0.18-1.062,0.18-3.005,1.414c-1.942,1.237-0.178,1.593-0.354,3.006
	c-0.178,1.413-0.53,1.413-1.062,2.65c-0.53,1.237,0,1.591,0.529,3.006c0.53,1.414,1.592,0.53,1.592,0.53s-0.354,2.121,0,2.828
	c0.354,0.707-0.178,0-1.769,0c-1.592,0-0.707,0.53-0.707,1.768v1.237c0,0-0.529,0.177-1.062,1.237c-0.529,1.062,0,0.885,0.178,2.122
	c0.177,1.234,0.354,1.768,0.884,3.005c0.529,1.234,1.062,0.884,1.943,2.828c0.884,1.942,0.354,2.12,0.354,3.89
	c0,1.768,0,1.237,0.178,3.535s1.236,1.591,1.236,1.591s1.237,0.884,1.943,1.414c0.707,0.531,0.707,1.062,1.062,2.829
	c0.354,1.767-0.529,1.414-0.885,2.475c-0.354,1.062,0,0.707-0.178,2.828c-0.178,2.122-0.885,1.237-1.592,2.122
	c-0.707,0.884-0.528,0.884-1.062,2.298c-0.532,1.414,0,1.062,0.884,1.771c0.885,0.708,1.944,1.234,3.007,2.12
	c2.439,2.674,5.062,1.988,8.131,0.354c1.594-0.884,0.887-1.061,2.122-1.591c1.236-0.53,0.885-0.354,1.592-0.707
	c0.707-0.354,1.236-0.884,2.298-1.944c1.062-1.06,0.354-0.177,1.592-0.884c1.236-0.707,1.414-1.237,3.358-1.944
	c1.942-0.708,2.476-0.177,2.476-0.177h1.591c1.592,0,0.707,0.177,1.062,0.884c0.354,0.707,1.413,0.707,2.12,0.707
	c0.708,0,1.771-0.177,2.651-0.527c0.884-0.354-0.177-1.595-0.177-2.302s0-0.884,0.528-2.12c0.53-1.235,2.121-1.592,2.828-1.592
	c0.708,0,2.477-0.354,3.184-1.061s1.062-0.354,2.477-0.53s1.236-0.53,2.297-1.591c1.062-1.062,1.062-0.53,3.006-0.53h3.006
	c1.943,0,1.77,0.177,3.006,0.354c1.236,0.177,1.943,1.414,2.828,1.941c0.885,0.53,0.354,0.707,0.354,2.121s0.178,1.591,1.592,4.065
	c1.414,2.476,2.121,2.476,2.121,2.476s1.236-1.768,2.299-3.356c1.061-1.594,0.883-0.53,2.477-1.062
	c1.59-0.531,0.527-1.061,0.883-3.355c0.355-2.3,1.062-0.707,2.301-0.53c1.236,0.177,0,2.298-0.355,3.535
	c-0.354,1.234-1.061,1.591-1.943,2.476c-0.883,0.884-0.883,1.062-1.943,2.298c-1.061,1.237-0.527,1.062-0.354,2.478
	s1.941-1.237,2.648-2.298c0.707-1.062,0.707-0.354,1.594-0.18c0.885,0.18,0.178,2.299,0.178,3.358s0.178,0.884,1.061,1.414
	c0.885,0.53,0.885,1.591,0.354,3.006c-0.529,1.414,0,1.414,0.178,2.475c0.178,1.062,2.121,3.713,2.828,4.42
	c0.707,0.706,0.529,0.354,1.236,0.706C78.874,92.323,78.521,92.673,79.759,93.557z"/>
</svg>
