<?xml version="1.0" encoding="utf-8"?>
<!-- Generator: Adobe Illustrator 16.0.4, SVG Export Plug-In . SVG Version: 6.00 Build 0)  -->
<!DOCTYPE svg PUBLIC "-//W3C//DTD SVG 1.1//EN" "http://www.w3.org/Graphics/SVG/1.1/DTD/svg11.dtd">
<svg version="1.1" id="Layer_1" xmlns="http://www.w3.org/2000/svg" xmlns:xlink="http://www.w3.org/1999/xlink" x="0px" y="0px"
	 width="57.261px" height="79.951px" viewBox="0 0 57.261 79.951" enable-background="new 0 0 57.261 79.951" xml:space="preserve">
<path id="WesternEurope" fill="#2293AC" stroke="#FFFFFF" stroke-miterlimit="10" d="M56.483,16.209
	c-1.148-0.177-1.148,0.442-1.326,0.796c-0.177,0.354-0.884,1.326-1.502,1.944c-0.619,0.619-0.531,1.326-0.179,2.21
	c0.354,0.884,0.354,1.679,0.354,3.182c0,1.503-1.062,1.326-1.062,1.326s-0.886,0.973-1.062,1.326s0.884,1.237,0.884,1.237
	s1.856,1.237,2.21,1.679c0.354,0.442,0.088,1.856-0.089,2.563s-1.062,1.414-1.769,1.591c-0.707,0.177,0,1.945,1.592,3.359
	c1.59,1.414,0.58,1.735,0.58,1.735s-0.914,0.155-1.414,0.53s-0.125,0.375-0.625,1s-0.375,0.75-1.25,1s-0.125,0.75-1,0.625
	s-0.75,0.25-1.25-0.25s-0.125-1.125-1-1.125s-1.25,0.125-0.875-0.625s0.875-0.75-0.125-0.75s-0.875,0.25-2.125,0
	s-1.75-0.125-2.25-0.125l-1.375,2.5c0,0,0.125,0.5,0,1.125s-0.625,1.125-0.625,1.125s-0.375,0.375-0.375,1.125s0.25,0.875-0.5,1.625
	s-0.75,1-1.25,1.25s-0.5,0.125-0.875,0.625s-0.625,0.5-0.875,1.125s-0.25,0.625,0.125,1.25s0.629,1.376,0.629,1.376
	s0.375,0.125,0.125,1.25s-0.375,1.875-0.375,1.875s0,0.5,0.125,1.5s1,2.125,1,2.125l0.625,0.875c0,0,0.375,1.5,0.5,2.25
	s1.25,0.5,0.125,1.5s-2.75,1.625-3.875,3.5s-0.75,3.375-1.625,4.375s-0.125,1.125-1.25,1.125s-2.125-1.25-2.75,0s-1,2.375-1.875,2.5
	c-0.875,0.125-1-1.375-1,0.375s-0.375,2.875-0.375,2.875s-0.25,0.875-1.125,0.75s-1-0.25-1.75-0.375s-0.75,0.375-1.375-0.375
	s-0.75-1.125-1-1.75s-0.25-0.875-1.25-1s-1,0.25-1.5-0.625s-0.75-1.125-1.5-1s-0.75,0.625-1.75-0.375s-1-1.75-1.5-1.625
	s-1.125,1-1.125,1s0.125,0.5-1.375,0.375s-1.75-0.375-2.875-0.375s-1.25,0.75-2.25,0.25s-1.125-0.625-1.125-1.25s0.125-1.5-0.375-2
	s0.125-1.125-0.625-1.5s-0.375-0.25-1.25-0.25s-0.875,0.125-1.75-0.375s-1.25,0.25-0.875-1.125s0.125-1.25,0.75-2.25
	s0.625-1,1-2.125s0.5-1.375,1.125-3s0.875-1.125,0.875-2.375s-0.5-1.25,0.25-2.125s0.875-0.875,0.75-1.875s0.25-0.75-0.25-1.5
	s-1.75-1.875-2.25-2.375s-0.375,0.125-0.625-1.375s-0.75-1.25-1-2.125s-0.25-0.875-0.25-2s-0.875-0.75-0.875-1.375
	s-0.375-1.125,0.5-1.625s1-0.125,2.125-1.125s1.125-0.75,1.375-1.625s1.125-1.375,1.125-1.375S5.58,36.938,6.33,37.688
	s0.875,0.75,1,1.25s-0.375,0.625,1.125,1s1.125,0.5,2.625,0.5s1.875,0.125,2.5-0.125s1.25-0.625,1.25-0.625s0.5-0.375,1.375-0.375
	s1-0.125,1.75,0.125s0.125,0.375,0.875,0.25s0.875,0.125,1.5-0.25s1,0.25,1.375-0.875s0-1.5,1-2.25s1.375-1,2.375-1
	s-0.625-1.625-1.25-1.75s-1,0.5-1-0.125s-0.125-0.75,0.25-1.75s1.125-1.625,1.125-1.625s-0.125-0.5-0.25-1.375
	s1.625-1.375,0.5-2.125s-1.625-1.125-2.375-1.125s-0.625,1.25-1.25-0.25s-0.125-1.75-0.75-2.5s-0.875-0.5-1.5-1.375
	s0.25-0.75-1.125-1.75s-2.25-1.25-2.875-1.25s-0.875,0.875-0.75-0.375s0.125-1.625,1-2.375s3.125-1.375,4-1.5s-0.5-0.5,1.375-0.125
	s1.25,0.375,2.125,0.5s2.5,0.625,2.5,0.625s0.25-1.875,0.75-2.5s0.625-0.625,1-1.625s0.5-1.125,1.75-1.5
	c1.25-0.375,2.125,0.625,2.125,0.625s-1.625,1.625-0.375,1c1.25-0.625-0.375-2.625,2.375-2.25s3.75,2,4.125,0.125
	s0-1.875,0.625-2.875s0.625-1,1.75-1.625s0.875-2.5,2.25-2.75s0.875,0,2.125-0.25s1.125,0,1.875-0.875c0,0,1.188,0.312,1.125,0.75
	c-0.063,0.438,1,3.188,1,3.188s1.312,0.812,2.188,2.062c0.878,1.25,1.312,2.375,1.75,2.5s0.688,0.125,0.812,0.938
	c0.123,0.813,0.188,0.938,0.562,1.438c0.372,0.5,0.938,0.438,1.062,1.188c0.125,0.75,0.312,1.562,0.625,1.938
	c0.313,0.376,1.25,1.062,1.25,1.062S56.392,16.375,56.483,16.209z"/>
</svg>
