<?xml version="1.0" encoding="utf-8"?>
<!-- Generator: Adobe Illustrator 16.0.4, SVG Export Plug-In . SVG Version: 6.00 Build 0)  -->
<!DOCTYPE svg PUBLIC "-//W3C//DTD SVG 1.1//EN" "http://www.w3.org/Graphics/SVG/1.1/DTD/svg11.dtd">
<svg version="1.1" id="Layer_1" xmlns="http://www.w3.org/2000/svg" xmlns:xlink="http://www.w3.org/1999/xlink" x="0px" y="0px"
	 width="70.037px" height="67.891px" viewBox="0 0 70.037 67.891" enable-background="new 0 0 70.037 67.891" xml:space="preserve">
<path id="Yakutsk" fill="#27AE60" stroke="#FFFFFF" stroke-miterlimit="10" d="M68.006,14.388c-0.5-1.125,0.75-1.25-1.125-2.25
	s-2.625-0.75-3.75-1.125s-0.875-0.625-0.375-2s2.125-1.5-0.125-2s-2.125-1.375-3.75-1.375s-1.25,0-2.125,0.375s-1,0.375-1.375,0.875
	s0.375,1.125-0.5,0.875s-0.375,0.125-1.25-0.875s-0.625-1.375-1.75-1.25s-0.25-0.125-1.875,0.25s-2.125,0.375-3.25,0.5
	s-3,1.625-3,1.625s0.125,0.25-1.25,0.375s-0.5-0.625-2.375,0.75s-1,1.5-2.5,1.375s-0.75-1-2.375-0.25
	c-1.625,0.75-1.75,0.375-1.75,1.375s-1,1.625-1,1.625s0-0.375-0.375-1.625s-0.875-0.75-0.75-2s-5.25-2-6-3.75
	s-0.625-1.5-0.875-3.125s-3.25-2.375-3.75-2.25s-1.875,1.625-2.5,2.375s-0.875,1.375-1.875,2.125
	c-0.863,0.851-1.669,1.374-2.438,1.938l0.312,2.562c0,0.5-0.125,2,1,3.125s1.5,0.625,2,1.125s-0.125,3.75-0.25,4.5
	s-0.624,0.75-1.124,1.625s-0.125,1.375-0.5,2.875s-0.875,0.875-1.25,2.375s0,1.375,0.5,2.375s0.5,1.875,0.5,3.375
	s-0.25,0.625-0.875,0.75s-1.25,0.625-2.5,0.75s-2.625,0.625-3.25-0.125c-0.625-0.75-1.25-0.875-3.5-0.625s-0.625,1-0.875,2
	s-1,0.875-2.5,1.125s-1,0.375-1.125,2s1.75,2.625,2.75,3s1.25,0.625,1.625,1.25s1.5,0.375,3,1.75s0.25,1.625-0.75,2.625
	s0.625,4.5,1.375,5s1.125,1.25,1.5,4.25s1.5,3.25,1.5,3.25s0.875,0.5,1,3.625s0.875,5.75,0.875,5.75s4.875-1.5,6.125-2.25
	s1.125-0.875,1.5-2.625s0.5-4.625,1.875-4.875s1.125,1.75,1.125,1.75c0.125,0.75,1.5,0.5,3,0.75
	c1.058,0.176,0.623-0.768,0.406-1.688c-0.091-0.386-0.145-0.767-0.031-1.062c0.375-1,12.295,0.112,12.295,0.112
	c0.439-1.062,1.236-1.768,2.562-3.005c1.322-1.236,0.266-3.447,0.354-3.889c0.088-0.442,1.77-1.856,2.562-4.861
	c0.795-3.005,1.77-0.795,1.77-0.795s2.031-1.768,2.738-3.005s4.598-1.062,5.039-0.884c0.439,0.177,0.178,1.943,0.795,3.182
	c0.619,1.236,0.266,0.529,1.326,0.441s1.768-0.441,2.738-0.441c0.973,0,0.529,1.414,0.973,1.592c0.441,0.176,2.031,0,2.477-0.089
	c0.441-0.088,1.414-0.795,2.031-1.325c0.619-0.531,0.178-2.299,0.268-3.095c0.088-0.795,0.973-1.062,1.236-1.679
	c0.266-0.619,0-2.299-0.09-3.094c-0.088-0.795-0.707-1.769-1.324-1.944c-0.619-0.177-3.094-0.354-4.066-0.442
	c-0.971-0.088-0.971-4.773-0.527-7.778c0.439-3.005,0.178-2.298,0.617-2.829c0.441-0.53,1.943-0.795,2.477-0.795
	s1.236-1.149,1.326-2.033c0.088-0.884,0.795-0.707,1.146-1.591c0.354-0.884,1.502-0.442,2.74-0.619
	c1.236-0.177,0.441-1.502,0.441-2.917L68.006,14.388z"/>
</svg>
